<mxfile host="app.diagrams.net" modified="2021-03-02T07:23:25.856Z" agent="5.0 (Macintosh; Intel Mac OS X 11_2_1) AppleWebKit/537.36 (KHTML, like Gecko) Chrome/88.0.4324.192 Safari/537.36" etag="Mr_3qfqGHmqRGmbKI9eH" version="14.4.3" type="github" pages="3">
  <diagram id="C5RBs43oDa-KdzZeNtuy" name="Alternative 1">
    <mxGraphModel dx="1306" dy="720" grid="1" gridSize="10" guides="1" tooltips="1" connect="1" arrows="1" fold="1" page="1" pageScale="1" pageWidth="1169" pageHeight="1654" math="0" shadow="0">
      <root>
        <mxCell id="WIyWlLk6GJQsqaUBKTNV-0" />
        <mxCell id="WIyWlLk6GJQsqaUBKTNV-1" parent="WIyWlLk6GJQsqaUBKTNV-0" />
        <mxCell id="ZbRekK_5Z5T81OuFVQke-2" value="&lt;h1&gt;Alternative 1&lt;/h1&gt;" style="text;html=1;strokeColor=none;fillColor=none;spacing=5;spacingTop=-20;whiteSpace=wrap;overflow=hidden;rounded=0;" vertex="1" parent="WIyWlLk6GJQsqaUBKTNV-1">
          <mxGeometry x="110" y="60" width="720" height="50" as="geometry" />
        </mxCell>
        <mxCell id="ZbRekK_5Z5T81OuFVQke-22" value="Google Auth Sign In" style="swimlane;html=1;childLayout=stackLayout;resizeParent=1;resizeParentMax=0;startSize=20;" vertex="1" parent="WIyWlLk6GJQsqaUBKTNV-1">
          <mxGeometry x="110" y="130" width="920" height="1020" as="geometry" />
        </mxCell>
        <mxCell id="ZbRekK_5Z5T81OuFVQke-23" value="User" style="swimlane;html=1;startSize=20;" vertex="1" parent="ZbRekK_5Z5T81OuFVQke-22">
          <mxGeometry y="20" width="220" height="1000" as="geometry" />
        </mxCell>
        <mxCell id="ZbRekK_5Z5T81OuFVQke-3" value="Click Google Sign Button" style="rounded=0;whiteSpace=wrap;html=1;" vertex="1" parent="ZbRekK_5Z5T81OuFVQke-23">
          <mxGeometry x="35" y="120" width="120" height="60" as="geometry" />
        </mxCell>
        <mxCell id="ZbRekK_5Z5T81OuFVQke-40" value="User Choose Account" style="rounded=0;whiteSpace=wrap;html=1;" vertex="1" parent="ZbRekK_5Z5T81OuFVQke-23">
          <mxGeometry x="35" y="240" width="120" height="60" as="geometry" />
        </mxCell>
        <mxCell id="ZbRekK_5Z5T81OuFVQke-9" value="Return Message" style="rounded=0;whiteSpace=wrap;html=1;" vertex="1" parent="ZbRekK_5Z5T81OuFVQke-23">
          <mxGeometry x="35" y="474" width="120" height="60" as="geometry" />
        </mxCell>
        <mxCell id="ZbRekK_5Z5T81OuFVQke-46" value="Input OTP" style="rounded=0;whiteSpace=wrap;html=1;" vertex="1" parent="ZbRekK_5Z5T81OuFVQke-23">
          <mxGeometry x="35" y="770" width="120" height="60" as="geometry" />
        </mxCell>
        <mxCell id="ZbRekK_5Z5T81OuFVQke-62" value="Input Phone Number" style="rounded=0;whiteSpace=wrap;html=1;" vertex="1" parent="ZbRekK_5Z5T81OuFVQke-23">
          <mxGeometry x="35" y="630" width="120" height="60" as="geometry" />
        </mxCell>
        <mxCell id="ZbRekK_5Z5T81OuFVQke-24" value="Google API" style="swimlane;html=1;startSize=20;" vertex="1" parent="ZbRekK_5Z5T81OuFVQke-22">
          <mxGeometry x="220" y="20" width="200" height="1000" as="geometry" />
        </mxCell>
        <mxCell id="ZbRekK_5Z5T81OuFVQke-6" value="Show Screen Google Auth Account" style="rounded=0;whiteSpace=wrap;html=1;" vertex="1" parent="ZbRekK_5Z5T81OuFVQke-24">
          <mxGeometry x="35" y="240" width="120" height="60" as="geometry" />
        </mxCell>
        <mxCell id="ZbRekK_5Z5T81OuFVQke-4" value="System Binding With Google Auth" style="rounded=0;whiteSpace=wrap;html=1;fillColor=#dae8fc;strokeColor=#6c8ebf;" vertex="1" parent="ZbRekK_5Z5T81OuFVQke-24">
          <mxGeometry x="35" y="370" width="120" height="60" as="geometry" />
        </mxCell>
        <mxCell id="ZbRekK_5Z5T81OuFVQke-8" value="Success" style="rhombus;whiteSpace=wrap;html=1;fillColor=#f5f5f5;strokeColor=#666666;fontColor=#333333;" vertex="1" parent="ZbRekK_5Z5T81OuFVQke-24">
          <mxGeometry x="55" y="464" width="80" height="80" as="geometry" />
        </mxCell>
        <mxCell id="ZbRekK_5Z5T81OuFVQke-16" value="" style="edgeStyle=orthogonalEdgeStyle;rounded=0;orthogonalLoop=1;jettySize=auto;html=1;" edge="1" parent="ZbRekK_5Z5T81OuFVQke-24" source="ZbRekK_5Z5T81OuFVQke-4" target="ZbRekK_5Z5T81OuFVQke-8">
          <mxGeometry relative="1" as="geometry">
            <mxPoint x="95" y="460" as="targetPoint" />
          </mxGeometry>
        </mxCell>
        <mxCell id="ZbRekK_5Z5T81OuFVQke-17" value="No" style="edgeStyle=orthogonalEdgeStyle;rounded=0;orthogonalLoop=1;jettySize=auto;html=1;" edge="1" parent="ZbRekK_5Z5T81OuFVQke-22" source="ZbRekK_5Z5T81OuFVQke-8" target="ZbRekK_5Z5T81OuFVQke-9">
          <mxGeometry relative="1" as="geometry" />
        </mxCell>
        <mxCell id="ZbRekK_5Z5T81OuFVQke-44" value="Yes" style="edgeStyle=orthogonalEdgeStyle;rounded=0;orthogonalLoop=1;jettySize=auto;html=1;exitX=0.5;exitY=1;exitDx=0;exitDy=0;entryX=0;entryY=0.545;entryDx=0;entryDy=0;entryPerimeter=0;" edge="1" parent="ZbRekK_5Z5T81OuFVQke-22" source="ZbRekK_5Z5T81OuFVQke-8" target="ZbRekK_5Z5T81OuFVQke-59">
          <mxGeometry relative="1" as="geometry">
            <Array as="points">
              <mxPoint x="285" y="594" />
              <mxPoint x="350" y="594" />
              <mxPoint x="350" y="472" />
            </Array>
          </mxGeometry>
        </mxCell>
        <mxCell id="ZbRekK_5Z5T81OuFVQke-50" value="&lt;span style=&quot;font-size: 12px ; text-align: left ; background-color: rgb(248 , 249 , 250)&quot;&gt;API OTP&lt;br&gt;ENDPOINT :&amp;nbsp; /verification&lt;/span&gt;&lt;br style=&quot;font-size: 12px ; text-align: left ; background-color: rgb(248 , 249 , 250)&quot;&gt;&lt;div style=&quot;font-size: 12px ; text-align: left ; background-color: rgb(248 , 249 , 250)&quot;&gt;PARAMS : deviceId,mobile&lt;/div&gt;" style="edgeStyle=orthogonalEdgeStyle;rounded=0;orthogonalLoop=1;jettySize=auto;html=1;exitX=0.5;exitY=1;exitDx=0;exitDy=0;" edge="1" parent="ZbRekK_5Z5T81OuFVQke-22" source="ZbRekK_5Z5T81OuFVQke-62" target="ZbRekK_5Z5T81OuFVQke-49">
          <mxGeometry relative="1" as="geometry">
            <mxPoint x="530" y="719" as="sourcePoint" />
          </mxGeometry>
        </mxCell>
        <mxCell id="ZbRekK_5Z5T81OuFVQke-51" style="edgeStyle=orthogonalEdgeStyle;rounded=0;orthogonalLoop=1;jettySize=auto;html=1;entryX=1;entryY=0.5;entryDx=0;entryDy=0;exitX=0.5;exitY=1;exitDx=0;exitDy=0;" edge="1" parent="ZbRekK_5Z5T81OuFVQke-22" source="ZbRekK_5Z5T81OuFVQke-49" target="ZbRekK_5Z5T81OuFVQke-20">
          <mxGeometry relative="1" as="geometry" />
        </mxCell>
        <mxCell id="ZbRekK_5Z5T81OuFVQke-52" style="edgeStyle=orthogonalEdgeStyle;rounded=0;orthogonalLoop=1;jettySize=auto;html=1;entryX=1;entryY=0.5;entryDx=0;entryDy=0;" edge="1" parent="ZbRekK_5Z5T81OuFVQke-22" source="ZbRekK_5Z5T81OuFVQke-20" target="ZbRekK_5Z5T81OuFVQke-46">
          <mxGeometry relative="1" as="geometry" />
        </mxCell>
        <mxCell id="ZbRekK_5Z5T81OuFVQke-53" value="API REGISTRATION&lt;br&gt;ENDPOINT : /register&lt;br&gt;PARAMS : +google_token" style="edgeStyle=orthogonalEdgeStyle;rounded=0;orthogonalLoop=1;jettySize=auto;html=1;entryX=0.003;entryY=0.626;entryDx=0;entryDy=0;entryPerimeter=0;exitX=0.5;exitY=1;exitDx=0;exitDy=0;" edge="1" parent="ZbRekK_5Z5T81OuFVQke-22" source="ZbRekK_5Z5T81OuFVQke-46" target="ZbRekK_5Z5T81OuFVQke-48">
          <mxGeometry x="-0.1676" relative="1" as="geometry">
            <mxPoint as="offset" />
          </mxGeometry>
        </mxCell>
        <mxCell id="ZbRekK_5Z5T81OuFVQke-25" value="Mobile" style="swimlane;html=1;startSize=20;" vertex="1" parent="ZbRekK_5Z5T81OuFVQke-22">
          <mxGeometry x="420" y="20" width="270" height="1000" as="geometry" />
        </mxCell>
        <mxCell id="ZbRekK_5Z5T81OuFVQke-10" value="Show Screen Login" style="rounded=0;whiteSpace=wrap;html=1;" vertex="1" parent="ZbRekK_5Z5T81OuFVQke-25">
          <mxGeometry x="50" y="120" width="120" height="60" as="geometry" />
        </mxCell>
        <mxCell id="ZbRekK_5Z5T81OuFVQke-64" style="edgeStyle=orthogonalEdgeStyle;rounded=0;orthogonalLoop=1;jettySize=auto;html=1;entryX=0.5;entryY=0;entryDx=0;entryDy=0;fontSize=10;" edge="1" parent="ZbRekK_5Z5T81OuFVQke-25" source="ZbRekK_5Z5T81OuFVQke-19" target="ZbRekK_5Z5T81OuFVQke-61">
          <mxGeometry relative="1" as="geometry" />
        </mxCell>
        <mxCell id="ZbRekK_5Z5T81OuFVQke-19" value="Get User parameter from Result Google&lt;br&gt;&lt;br&gt;&lt;pre style=&quot;font-size: 10px ; text-align: left ; box-sizing: border-box ; margin-top: 0px ; margin-bottom: 16px ; overflow-wrap: normal ; padding: 16px ; overflow: auto ; line-height: 1.45 ; border-radius: 6px ; color: rgb(36 , 41 , 46)&quot;&gt;&lt;code style=&quot;box-sizing: border-box ; padding: 0px ; margin: 0px ; border-radius: 6px ; word-break: normal ; border: 0px ; display: inline ; overflow: visible ; line-height: inherit ; overflow-wrap: normal&quot;&gt;{&lt;br&gt;  idToken: string,&lt;br&gt;  serverAuthCode: string,&lt;br&gt;  scopes: Array&amp;lt;string&amp;gt;,&lt;br&gt;  user: {&lt;br&gt;    email: string,&lt;br&gt;    id: string,&lt;br&gt;    givenName: string,&lt;br&gt;    familyName: string,&lt;br&gt;    photo: string, // url&lt;br&gt;    name: string // full name&lt;br&gt;  }&lt;br&gt;}&lt;/code&gt;&lt;/pre&gt;" style="rounded=0;whiteSpace=wrap;html=1;" vertex="1" parent="ZbRekK_5Z5T81OuFVQke-25">
          <mxGeometry x="20" y="320" width="230" height="284" as="geometry" />
        </mxCell>
        <mxCell id="ZbRekK_5Z5T81OuFVQke-20" value="Show Screen OTP" style="rounded=0;whiteSpace=wrap;html=1;" vertex="1" parent="ZbRekK_5Z5T81OuFVQke-25">
          <mxGeometry x="75" y="770" width="120" height="60" as="geometry" />
        </mxCell>
        <mxCell id="ZbRekK_5Z5T81OuFVQke-1" value="&lt;b&gt;START&lt;/b&gt;" style="rounded=1;whiteSpace=wrap;html=1;fontSize=12;glass=0;strokeWidth=1;shadow=0;fillColor=#0050ef;strokeColor=#001DBC;fontColor=#ffffff;" vertex="1" parent="ZbRekK_5Z5T81OuFVQke-25">
          <mxGeometry x="50" y="56" width="120" height="40" as="geometry" />
        </mxCell>
        <mxCell id="ZbRekK_5Z5T81OuFVQke-12" value="" style="edgeStyle=orthogonalEdgeStyle;rounded=0;orthogonalLoop=1;jettySize=auto;html=1;" edge="1" parent="ZbRekK_5Z5T81OuFVQke-25" source="ZbRekK_5Z5T81OuFVQke-1" target="ZbRekK_5Z5T81OuFVQke-10">
          <mxGeometry relative="1" as="geometry" />
        </mxCell>
        <mxCell id="ZbRekK_5Z5T81OuFVQke-59" value="&lt;pre style=&quot;box-sizing: border-box ; font-size: 10px ; margin-top: 0px ; margin-bottom: 16px ; overflow-wrap: normal ; padding: 16px ; overflow: auto ; line-height: 1.45 ; border-radius: 6px ; color: rgb(36 , 41 , 46)&quot;&gt;&lt;br&gt;&lt;/pre&gt;" style="text;html=1;strokeColor=none;fillColor=none;align=left;verticalAlign=middle;whiteSpace=wrap;rounded=0;fontSize=10;" vertex="1" parent="ZbRekK_5Z5T81OuFVQke-25">
          <mxGeometry x="20" y="367" width="180" height="156" as="geometry" />
        </mxCell>
        <mxCell id="ZbRekK_5Z5T81OuFVQke-61" value="&lt;font style=&quot;font-size: 11px&quot;&gt;Show Screen Phone Number&lt;/font&gt;" style="rounded=0;whiteSpace=wrap;html=1;fontSize=10;align=center;" vertex="1" parent="ZbRekK_5Z5T81OuFVQke-25">
          <mxGeometry x="75" y="630" width="120" height="60" as="geometry" />
        </mxCell>
        <mxCell id="ZbRekK_5Z5T81OuFVQke-38" value="Back End API" style="swimlane;html=1;startSize=20;" vertex="1" parent="ZbRekK_5Z5T81OuFVQke-22">
          <mxGeometry x="690" y="20" width="230" height="1000" as="geometry" />
        </mxCell>
        <mxCell id="ZbRekK_5Z5T81OuFVQke-55" style="edgeStyle=orthogonalEdgeStyle;rounded=0;orthogonalLoop=1;jettySize=auto;html=1;entryX=0.5;entryY=0;entryDx=0;entryDy=0;" edge="1" parent="ZbRekK_5Z5T81OuFVQke-38" source="ZbRekK_5Z5T81OuFVQke-48" target="ZbRekK_5Z5T81OuFVQke-54">
          <mxGeometry relative="1" as="geometry" />
        </mxCell>
        <mxCell id="ZbRekK_5Z5T81OuFVQke-48" value="&lt;b&gt;Do Registration&lt;/b&gt;" style="rounded=0;whiteSpace=wrap;html=1;fillColor=#dae8fc;strokeColor=#6c8ebf;" vertex="1" parent="ZbRekK_5Z5T81OuFVQke-38">
          <mxGeometry x="45" y="825" width="120" height="60" as="geometry" />
        </mxCell>
        <mxCell id="ZbRekK_5Z5T81OuFVQke-49" value="&lt;b&gt;Send OTP&lt;/b&gt;" style="rounded=0;whiteSpace=wrap;html=1;fillColor=#dae8fc;strokeColor=#6c8ebf;" vertex="1" parent="ZbRekK_5Z5T81OuFVQke-38">
          <mxGeometry x="45" y="690" width="120" height="60" as="geometry" />
        </mxCell>
        <mxCell id="ZbRekK_5Z5T81OuFVQke-54" value="&lt;b&gt;STOP&lt;/b&gt;" style="rounded=1;whiteSpace=wrap;html=1;fontSize=12;glass=0;strokeWidth=1;shadow=0;fillColor=#0050ef;strokeColor=#001DBC;fontColor=#ffffff;" vertex="1" parent="ZbRekK_5Z5T81OuFVQke-38">
          <mxGeometry x="45" y="925" width="120" height="40" as="geometry" />
        </mxCell>
        <mxCell id="ZbRekK_5Z5T81OuFVQke-13" value="" style="edgeStyle=orthogonalEdgeStyle;rounded=0;orthogonalLoop=1;jettySize=auto;html=1;" edge="1" parent="ZbRekK_5Z5T81OuFVQke-22" source="ZbRekK_5Z5T81OuFVQke-10" target="ZbRekK_5Z5T81OuFVQke-3">
          <mxGeometry relative="1" as="geometry" />
        </mxCell>
        <mxCell id="ZbRekK_5Z5T81OuFVQke-14" value="" style="edgeStyle=orthogonalEdgeStyle;rounded=0;orthogonalLoop=1;jettySize=auto;html=1;exitX=0.5;exitY=1;exitDx=0;exitDy=0;" edge="1" parent="ZbRekK_5Z5T81OuFVQke-22" source="ZbRekK_5Z5T81OuFVQke-3" target="ZbRekK_5Z5T81OuFVQke-6">
          <mxGeometry relative="1" as="geometry">
            <Array as="points">
              <mxPoint x="95" y="230" />
              <mxPoint x="285" y="230" />
            </Array>
          </mxGeometry>
        </mxCell>
        <mxCell id="ZbRekK_5Z5T81OuFVQke-41" style="edgeStyle=orthogonalEdgeStyle;rounded=0;orthogonalLoop=1;jettySize=auto;html=1;exitX=0;exitY=0.5;exitDx=0;exitDy=0;" edge="1" parent="ZbRekK_5Z5T81OuFVQke-22" source="ZbRekK_5Z5T81OuFVQke-6" target="ZbRekK_5Z5T81OuFVQke-40">
          <mxGeometry relative="1" as="geometry" />
        </mxCell>
        <mxCell id="ZbRekK_5Z5T81OuFVQke-42" style="edgeStyle=orthogonalEdgeStyle;rounded=0;orthogonalLoop=1;jettySize=auto;html=1;exitX=0.5;exitY=1;exitDx=0;exitDy=0;entryX=0.5;entryY=0;entryDx=0;entryDy=0;" edge="1" parent="ZbRekK_5Z5T81OuFVQke-22" source="ZbRekK_5Z5T81OuFVQke-40" target="ZbRekK_5Z5T81OuFVQke-4">
          <mxGeometry relative="1" as="geometry" />
        </mxCell>
        <mxCell id="ZbRekK_5Z5T81OuFVQke-18" style="edgeStyle=orthogonalEdgeStyle;rounded=0;orthogonalLoop=1;jettySize=auto;html=1;exitX=0;exitY=0.5;exitDx=0;exitDy=0;entryX=1;entryY=0.5;entryDx=0;entryDy=0;" edge="1" parent="ZbRekK_5Z5T81OuFVQke-22" source="ZbRekK_5Z5T81OuFVQke-9" target="ZbRekK_5Z5T81OuFVQke-10">
          <mxGeometry relative="1" as="geometry">
            <Array as="points">
              <mxPoint x="20" y="524" />
              <mxPoint x="20" y="60" />
              <mxPoint x="610" y="60" />
              <mxPoint x="610" y="170" />
            </Array>
          </mxGeometry>
        </mxCell>
        <mxCell id="ZbRekK_5Z5T81OuFVQke-63" style="edgeStyle=orthogonalEdgeStyle;rounded=0;orthogonalLoop=1;jettySize=auto;html=1;entryX=1;entryY=0.5;entryDx=0;entryDy=0;fontSize=10;" edge="1" parent="ZbRekK_5Z5T81OuFVQke-22" source="ZbRekK_5Z5T81OuFVQke-61" target="ZbRekK_5Z5T81OuFVQke-62">
          <mxGeometry relative="1" as="geometry" />
        </mxCell>
        <mxCell id="ZbRekK_5Z5T81OuFVQke-65" value="&lt;h1 style=&quot;font-size: 13px;&quot;&gt;&lt;ul style=&quot;font-size: 13px;&quot;&gt;&lt;li style=&quot;font-size: 13px;&quot;&gt;&lt;span style=&quot;font-weight: normal; font-size: 13px;&quot;&gt;Faster performance, because only client (mobile) that accessing google API auth&lt;/span&gt;&lt;/li&gt;&lt;li style=&quot;font-size: 13px;&quot;&gt;&lt;span style=&quot;font-weight: normal; font-size: 13px;&quot;&gt;not much changes in Back End API&lt;/span&gt;&lt;/li&gt;&lt;li style=&quot;font-size: 13px;&quot;&gt;&lt;span style=&quot;font-weight: normal; font-size: 13px;&quot;&gt;make user to register more easier&lt;/span&gt;&lt;/li&gt;&lt;/ul&gt;&lt;/h1&gt;" style="text;html=1;strokeColor=none;fillColor=none;spacing=5;spacingTop=-20;whiteSpace=wrap;overflow=hidden;rounded=0;fontSize=13;align=left;" vertex="1" parent="WIyWlLk6GJQsqaUBKTNV-1">
          <mxGeometry x="110" y="1220" width="890" height="51" as="geometry" />
        </mxCell>
        <mxCell id="ZbRekK_5Z5T81OuFVQke-66" value="&lt;h1 style=&quot;font-size: 13px&quot;&gt;&lt;ul style=&quot;font-size: 13px&quot;&gt;&lt;li style=&quot;font-size: 13px&quot;&gt;&lt;span style=&quot;font-weight: normal ; font-size: 13px&quot;&gt;User that register with google account can only login with google account not by email because, we not save password from registration process&lt;/span&gt;&lt;/li&gt;&lt;li style=&quot;font-size: 13px&quot;&gt;&lt;span style=&quot;font-weight: normal ; font-size: 13px&quot;&gt;Need more development in mobile (screen, logic)&lt;/span&gt;&lt;/li&gt;&lt;li style=&quot;font-size: 13px&quot;&gt;&lt;span style=&quot;font-weight: normal ; font-size: 13px&quot;&gt;Need to change field password in table must be nullable&lt;/span&gt;&lt;/li&gt;&lt;li style=&quot;font-size: 13px&quot;&gt;&lt;span style=&quot;font-weight: normal ; font-size: 13px&quot;&gt;Need add field google_token in table users&lt;/span&gt;&lt;/li&gt;&lt;li style=&quot;font-size: 13px&quot;&gt;&lt;span style=&quot;font-weight: normal ; font-size: 13px&quot;&gt;Need add condition in API register for google auth or make a new endpoint&lt;/span&gt;&lt;/li&gt;&lt;li style=&quot;font-size: 13px&quot;&gt;&lt;span style=&quot;font-weight: normal ; font-size: 13px&quot;&gt;Need add condition in API login to check google token&lt;/span&gt;&lt;/li&gt;&lt;li style=&quot;font-size: 13px&quot;&gt;&lt;span style=&quot;font-weight: 400&quot;&gt;Maybe have a problem with IOS because, if we provide google auth we must provide apple login too.&lt;/span&gt;&lt;/li&gt;&lt;/ul&gt;&lt;/h1&gt;" style="text;html=1;strokeColor=none;fillColor=none;spacing=5;spacingTop=-20;whiteSpace=wrap;overflow=hidden;rounded=0;fontSize=13;align=left;fontStyle=0" vertex="1" parent="WIyWlLk6GJQsqaUBKTNV-1">
          <mxGeometry x="110" y="1330" width="890" height="110" as="geometry" />
        </mxCell>
        <mxCell id="ZbRekK_5Z5T81OuFVQke-67" value="&lt;b&gt;&lt;font style=&quot;font-size: 18px&quot;&gt;Pros&lt;/font&gt;&lt;/b&gt;" style="text;html=1;strokeColor=none;fillColor=none;align=center;verticalAlign=middle;whiteSpace=wrap;rounded=0;fontSize=13;" vertex="1" parent="WIyWlLk6GJQsqaUBKTNV-1">
          <mxGeometry x="110" y="1190" width="60" height="20" as="geometry" />
        </mxCell>
        <mxCell id="ZbRekK_5Z5T81OuFVQke-69" value="&lt;b&gt;&lt;font style=&quot;font-size: 18px&quot;&gt;Cons&lt;/font&gt;&lt;/b&gt;" style="text;html=1;strokeColor=none;fillColor=none;align=center;verticalAlign=middle;whiteSpace=wrap;rounded=0;fontSize=13;" vertex="1" parent="WIyWlLk6GJQsqaUBKTNV-1">
          <mxGeometry x="120" y="1300" width="60" height="20" as="geometry" />
        </mxCell>
        <mxCell id="ZbRekK_5Z5T81OuFVQke-77" value="1" style="ellipse;whiteSpace=wrap;html=1;fontSize=20;align=center;fontStyle=1;labelBackgroundColor=none;fillColor=#cdeb8b;strokeColor=#36393d;" vertex="1" parent="WIyWlLk6GJQsqaUBKTNV-1">
          <mxGeometry x="227.69" y="1790" width="40" height="40" as="geometry" />
        </mxCell>
        <mxCell id="ZbRekK_5Z5T81OuFVQke-78" value="2" style="ellipse;whiteSpace=wrap;html=1;fontSize=20;align=center;fontStyle=1;labelBackgroundColor=none;fillColor=#cdeb8b;strokeColor=#36393d;" vertex="1" parent="WIyWlLk6GJQsqaUBKTNV-1">
          <mxGeometry x="540" y="1790" width="40" height="40" as="geometry" />
        </mxCell>
        <mxCell id="ZbRekK_5Z5T81OuFVQke-79" value="3" style="ellipse;whiteSpace=wrap;html=1;fontSize=20;align=center;fontStyle=1;labelBackgroundColor=none;fillColor=#cdeb8b;strokeColor=#36393d;" vertex="1" parent="WIyWlLk6GJQsqaUBKTNV-1">
          <mxGeometry x="860" y="1790" width="40" height="40" as="geometry" />
        </mxCell>
        <mxCell id="ZbRekK_5Z5T81OuFVQke-80" value="User Click Daftar dengan Google" style="text;html=1;strokeColor=none;fillColor=none;align=center;verticalAlign=middle;whiteSpace=wrap;rounded=0;labelBackgroundColor=none;fontSize=15;" vertex="1" parent="WIyWlLk6GJQsqaUBKTNV-1">
          <mxGeometry x="117.69" y="2410" width="230" height="20" as="geometry" />
        </mxCell>
        <mxCell id="ZbRekK_5Z5T81OuFVQke-81" value="User Pilih Akun Google" style="text;html=1;strokeColor=none;fillColor=none;align=center;verticalAlign=middle;whiteSpace=wrap;rounded=0;labelBackgroundColor=none;fontSize=15;" vertex="1" parent="WIyWlLk6GJQsqaUBKTNV-1">
          <mxGeometry x="445" y="2410" width="230" height="20" as="geometry" />
        </mxCell>
        <mxCell id="ZbRekK_5Z5T81OuFVQke-82" value="User Input Mobile Number" style="text;html=1;strokeColor=none;fillColor=none;align=center;verticalAlign=middle;whiteSpace=wrap;rounded=0;labelBackgroundColor=none;fontSize=15;" vertex="1" parent="WIyWlLk6GJQsqaUBKTNV-1">
          <mxGeometry x="765" y="2410" width="230" height="20" as="geometry" />
        </mxCell>
        <mxCell id="ZbRekK_5Z5T81OuFVQke-86" value="4" style="ellipse;whiteSpace=wrap;html=1;fontSize=20;align=center;fontStyle=1;labelBackgroundColor=none;fillColor=#cdeb8b;strokeColor=#36393d;" vertex="1" parent="WIyWlLk6GJQsqaUBKTNV-1">
          <mxGeometry x="212.69" y="2500" width="40" height="40" as="geometry" />
        </mxCell>
        <mxCell id="ZbRekK_5Z5T81OuFVQke-88" value="" style="shape=image;verticalLabelPosition=bottom;labelBackgroundColor=#ffffff;verticalAlign=top;aspect=fixed;imageAspect=0;image=data:image/png,iVBORw0KGgoAAAANSUhEUgAAAPAAAAIICAYAAABQC2PPAAAgAElEQVR4XuydB3wcxfXHv7N7p2716t7AgKmhd3AoBpJQAsT0FkroSaihh4ReE/gDIYReQoeE0HtvptvYxrjKlm1ZvVzbnf/nzd7Jsi2DJHy2ZM9+EJbuZmdnf/N+8968mfdGaa019rIIWAT6JQLKErhf9ptttEXAIGAJbAXBItCPEbAEXmHnycxC9eOutU1fGxCwBF4betm+Yz9BoOdKwxK4n3StbaZFoCsELIGtXFgE+jEClsD9uPNs0y0ClsCdZCCRSCA/y16hUAj5sVf/QaC5uRnP8ygsLDSNjsfjtLW1kZWVRWZmJvJ9Xl4eSqXfUSlbLXzfXyF4ruv2GtgeE1gaIz/fffcdjuOQm5tLZWUlDQ0NLFiwwABUXl5OTk5OR6OkfGNjI62trQwaNKjj8y+//JKNN964242PxWKmbEZGxlJ1t7e3M3v2bNMh0p6ioqIu65ROrK2tJT8/35TrfEUiEV544QXz0/kScLfbbjsOPfTQVdLZ3QajnxcUmZg3b56RB/m9M5Hk77lz5yL9KgPniBEjzNumysj3M2fOZOjQoUYGRS7q6+upqKjoKLPHHntQXV3NRx99ZGTyf//7HyeddBJ/+tOfOPDAA9lzzz154403OggudcrzpE0ipyk5F5kaOXIk3SHZokWLzEAh7ZDyskWqtbWFadOmGcXQ1Z4peSd5hryjDCw9HVB6ReDPPvuMf/7zn4aodXV1XHbZZdx3331Mnz7dAH3kkUeyxRZbdIiYkPeaa64xI+CNN95oPn/zzTfZZ599aGlp+UFRlJeeP38+n3zyiRkENtlkk+VI/+233/L73/+e0tJSxo8fvxzZZPQT4kq7P/zwQ0aNGsWYMWPYbLPNOjomVYcMBPJONTU1/OxnPzMdLH/LvfZaOQiIkIuAX3rppWy77bbstttuhMNhU/nChQsNaW+//XajFOT3P/zhD0Sj0Y7BX+6//PLLjYytv/76fPPNN3z11Vf87ne/MzIg13XXXcc222xjSLHRRhvx8ccfc8stt7DDDjsYObz77rt56aWXzCAgl/TxK6+8Ykg9Y8YMQ2Yhlnx/wAEHMG7cODNY/NB18803GyV2/vnnM2DAAENY4YnI1vbbb2+eO3DgQPPuQmgZhEQW//Of/5gBZffdd08/geUFjj76aM466yw23HBDA+7hhx/Orbfeahp72223GZKJ1pLRRMyYt956ixtuuIHRo0cbAkvDhfBXXHEFovm6uuTlRUO/+uqrZjSWkVTMnptuuoldd9214xb5W0ZM6UQZPauqqjj77LNNp6WEQp4h9Tz22GOGkDIgSFkZlQVouVIEFu0s302aNMkMBPK3lOtMYBGmRx991AjVb3/725Uj1WtJLdKv7777rhHip59+mueff54PPvigw2J78MEHTR8KETfYYAMzkIq19/XXX3PqqacalIRcDzzwgJEL6fshQ4aQnZ3NjjvuaAgt1/HHH2/qOOaYY3j77bcpKyszBP7FL35hypx33nncf//95hlyzZo1i2eeecb0qfS51CfyJoOIyMjJJ5/c5TRK3keUg7yDKDAZgFIElnplEHn22WfNwCBK66CDDjLv9+mnn5oB46677jKyK7wQ/qRdA0uj9t9/fy655BJD1Mcff9xoKiHInDlzTOcIgUQTpsCW0VRAlu+koffeey8777yz0YACUFfXtddeazpXRsEtt9yS//73vwwfPtzcL6NY6pLRUUgpA4WYY6+//roBcK+99uogsIx8TzzxhBECsRqKi4tNZ4kQSP0pAp977rmUlJSwyy67dNQvHfvkk08uReCJEyeajpDOkk62V/cREIEX/ERYxaq64IIL2HfffTsEVzTj4MGDzbRMyCUabcqUKQZ/URZyCebSnxMmTGCrrbbiqaeeMlMoGbBFw8r10EMPGevuqKOOMoOtyNA777xjZFXkTkglMioaOnXJs0TZCOFl4BB5knbIvfKTGuxT5VMm8RdffGGsUJHpZQk8duxYI5OijISow4YNMwpCrAixBmXAkvvFGpH3WCUE/vWvf83FF19sCPznP//ZjGZCRCGmjI7HHnuseXlpjGhqMRFkXirzYjGXnnvuOUMceTHR2FJ+2TmQjFhiMssLn3nmmQbY0047zRC483xErAFpjzxbwPr3v/9ttLTMgVImj7Tp4YcfNiOgjH4yJ5I2yAhYUFDQQeDUwHPKKaeYz6SDxDQTIUhpYPlMOldGc5kbHXfccd2XXlvSOHOuv/56QwzBVuaNIgPSJ3I98sgj5jsZSIXAQgiZQ4qFdMIJJ5gyYu5OnTqVzTff3PgsdtppJ6M8RAPKYCCXkHDTTTc1g69YbzJdk/qE1HK/EEqsp9Rz5R5pm/SzWF/y/JdfftkoKrEWpS55jlyvvfaakX2pV95BTF/hwbIEFlkR01ksDSGptFnkWbS8KDR573/9619MnjwZMb9F0a0SAstIJo0Xu12EW+YXMqIIIYSk8iIyoojJI84F0YBCVhmBZMQVs0fmAAKINL6zY2tZGRcHhZjaMsKdccYZhpydL+m0xYsXc8ghhxgCi8kiBEwRU8oKge+8804z6AipBViZp1911VXGVJJL2iEjvHScPE8Alg6VaYJ0smiNzuDKe8kglDLTLTe7h4BgL1aNmLRi3oo2FesqNSiLuSw4iwNK5sfSL9Jn8pMyd0V2RPtKn4r19f3335s5rQzAqX6XgUAGCtFwMuUSi0m0s9QtykHIf9hhhy3Xf9IemeIJcUWGxeqT6aAMAFdffbWRHWm3KCYZJMTyFJkW+RTLrbMGlrIybRNLcr/99iOR8MjJyTbPlPeRstJesWJFEchzenr1yoklgi2jiBBRTBCZM8glJBaApDOEtEIO+Vt+5DsBPkUYebmmpqaliLaixsuzpJNk9BRTpvMl9Ug7xPEgpBMPdWcPeEqTykAgRE79LaSUnxQpxay58MILjVktbUxpb7EsZPRdlsA9BdqWDxDo7IkVLShOHFkRSPVDarlFplsiH+LEEqtNvk8NvlKPyIJMlUT4xdqSgV2svFQ9QmAhrigYkR2x8lIaWAbf9957jzvuuKNjCtW5f6QNYravs846pj4xrWWgELmS9os1IM4tkSnR5jItE/mTf2UqJ1Zeqq0i82Kxid9FvpNL6kx53oXMMkhI/XLPKtHAVhgtAv0RgdTg0VOS9OV37bEG7ssvY9vWFQI93yC/puO47Lpzf35fS+D+3Hu27Ws9ApbAa70IrK0ArBmWyRpE4DWjQ9ZWOtn37h0CaxCBeweAvcsi0J8RsATuz71n277WI2AJvNaLgAWgPyNgCdyfe8+2fa1HwBJ4rRcBC0B/RsASuD/3nm37Wo+AJfBaLwJ9EQC7JNjdXllLCWwFpLsCYsv1bQTWUgL37U6xrbMIdBeBNBLYarnudoItZxHoLQJpJHBvm2TvswhYBLqLgCVwd5Gy5SwCfRABS+A+2Cm2SRaB7iJgCdxdpGw5i0AfRMASuA92im2SRaC7CFgCdxcpW84i0AcRsATug51im2QR6C4ClsDdRcqWswj0QQQsgftgp9gmWQS6i4AlcHeRsuUsAn0QAUvgPtgptkkWge4iYAncXaRsOYtAH0TAErgPdoptkkWguwhYAncXKVvOItAHEbAE7oOdYptkEeguApbA3UXKlrMI9EEELIH7YKfYJlkEuouAJXB3kbLlLAJ9EAFL4D7YKbZJFoHuImAJ3F2kbDmLQB9EwBK4D3aKbZJFoLsIdEFgm02yu+DZchaB1Y2A1cCruwfs8y0CPwEBS+CfAJ691SKwuhGwBF7dPWCfbxH4CQhYAv8E8OytFoHVjcBaSGDrpFvdQmefv/IQWAsJvPLAszWt6Qj0/cHeEnhNl0H7fms0ApbAa3T32pdb0xGwBF7Te9i+Xx9EYOWZ5pbAfbB7bZMsAt1FwBK4u0jZchaBPoiAJXAf7BTbJItAdxGwBO4uUracRaAPImAJ3Ac7xTbJItBdBCyBu4uULWcR6IMI/ACBV56ruw++9ypokkZrBfgdz1JKMIXg/2v4lXx3pUJr+Iuu3tezGjhN+GutDVEVMcBNslaBCj7v3SUDwo/fLaVWNFD80HdL2tS95/zQOyjPQTsejhBYpZ7au7e2d60YAUvgdEmH1vjKJz73RELt36EIG2WstWjk3gq0A1olKRwQWSXrSg0XqdcJKChlNB2aXzsdd5jvlP8DLXHQUsTR0uhuoWTeSspLvQlNe9Y2ZA+/EmUJ3C38elPIErg3qHXzHl8nSEzaHCcxCSfho8SsFGHuihBdqcZlPtPm3k70NyxdQtXO5JVSQtKAO4EtkHps8FlSy66wLfK9PM9ffrzpPLsy3Jb3Cp7jy69yi+MSzd2GzDFvdAwy3YTNFusBApbAPQCrx0V1gviULXFbpuAX7Y07YJ/AnO4g1hIup5SU0XpdKmiN9hOBhjPE0mKNLzGpDbdFH6e0ZUB2qUyL9jdEjAuzOlnhMj8NyNf5keY2HTPltLRXyU8H5YNBJHlDZ/4bBe9E8RteRNW/TDx/M7LWebPHsK19N/Te32QJnEZp0b4mNm17wu1TYdB5OKVnGAIHQt9TMzpQvUu0pxDUQycdY4FmNjo3SWohuANOArSDRsi6RJsGT5fBpIt2GMs7ML+NyW+eYdjZBVrJAUOepXy08mDhLTD/r0Rz1iV73ffSiLCt2hI4jTIgBI5P255Q+xR01TmostMgvhDlLVzKOx00YYnuXGLgpsghzA2hwlXglhuNKET243NxVFGSaOIsCy7tt6DcInSiFuXmg44nSS0EFNJGUCoHQsVdqHshrXAxhu8tQMVr0SSC+5ODxXIuLu2iCKFDRZBRia75O6rmKqK565G97rtpRNhWbQmcRhnwtSYxRQj8LVSdhSo9Ab/1TVTLRJROLKP7hMApszdlGicdXtrFd/PQBbvgZG+BUuFgvrnoflTBdiivDR2bGxjPThi/+ROc/B3w6v8LBVsSiixCI+ZzDsodgI59j8oZi5O/N5i6ksQ3/qoEtH4V1JHhQXQ+SkdTJZJDzTK+cC1e9jA6bzN0wa6w6BbU/OuI5owle8w7aUTYVp0GAvfenl/TumMJgSejKv+ILv8dOjoFFZuPaOfAaxuYsGKqBr6l1ORSnE5JLI1XKAOdvT5OeHTgFFI+fvVlUHYojrcI3f49WjkolUmi/gXckgOIV/8NXTGBjNZJ4MZRKh9EM7d/bQhO0RHJwSBA3tNRdNNb0Pga2iklVLA1miZ0oj0gbhfO6MBoVyh5j9AodPYo9KKbAgJnbxgQuKezhTVNENL4PmkgcBpb28+q7iBwZBKq/GwoOwHd/Bq0fYX2hbAa38lCqVhAYFHA8j9xNHnysnGj2Rz518lCD9gRlbcTEDJLQ3r+Zfilh+B6dRCZY0xdRSbx+hdxS3+DV30tquIYQm0TUa5o2hy0W4iKTkbnbgNFhyAbLYSEWnskIt+gau/Hyd0WlT2IxPw7cDOr8H3HtNXRplHLX8Jsx4WcjdEDdoPaO1E1VxPNsgROt8haAqcR4aUJfBa68kx8rwHHq1/iQXaySODi6lDghDJe48DL7KtWU841bHbRbhmEigLnVAeBD8b1mqB9DjgyD84kvvglQqW/wZ93LZQfjds+EeVkgcpCuwVJAm8HRRM6CIxuxV/wENprwS3YlOicuwiXHwR5G+F5jYSU6NmsLtCSNscD7U8RhAoDDVxzPdGspAltNXDapMwSOG3QwrIaWJcegrfwNnT9G/Jl4EF2ctDZ65E54gpQpcHksv0tYrOvIuHX4dNORiIDHR6AKjuScMmhZt5qyG40sBC4EdrndhA4tvglwp0I7LRPxDEEzuykgZcQWCDwo9PRC26GnO3QbR/hFG6Dyt2BxNQ/kkhMIZwAz+16Q4eZqTsh3KLxOBWnoGrvRc2/iki2JXAaxSs5rQkmWvZKAwLLamC/6vfiOjamqEY0lgJP4Tfeitc4l/DIK8GbSfu8awkVHUA4czd0KLkVE4WvslGOmNTJzRvzL11JBNb4bZOh6Rl09khYcA/O4CuJNz0H2sWt+D2OGTTEi91pnTmYvSeRkyFFTPgYev7f0QuuImoJnAapWrpKq4HTCPHyc+CjiNU/ht/ygdGg8hPKGINTfBR64XVQtDd+21fgDMDNH0+8+mI8V9aLfAgNwCn4FRniOZY1XVlzXYEGXmJCXwMVR+O0ffYjGlij2yfjN/8HlTkIFj+KrroU5v4Zd/g/0CoPTcTMzZfdMNb5b2WWtxR6/i3oBVdbAqdRtlJVWwKnEeQUgcPt4oWWOfAfzRwVE+CQwNMR/C83Jzz639D+MTpUjt8+FZ25IW70YxJNUwit8xBKNmOYHVTiiErupPpRAk/An3dFksBfoNwc4+Ba4RxYCNz4NGQOQ9U9hRp0AXru5agRf0PHFkDsK9BL5sCpTSMde7+EyeFBkDkWvehW64VOo1x1rtoSOI1AL7WMVHFWsBasMpNbHMXzGyfx5Wjckfei2iejw2X4bVMgeyN06zOEvBAMvd1wN1iLSS0xSRXechpYO/HAC734RdySg9Hzr0JXHovb9jnKkYEjCzq80Nsu8ULLLCqyLIH/hD/3rzjDbwW/BRIzgi2ZqSvYb5kcUJJmtFuCDg8BIXDNddaJlUbZshp4FYCbIrAbmYJTcQ5U/qHTuquPJob35To4I+6HyDdgNPC3kDUW1fICju/BsDuX3j6ZnHZqxIReeg4sBEbnEK9/nlDRBHxxSlUdjNv8rdnOLKawOM0cs4y0VXIdOFhGom0SfvMzkDEMtTipgav/ghp6KzoyBd36FYg5n4xwWnpxNxhcdMZwyPsZatHdqAXXWAKvAhmzGjiNIKcI7ESm4lSdC+VnGmfQEiUWwftiDM6ou0C2W4bKzVxUZY2FlpdwxVM97DZkbrnUZYIMuiCw7EMmm1jDs7heK7r5U9y8YXixKG4oDzIGowZsh2r9BAZsDkVHmQElRWCv+RlUJwIz9y8w/Ga0F8WP1XRsOklFNy2ljiW4wi1BZVSha29JamC7DpxG8TJVWwKnEeElBJ6CU3UelJ+BozK6IPA/oX0aOlT2Ewkse5az8Or+g5uzGWrA1qBDaL8d3foW/uJHcMtPMvuxyR2CU3iUWZLqTGDRwE5KA8/9K4y8kUTtc1D3Fl4o2BPd9V47jcrbjFDpEajF96NqrrUbOdIoW9aEXgXgrnoCiwbORNc9h8rIgsKdUL6xnfGztsZPzMat+T+z11kNuwwKfrlkI0fShNYdBL4Qf+6fUSOuR+tytG5NauCudmUEc2BHZ5o4YH/RjVYDrwL5SpMGtnuhU323qgmMMaEzTRCDyhyCKtoR5Sv04hdItE9DDT4XHV2EO+cvuMOvRBeOM2u7nefAQmDxQjuDLsCf8xec4X9Dt7yG3/iuIWcQX2xs+OWWlPzMjXAK98epuw8WXGHnwKuAxNaETiPIq4vAsbr/ECrYApW7HUSbUNlD8No/hIaPcKqOQ8+9FFUyAVWw/9IauOkZs4zE4idxBp8Pcy5Hj7gDPAeVmGvKLnelEnfIFxK66JajF0owwzVE1upghlWjyCyB1yACaxXMgU0wgxOFnM3NnNoNF0HhwSZLBpkD0c0vw4BxqOJDzRZIE8zQ/g265RlUaDi69lHU4AvR82/EGfQXdHh4kFfLpO9Z5jLRU6m4ZfkuGmzJlGAGuxMrjdIVVG0JnEaIV7UGNstI5BBveAlXsnBkb4ZbPB696Aac0FB0otkE+hObAnlbQtGhHV5oP/oNuvHfqIyx6NpHUAPPw2/7Ah2twy3dC6UGdCTHWzFkEu2Ui14o68DixLJ7odMoXpbA6QZ3dRE40fAyTiiEbvwYZ/Bl0PQOPm2E3EITD6yiU9CGwBJOGHih/ehs1KLb8HI2NuGOTuZIVOF44rWPEM4pRfk54KwgnDCVJzM0GJ21EdTKTiyJRrLLSL2Xse6Z4FYD9x7hH71zlRNYktaRSaLuVdzyA/Dm3YhbfBhEvkK5EkOc3WknlkQj/SY5r9X4Xgv+wnvxvHpChbsQX3A3GaF1UeUHoF0/cIaJE2u5K8idZRICqVxQBei6G2HeDZbAPyohP72AJfBPx3CFNXSLwF+OwRl5F8ps5KjAb58EWRvgtLwUZJ4cKhs5lnYeBQFkQTCDV3YwoYSEE85BK9ljnUWi7iWc0gl41TcQqjga2j/EcbKXbKWMTUKLg6vwNya6ydSlfXR0Fn7tbaicjSBrE1TLa3iR74J1X0lAIOl2lpsDy9w4iKzSeZugivZFyzrw/GuIWRM6jdJl58BpB/eHCSyGaxT/y/Vxh/8Lv/1rvIxyvLbv0NljcRtfIaQWoIY8ijJbGJdcAX89/JqLcconQLwZ2maaAAlfZeHXv4dTsjfxmr+RUXY4XuunQWZYiXIKFaMjEyFv12RAf7AzTHZ2eVJv25cw7yYTQKGGXoJWVR3hi8GkK9mO1DKScW7JWCNfuCYLpr9IktrZOXDaBcw6sdIL8Q8ROJV7uW3ynmRW/RH8GnRoGIn2GTiZg3Fa3yTSXkvW6DsJBdEMnSls0jzHa/9OeMAeJthAR+cFmTwcl3jzx4QLticqy0G5G4FXZ3ZjOU6hyVLpRycTHrAVbv6BJgneUjVL+i2/mUTt32mrf4qwSUifmo8lM4Es3RTzl6MUTuEeqIpTUXX/DObAa/UyUnplK1W7NaHTiPMPauBkNI9uXYCfXYxC0tKEUBL5ozJIOC4hk8g9D2e5fMyS5F3UnpjMIbO6EwTTC4Ul3DCCdsIovw3PyUB5qTmqxBGHUPK9JAdQGV0ce+KhfRkw4kEuab/eJIUPcnipJStJqWik5NKSJLVTKgscx6wDY5LaWS90GsUrMIi0zciRNox/bA4cPDhlggZrqQEZgyuVBdJkfUyZrh2/SDiiJG0PTnoIsuAF4X1KsliaHVZBUjxzmoMp5yWPOZE5r2PWgFeUMtIMEEgmSyF9qkVucheW1O+blEGiecV0VkkrQZLj6QXXouZfbVPqpE2yllRsCZxGkFdE4CDbc3A0ivbmQls1Ol6DIpEMFEiegZTcO2GOVArnQeZoVMaIjtSzfvtnqNCoQHt7Lck3cdGyayo8FCIz8DNKcYymDhLjiXbHa4BQGSpzeHBsirl8cWUZbasSC6BtCjqxEDKLILwOZI4I2iuONW82fmQqxBpwwwPReWPAKUuOR74lcBplatmqLYHTCHbXBA7jCUm0h6p/Ar/9XVR4AwgVBOcXBbo3WJYRshhqRdAxydSxHm7JUUFKHXE6zb8RVbofjteAjsxOatMwuuVtVMF4/IUPo0t2RrXOQ7nt4OSi3AKQ0xJlHbjgV0kvtDjUPHzt4ze9jtvyBio8Epx8tNOI3/QlTslhkLsRuvl1VOvb+FnrGq+2K/PlyCxU8UE4OZsF71BznUkru/Yktevemm06RM0SOB2opnRa8mSGJfHAZ+BIVguvHW+RRAV9ihJCZuShdEYw30TI7Zo0rUEaHQeVsw5e3VNoL4JbeboJETQ5OaovQ1UejoovhvZZJrez5KTyGl/FLTkQf/6NUH4EquUrHEkrSa7ZyEFkEuTJMtIRSwgspm/bx/gNz+BkbwIMRoUTqISP58+DyOc4WRuY41xU5sbgZqGMeR7Ca58Jsc9xys+A0GBYdH1gQttlpDRKV2qalbY58OobldKOWjcf0KGBo9/iVpyFrjgzOENowb/Q7RPRlWdA/TN47e/gFO1r9imHJIm6zFeVg040ouvuRlWcB21fo/0YquKU5HzWx59/EZQfg4rXQZusA8uc2CchBC4/DF19Har0KJzIxzhOJlqcTLIbKzoZZB24U2J3L9EEC28zCeRVaBCq5V1U4Ti8BbfhDDwJP1qLV3s3odLf4esW3Og0nJwdidX+i4xBF+LJtkvdiltyLH6tBDPYnVjdFJOfVMxq4J8E3w/fvMSEnoxbdRa67I9B6pya26HiDGh8gLa2OeQOvTHYpui3BbuZkuZzPJRLaNFtqOxN8VungUrgVJwaaGA5SWHe+ThVx+NEGyAiZyNFzYYMv/lNVOkh+HOvxyk7Eify0Y9kpfTNnFbXP0AiNAK37Q3c0pMga7Q5IM2fdT5+xQno+kdQOZvjNr5twg11eAxIYETtv9Blx6HrH8cddLH5l/nX2GWkNMpWqupuEthq0970xVIElrORKv6AXngvysmF/I3wJp2As8lrOG2fwrw/44VKSYTL8CINqNaXydrwa7zah3FyNoD2b3H8dkN8Rdi4nJj3J3SlELgeHRUCB2f60vgqqvhoPMlpVXX4j6SVFc+yWPXfQMtrOOFilG5F525ObNoJOOs+ifPdsVC4D7p9Gk5mObjZEBpC2+zryN3ocdSMM6DiWGh6AV12MjS8APOuWXK4mT2ZoTfi0617ukngbtVlCy2DwLIE9ktPxJ99NW7+OFBy6l8MPWAf4rN+T7jyTHT2pkH6V91K8+w/kzfkEhJNzxEOVeLFF+GrdsJFvwadbQjszLsQqn5rgvRV+3x8Y0IraHwFVfQbvPlX4FQeh2qTnVjZKDJWcDKDJHb/Aq/1DZxwGY7XhMrdmujMk1GjHsT9/lR04Z54rd8Qyqw0bSRrFPH5N5E5+jGYeQK65Hh066uoit8GCQXmX0vMBjOknROWwGmEeAmBv8WtPAtKj8CfdSEU74+KTIPifSD6Pd7ihwkNugEdnQkSkGDmwHI6ofijRUN6OCobX8jjlAVnA8sy1LxzofJ3EF8AkXnGrJZ7deuHEC5A1z6GHnIprsxn3UxzttGSw806H60SENhPEljF6lEDtiU+53STMVPNOAWvYE/81m9wM8tRTjZO7rok5v+d0IgH0DNOQpUfbzJ3yL+GwDWWwGkUrY6qLYHTiHLnZSS34hx02RH4c8+Hwl/hRKfiFB2AH50LTa+jSo40SziKaHDSX+cc0H4bKrYYL3dznMJ9cZWDL0Sdd1pwbGlsDiSq0dFmOeQIJ2d9Yw7rmtAeCngAACAASURBVH+TGHkD4aa3UCE5GqXz6YTLEvjLgIDhclSsDpUvBD7TEJSZJxEvGI9uEQ1cjgplobJHk5h/G+6Ie833qvw4036n4iS8BquB0yhWS1XdCwLb+XB3O2dFBFaFv0LFpqCKDkBH5uA3vYmqOgcnIVrUbEYOfnyZ0kocrgu1TwTLRJWnmxjegMB/xK04Hh2pRrd8iJe7NUpOV8gYhBsqw6+5gcSgK8hoeRfHlaWnHyPwq6hwpRksAgKfQWjEQzDzxB8ncNlx+M2WwN2VjZVVrhcEXlmPXvPrWTGBf5kk8H7G+UTTW+iS01Dtn6BUa1L7xtCxemiaiBp0GjS+i9ZRVMVpwVGj8rP4Whwhed4exBbcSqjiCHPqoYp/ifLDMP8WvIF/wW0TAkvQQvYPmtCBBu4FgWecBOXHopvfsBp4FYu1JXAaAf9hAk9GFe0feI+b3kaXnYPjL07uY5adUa34lKAkRWvhXtA0FZQQ+NTgOBMhcGIa+ttDUes/TazpbbzFT5OZMxZX4nlDWSRmXYQacgFO83uWwGns59VZtSXwCtH/6VOF7hKYpjdQA/YySeS0rjemMq01uJt8jK67B5W5IcjZSRKMIOF6qQB/rYkvuI5E09dkjroR3T4Vml42+6IdrVANTxMfdgMh0YxWA69OnqXt2ZbAaYN2yQHfTmQKnZ1YqvCXqPhknKL98CNzoeU9KL8A5bWarZPQhJ5+Gmqd+9D1d5sT/5ScmeTLHPgUc5qCCYcQN7WOomuvQ9c+D2UHmCNIZZtjnGzc6YeiSo9Et35hcmQFWykLIPptcidWp5Q6spOq35nQP32QTWP3r5KqLYHTCPMPauB40oSOzEQ1vwNVl6B1RhA877Wjpx2NWveuLgh8qonplcvXCZQfIuE0QetHeLVP4/r1KF/jOmF0w1vER99FuOEVE1KoJF9VKAcVEwJvn8zIEeyrNhko+x2B09h5/aTqNYjAfW80/jECm2igSA00/gcG/83E1EocrqYFPeUwnHXug/p70BkboCKBBqZSTGg32DIZ/R6i1WgVlZViYza7EpsryXVkHbn6WkKD/wANr6Dl8G3xaIfzUGYv9I5Q3N81cD9hWRqbuQYROI0o9bLqJceLfotTfja64hj8OZfiFOwJ3jx0xhAcZyTegitxBl8FGVXJ83bb0FMPRY++C6f+fpQcmi0mtATYl59hiO77Gq/lTXTzJ2DyQUt8sYOrQyYYMS6ZMbQiXHIA/vzLcfPHo2OzQPJDt7xgwg1V4YHJkw+tBu5lF6/223pI4L6n5VY7gj/QgBSBw+2TQQ74rjwFXw4Xy14XFS4zCdCdoX8n0fB04KQKjzWB+67fir/4GRh1D6ru7zi549CRr0xidqfi90EuZ63x2qfgiDnsJBPKdeTyCALvnVgEr+VtyBmFk70FfsubuPn7EK/7F6GSw3Bytg5CFvuFCW1lrytR6yGB+zJd+l7bliJw5dlBBFLLK8Sb3sApOxGn+gISudsTLj4Ar22ymc8qOaBMeSRULuGcDYh/uz/hde5Gt32AjrfjlB4bmNASgB+bgYrNNlsrTfzwkmQ8oOMoXzJ1OJBRRrzuCdyc9VAJBx2fBBWn44Yqk6lwutbAiTln4I54CD3jBBKFe3XsxHJCWdB5J1av14EtKX+q1FoC/1QEu6mBVaWY0KeD344371qUkwOlh5Kouw1i03GLJuCGhphgBJ2IAg1Eq28ho2IC/oCf4y68CV12KE7G1kgCOSGo780JYoHNiQlZS1oizun4AqNc/ZYaom2PEco/ANcdCfWPo4p+iSqQkwnDyfQ8yxA4vji5FzrYieXNOhF/wHi0CWYoxwlnmVDDjq2UvSZwGsFfS6pOM4HX7hE2pYFD7ZNxKiWg/w9BTqpINfG55+CFc8kadD3EvkFHZ4OuQxlvMfhuMbAO5IzBm3cVOBmEBp6fJJ2YyB5e28e4LV+ZDR7B3mlJnmUyFaJDgn0uhEvwM8egY4vwa27Fzd8dp/hgs9FDkgsEm0KSBG6VcMJKiNfDgK3xZp2BO/JB/Jkn4efvhdf6NaHMMpPFw5F21dyBM+IemHEilB+X3Il1Il79czaYYRUNIGkm8Cp6iz76mCVe6Km4ledCxZlBPiuZv6o6/BlXoiIf4UpmjrxNUbKmK5kmRcE6Lk6ijcjsiwllbUho6CUo8oLvZJO0r/C9hSi9EPxULq0UELKXWp4TQrsOatGDxJo/wCk/AbfgVzgd6WSDAVbqi0cmoppfQoUH4SQaUDk7wMzjYPSz6GkTiJf+Blq+MXusVSgDlSsa+DLCI19Fzz0cVXQyuuk5846q/hX0wit/5HCztXtwX1kiawm8spDsop7O4YRO1XlQfiaOOKB8OUMhjis5mtvewW/5FL99ahCJFLDXpHL1w8WE8rZB5e8NpHI4B8d5CtH9lmfxFz4fmNRL8lkGM2ElJraLEy7AyfkZ5G8H4WFBNszlzvnV+LG5+NEvzekNeM0oWbqqewi//HC8mntQA36GH5+DGyrBkQEjczDxhv8QKv19cJTKgB2Mo00V7A71D9qUOmmUq85VWwKnEeillpEqz0nmxMoQ/WlSNYuzyoQcSbpXnUCL48lkrxASBylgfRXDQcxdmR7LApFcQmD5V5Kwyz1iN3vJz1I5nEVLy1EnYUNYJcnZjaMrlWN6SZoM0cCSGF7WluW5jhzRQgjHa8V383Fka6fyTGJaaaBr6pJmyPrzAEKypOWAa6wHB3/hDSapnU3snkbhSlZtCZxGjDvmwJHJKElqV3km+HHwG81BYYHe7CrfjETyDwA5xwg3mTz9xxuaTA0PfgTibRDSaJWf1NByAFlXpwumTHJJJBABL2pM/BVekkfazUZL8juTRH7Zc5tsYvcf76mVV8ISeOVhuVxNS2lgWQeWkLuGp/CbPgo0sCSnc2JJbRac8GfSxZozjnJxwqWo4kNQmesEeaKNh6qT5kyeUhjsn/bw4rNMZJMT+T5I9C4pdiRAP2MoTvG+oPKDIcPU0VkDa3R8Prr+36jWKclwRcfoZbPf2pSX++RHtLqcM5yNW7gHyHnAJjm8mP1STBK7X2dPZkijXFkTehWBu/RWyrPRpb/Bn3sphNfFyd0Y7dWhTNR+ygklGlOjnQFoJx83Mpt49AvcgvE4+b8wmtScfdRhRnvmRKSw34Lf9D+8+rdwckebExw0mWYnlqMSeC1v4WoXlb8nDNguMKk7DwSSJD4yGRY/AKHhOBnDzRlHRjenDjaTJPNmvVkbBxpt36D8WXiegzvkT6CKccyRLsoSeBXJl5nR2LOR0of28gQ+HH/uBajCX6ASLVD/T7QvzqkgvjeY/cZliwYqtAWU7IMOOSRqbiSj/ExU/i5JvRlEIslyka/j6PqH8ZrfwS05Ek+OTWl+Fy8+F9fNx80sQeXvBAkHr+l/kD+OUP7ehsBivgd62DdZKXXj86j88ajIHFTTf9GxpuAsJDPHDubc+BmQPRiKdgY5vaH5eWJNX5A55BKUrGPLvNxq4PQJ1TI1ryEE7ptLEssFM5T+Bj3vYiSlDgufRVXtg87cJtiB5YoH2qSqM1knVbSatu//QMaQy1FhH3/hXYSG/h8qNGDJmq/vm1DB+LzzCA+7Gq/hbRIN/8OtOhU3ZwtTX7z+cRK1z5JTOQHtDie2+N+4ZccRytsiuQ86ILDf9g3UP4tTsAfxxQ/jykaPnC2NsnWMhZA6LSIGLR8QX3gLoaxd8AedjKp5AD86m/CIy0E0vyWwJfAqQyCND1qWwIgJXX0Rqmgf/LrHUYMuw2n9BuZdgi9uXFm+dRW6aE9U2Qk48VYSs47HGf0IqvF+yN8HMoV4QaCCHBPaNnknsgdfQcxbQKLxXXIqzkC3fQF6Fr4qwskbCX4V8dprcPP3xmv5DjecZUgsZx+lNHCKwKpgNxK1D6AqjsMJlUDj/fgxHTjK3TAO5TgSiphRRXza/oRKxqPzD0YvuB7ytsYpOhA6CLwh2WPeWdEBiGlEfu2peg3RwH2zw1ZEYKdwP9TiR9GDL8Rb9ChO4c+CkEFJD+tmoMWRVPcEasR96Jln4Q7+A35sSrBkVCARRKI0FbQ8jVd9B2rE30gsvo1w/kH4rS/hRGuh9ABItNK68AZyKk4CyZHV/CFO0cF4df/GKz+KjMwNknPhJRpY1nH9+odwSo+G9mlEZ55PeL2ncSTiSUeIN7yE0zoNVXUWTvZo2ibtRs6oR/Bjn+O3vIqqvABn0R1QcwPRrI0sgdMsmpbAaQS4KwLr6ougaF9U7aMw+EJY/AS6YEeIJdCL78XPGoUqPRx/znm4I+5ELboXZcIPp5vDzSg4OPBI+5pE3VWEMzfFkwPBax8hXPxraH8Hig7FdwaZ7ZJOfD7xWeeQMeQv6Ja3zLGjidpHUWX7msgksx+6kwmtCnfHrxMCH2tOMfTmXkJow4lm66ZsHlFOBl7dI3iRSYSqLjBHqDgFm+N5rvk8NPBCVMMTyQO+rQZOo3gFPhPrxEofxN0hsKp7Cl+O5YxU40dmkRDnVNE+qIW34Y68BRbfgzNgN0jMQCciUHhQ0HG+R3z+yYQrLoLoHHTLm/gqBzdeA1Wn49e+girZ3SwdyYHbMrfVTa+i5PTAtvdgwC6oognJ7B6dNLAQuP5hnOKjUZEZ6PnnwQZf4Ev62/avCcmOLjKJzToVd+j1uA1PQmY+PpJI/nHcgafhN7xg9kJH7emE6ROuZM2WwGmEuNsEzt3cHCLmtX4WeJcLD0Qv+gfO8JtxFt+Dm78LOj4XnWiHwoOTO7ViMOc41MBrUdHvg3BD0czxRajyU/HnXowz8E/gDsRfeJ2Zt+rWt8yh3qp1IjpvWyhKZeToisBHoaIz0dXnocZ+jt/8kTnpwak6BTIGomccD0NuRjU9CRlF+KrARDo5lafbYIY0ytSyVVsCpxHs7hN4S3S8Dl8Ilr8zKnsb/Bmnw+j7UIvuxC0aB/GF+Ik2KDww2A6plxBYjmeh9V0TAKHiC1Flp+JVX4Qz8FyUMxR/4bWo3B3RrW8mCfxpksATkvuiuyLwkajorCSBv8Brfh9/0UO4VWegMgejvz8BhloCp1F8ulW1JXC3YOpdoe4TeHN0fDE6vsh4cc1urZY3YPj96OoLCFWcAKINJU5YzhGWvFc63qGBDYFb3kY7mcYRFmjgS1CDzgJnGHrhNTi5O+L3hMBFR6JiSwicaH4Pb/FDhCrPRGUEBFaWwL0TjJV4lyXwSgRz2aq6T+Ct0JGFeLX34uRuhBMaiir9NdqvI/7dMWSu9zy68R2TWUMP2CVpQkc7EXg6qvUdfJWFkjlw+cn4cy/DHXQWWg1HL7q6RwSWjSEUHoETn91hQiea3zdHnQqBnczB+N8fbwmcRtnpbtWWwN1Fqhfluk9g0cAN+F6LycxhIova3sL7/nrCoy7Edwrx592IM+wm3IwqE2sgx6yk5sCigVXr2ysksL/oatweaGBd9zAULU1gvykwodXAM1GZQ9CWwL2QiJV/Sx8lcN/cWdVT+LtP4K3w22vwam/DzxyIVj6+LiOnSpaDqqDxH6jwZjjFRwQZKc3+5Bh65nE4g69FxWagZQ5MKFhLLj/ZLP+4A881JrS/6Cqc3J2ME4vMYajWTyFPTidcgROr7mGUmNASHFF9Po5xYr0XELhKCCwm9Ik4Q2+EpqdM1g/Zu63rH7NOrJ4KyU8s30cJ/BPfqo/c3n0CyzpqPV7bVJwBO0qGZ3zZuhirJtzwFn7+WJyS3+I42SbqR7zNsqnDn3Mq7uBzQZZ4WsUL7eBIOhw54rP6QkJVF6Pdgejav0LeOGh6x2hPOfCbnO2geAVOLCFw8ZE4xol1Pmz4OYnmD0kseoSsqlMhaxDe9yfiDrkeWp8BpwJf2lb/GKryDHybUmeVSeBqIPCaoV2700PdJ7Bo4EVm/VVlrZdMb+WScPPIyt0OL39bHJUr0bdBYIHkvNI+XvWVOEUbQCIbv+F5VN4GZjnKLT0Or+4lnOLdUGSSqL4It/w4aHoRwoPNjiyVt32nxO5Le6HFhJYjWVT7TJh7PnrjL0hEZhFv/ZqsATuDrsWruZJQ1fXQ9ICpU+bfuv5R3Ko/4NVJTqxriGXZjRzdkZOfUmY1ELhzc9dsMnefwFug/SZ0rBa38IAgS5WE/LllhrASwidaObiScbwyD258hVjtLbgVl+Et+gcZZb8i3voxTmgUTv6uxswWYuvYF4SKT0U3/ReVty16/r+gdL8gKsrE8i6zjFSX3MgRnUJi9gW4G0niPMn+EYFYNfFFDxHKHYkWM3vmoTgVJ5BIxPEbniQ86CL8xY+jaq4kZjdy/BRuduve1UzgbrWx3xbqNoHzfobWzfgJn5AE8K8gc8ZyXu5EM7GpB+JWnoCTWIzy6vFztsKrewrlRdGhNkIZQ6DgAFR0ojlITQYIFj+ILj4WlTsmGV+89F7oxOIHcEuOw4kvJjHrJLyCX4Ck9tE+Srejc7fCLfwVibbXYcE9uCPkDKeX8L1GwpW/w1t0qyXwSpPaH1ZylsArDejlK1qewAejqy9eai+02UqZuznoJnwvgVt0eDI++McbJru2/Oa3ic+/BXfYOai6/+LIwWiFu+KFBqMkoN9phfrn8Vtn4VQdi2r4KDiMQfY6hwuXikbSDc/g5O+Jt+h+nPLDIWM9/PjcYO+13CSmu0pmDml9BW/RC6jBl4MTRdfcQqjyPFT2aPyFN9qcWD/efSulhCXwSoGx60q6rYFlKyWigWOExCxdJs/UipoYJKGL4TXeS6L+AzIH/dHsc44v+DfoEhw3RDT+Fdml46HkJLSQt/ktVOnJqNwNk0eySO2BBtYNT6MKfk5k8XNktLyPn5kHuhStYh0pdXQihhv5Grdqfyj4HTEVRc86g3Dp79AFe4nrDV1zParmaiLZY200Uhrly0yobDBD+hBeNiMHZROCeOCCX6JknjjoAvTiJ/EHbAG6Fe3HcAtlqairRHdda3iTucpvJ1F/D17D+2SUH4bKXh/cAaDDJtpIe/XQ+LhJuaMG/RGVsxVK+clIJBObGBC4MQjoJ2PdIDm8JBkwi87BEaQmhFGWqhwX36tGRT4kNvsOwgPPwS/5Ja7cIzp9wbU2J1b6xGqpmi2B0wj0krORJqErzkaXHIxXfS2qeDxO7VM4g86DRfeii3bA8+I4OoYja7MdDqvuNC6YI/lexGTn0IvvCuarkkbHzQU5KG3Ra6jsgVB6DE7W6GCObezo4BLaee3fwcL/wwlnQt5QlF8YpLbtSH4XRfvNQfSSV4dufB+VsS6UHA45Gyc95BLl6FkCd6fbVlIZS+CVBGRX1Sx9OuEfofx36NbpqIyB+IkZqNwNUO01+Bn5wcHe4iTKHNpDAicpKPG6QjavCSV5sbwF4MdAZUF4OIQlI2U4yG1pzgrudMmHMneOfw/efHOMqaTKlDn00pdvvONItkxnEDpDTOws46F2TFxxcOj4Uhk51ns7jQjbqi2B0ygDHXmh26agqs5HV54amKBCDFmWkUTtJiVs5zzMqcTrZobTKYn7UhllA82ZzDdn7jYDQPJlJHNkR5LaZOL4pK5NMriTmZ5MEi+3m9x1qUo61WfuDVLRmqyUHcnwgpzSsjvMtFQOZpOkdgtvxpl/BRHJyLHeG0ulsE0j3Gtl1ZbAaez2Dg3cNhldegSq9FBwuk6unsZmrLqqzQYTjZacWnX3EMvegqwxr6+656+FT7IETlOnmyUe0UffbEs4NhFkU0ZGVTJp+kp8qFHDKQ3Zk3o71HVPblpxWZM3Onk2RGweKlZPe/7GZK/7QbedciunIWtXLZbAaepvE3AgCTKmbEo4Oj04MrTjKJXOc8tlF+p7SKwuCfxDdazo2JQVeb672T4tu8XMmWzJkyZi+FnbElpfNHD3vOpp6oo1ulpL4DR1r9G/ohy9maCykxNWM1nt+jSkJBFTqdaDaW1Atq6WlZb9LjgCpfPsdMmLdfXdD9XdFSQd8+zkM1Z4f8fUORHM992By0/e04T52lhtPyBw/90vbfJbGbMyWLLpv2/SO2oE798b8753z1sb7+oHBF6RPrBm2doosPadl0agnxLYdqNFwCJgbBu7ldIKgkWg/yJgCdx/+8623CJgNbCVAYtAf0bAauD+3Hu27Ws9ApbAa70IWAD6MwJ9nMBr28ppfxYl2/bVgUAfJ/DqgMQ+0yLQfxCwBO4/fWVbahFYDgFLYCsUFoF+jIAl8CrrPDufX2VQr0UPsgReizrbvuqah4Al8JrXp/aN1iIELIHXos62r7rmIWAJvNL71M51VzqktsIVImAJbIXDItCPEbAE7sedZ5tuEbAEtjJgEejHCFgC9+POs023CFgCWxmwCPRjBCyB+3Hn2aanA4H+tYpgCZwOGbB1WgRWEQL9hMD9a1RcRX1nH2MRsDmxfroM2MHlp2Noa+gtAv1EA/f29ex9FoE1GwFL4DW7f7v5dtaK+GGg+i4+lsDdFHFbzCLQFxGwBO6LvbLWtKnvarb+0gWWwP2lp2w7LQJdIGAJbMXCItCPEbAE7sedZ5tuEbAEtjJgEejHCFgC9+POs023CFgCWxmwCPRjBCyB+3Hn2aZbBCyBV5oM2DXNlQalrajbCFgCdxsqW9Ai0PcQsATue31iW2QR6DYClsDdhsoWtAj0PQR+EoG1lnmfvSwCFoGfgoBSqte395rAiYSH/IAlca/RtzdaBFA4joPrBv/2lMy9InAikSASjWM1sJU/i8DKQSAccsnMzFg1BG6PRJPad+U03tayNiBgl9l+qJdDIZfsrMweC0KvNHB7JEIi4ff4YfYGi4BFoGsELIGtZFgE+jECq5/AWoFaxqElXmqlgrmyclDW4dWPRcw2PZ0IrHYCB9TVKAKXuB+NkBGNoBbWIB95JeV4ObmocIYhtb0sAhaBJQisdgKnmiLaVs2vZuHtN5P35USUnzCETbgu7Lw7+UedgC4stn1nEbAIdEKgzxDYmzmdyP9dhzPlWzLWGUOipBStFU5THbH8IjInHEV45DprdOc1N7fw+eef09behuO6bDR2LJWVlV2+84IFC/lm0mSGDR1KaWmxGewK8vN7jE99QwO1tYsZOmQwmZk992b2+IFiZWnN66+/gSwrhkIhRo0cyfDhw3pTFQsXLqSurp4x641J2nC9qqbf3tQnCKx0hPjLNxF7+FnCo3Yk+/Df4g0bHcyBa+YSa4+QMWrdfgtydxs+efIULrz4EtZbb13ckEvIDXHaqadSWJDPokW1NDc3M3iwEC2D6264iVdff439fvkrBgzIQ6PZZ++9yR+Qz/Tp08nMyjKkbGhsRAaGkOuQm5tLfpLknucxe24106ZO5cuvvuaIww+lvLycGTNmkpuTQ0VFOW1t7cybV80AuUdrysrKcJRDXV0dM2fNMoNGcVERVVWVzJs339RfUlpiysyYOdMMKC2trQwbOmQpCO6+734mT/qWnJwsM2jsvOOObLvttjQ1NVFTU8PIUSMJieWFMp8JQSsqy8nOyjL1TJk6jba2NrKzs5k1exbvf/Ahl118EYl4ghkzZzBw4CBycrJ7vDba3X7qS+X6BIGd9kmEvr+I+MQvUDs/jD9kC+IevPB5M1o7HTPk8gKHTYZnkZ2xZs6FJ0/+ln/88y7+evllZnfNFVdfyzqjR7HbuHGGMHPmzqW+vo6jjjiCP5x1NmPGrMeWW2zBK6++SklJMYf85jd8N306nucz8bOJRrMVFhbwz3/dzcYbbcS+v/wFw4YFmu72O/5BLJ4wpJg+43vOPP10Xn/jDYqLiplfU8PggVWMHDWK62+6iT13243Zc+YybpedTbveeuddxo7dgHvvu48/nXsuvvaZMWMWX3z5JQcdeIAZZH57/IkcMmGCIfLgwYPYa889zHMbm5rYfqedefv11ygqKpJxwfg6Jk78jI8/+YRBAwcx8YvPuOj886lZsIDHHn/CWCGtbW3ssdvP+c9/n2ObrbfmlVdfo7y8zAw0QuDzzjmbJ598ivKKCj799FNOPukk8vMH9CWupaUtfYLAqv5lQrPOw4s04G/8HOSsR1tUc9LdrXhkBLsuFYwu8zl19wzK8p20gLG6K+1M4MzMLF58+WWef/55Lr/sUiZN/pavvv6G+x98gP89+zTXXHcDW221FVttsQVPPf0Mo0eNYrfdxjH9+xlMnTaNDz78kPnV8zjwwAN46JFHOfP00xiz7jrk5OSY19xi6+245193Mr9mAe9/8AG/3v8Abrr5ZsaOHUukPcLrb77ODdddx6WXX851V19lCL/LTjszt3ouynX59f77cdCEQ3jpf88xa/YcQ94HHniQ0049he22244NN9qEV156gbffeYdvp0zh0osvMs+dOu07fnfyKbzw/HM8/sSTvPrqq/z85+OonjuPouJifrnP3lx+xV/ZecedjPYWbX/grw/glv+7jb3G78mVV13DY488zCcTJ/L+e++zxRab8/6HH7Lj9tub+jbffHPeevstxu2yK8ccfeTq7tK0P3+1E1i46TS/T2jmedTGqslZ/z+Ec9YnGtfc8lI7vgoxv1ExY1GIsQMTnLFHiLL8NVUDT+Ef/7yTv17+Z1zX4aprr6estISKikpjzo7fc3cmHHIYTz3xONfdcANbb701W2+5BU8+JQQeyQ477MApp5/BRRdeYMzOq668kmOOOZr3PvjAEKgzahtstAmTvvqCiZ9/zltvv8v2223L4489wcEHH8jgwUOMphcz+4abbuKuf9zBpX++nG222YafbbYphxx+FBkhl+23347999uPZ579D7vsvBP//d/z7L7bbuy04w5stOmmTPryC1586WWjIS+9+EIjzK2tbWy/88589vFHyDxeNGp19Vxjjm+7zTbsucfuXHfDjcTjCYPB0CFDmfCbg7jkz5eb76dMmcJLL74MruL2W25h0uRJvPfBh4weORLZ6bfH7rsH0w/HMab9mn6tdgILwK5uZtr3NSIk9gAAIABJREFU1/C37yeywbDDOWb0QYSdELG4TwKHZ7+Eh9/VHL6Dyy831mSF1sxACNHAN958M0cecQT/fvQxpk//nqeeeIx777/fEFh2st1773189P7bZg4sBBay3PnPu4yJctihh3DYkUfxj9tv45RTTjVz0GOOOcoI+KUXX7zUevru4/di3K7jKCsr5bPPv+DCP53PRZdcwrhxu7H5Zpvw1Zdfsv4GG3DDTTdz1z9u7yDwRhttyIUXXcxvjz2WgYMHsaBmPnffcx/7/upXPPjQwxxx+GGGxCkCv/DSy3yQHECkr8Wvscde+xAOhzj7rLN59bXXDNnW32B9XnvtdWN2n37G6bz37ttM+2461157Pb/4xT5mmnDySSdy6eV/4eSTfkdxcZGxPl5+5RUzQJ1+6imcfc55HDLhEIqKChgyeLAxr9f0q08QWEB+9rtXufe7p6hLNLF1wQacvOOxxOIxnp30Na9/XEVufDRn753J5sNCa2yfLF68mP+98CKxaIyddt6JdUaNNO9aX9/AxM8/Y9111+W9995n31/9go8/+oSBgwaaee7c6mq++WYym2y8EY3NTXz99SR+uc8+PP/C8wjhqufNNyZmx1wEn3jc47XX3zDzyOLiYkpLio0T6o033zJe6f3335f6ujozL91r/HjeeeddBg0cyPMvvmicXwMrK/jk04lst+027LrLrsydN4/hw4aaObc4tu66+25D8u9nzKB63rzk84OuExLPnDXb1Ln++mPYdNNNjdNq9ty5fPzRx+y113hysrNNOZl7T548mS222IKCggIOnvAbdtx+B+LxOK+8/gZ33Hor1fPndnz2/IsvkZOVzW4/H5fcILRmWmspEvQZAvtoHvzmaV5c8C4L2hYRdxIo7RDGpUStxzHrH8LPR4zAZXXspV5FG+qXeYwso6mldqmJMEoh8Tlr0OIL0F14W2UXm78CL+ySh6TsGPOITnJu1uSNvl6+7t+eeBKnn3wK4Yww06ZPJx6NccCv919uCcfU0dXGm0677OT7FZZbapgOGjhp0re89fbbbLfdNmaZ7W9/u4V/3Hbrcht8ltS5ivptNaqUPkPg5NjMlw1T+d/U12lx2433OV/lsHPV1mw1cGMc2XZpr9WKwKLaWm699TZaW1sZP35Pxo3bddWtv2p48qmnzfLZyJEjOPH4E8jLy12teKzuh/cxAhsDy/znu0bH4PqOWWqwuyhXt6h0/fzuadCV1/ZULHlPA9hXXgv6Vk19kMBLA7TmG0F9SyBsa/oXAn2ewP0LTttai8CqRcASeNXi3ceeZu2bPtYhPW7OKiOwzF1k83o0lrA5sXrcTfYGi0DXCMhmF0mp01OfQI9T6qScD5LUTojc0wfaDrQIWASWRsB1VEdCu57yqccEtuBbBCwCfQcBS+C+0xe2JRaBHiNgCdxjyOwNFoG+g4AlcN/pC9sSi0CPEbAE7hFkdrmmR3DZwmlHwBI47RDbB6xdCKzaQd4SeO2SLvu2axgClsBrWIfa11m7ELAEXrv6277tGoaAJfAa1qH2ddYuBCyB14D+9n1JrZMw2/GisZjJqyxXdrbsrXWIRKJkZ2eZ9DVyhcNh2tsjZPVi7+0aANca9QqWwGtAdwppaxfXU1xUiKMUNQsWUpA/wCSKlxQ28l1JSSGNTc0m64aUmzFrDkMHD8Q1idft1V8RSBuBV3WGh/7aAT1pd1eYSs6sltY2WlvbTcaTyooyvvt+FoMGlpGdlcO8hYsYkJNNW3skSJmjFBVlJXzz7TTGjB5hjkSxV3oRSCcX0kZgiVQy2fqXujqvkXWkYkuW6Px3b7+Tqn7sGal8XL19xg/dl+bnK4XrOOZUhdSVSHhMnjod34eCgjyGDqpk+ow5DBxYTk5WFp999a3J/Szm8oBk3qny8lImTZ7GmHWWJrAImuSQ7rrfDPuT+KZ+T73vsn//EMb9GP9ev38wbUnHlTYCp6Oxts7lERDCzatZSFVlOY2NzTiOYnFdAwOrKtC+JhaPk5ebQyQaJRaL09TcSnNLK1WVZZQUFSw1GFh8+x8CaSTwqt2R0v+gXzktTplnnf/tXHMqvjQVx22+66RIexp/unJabWtZWQikkcArq4m2nrUTAasAutPvlsDdQcmWsQj0UQQsgXvdMVZD9Bo6e+NKQ8ASeKVBaSuyCKx6BCyBVz3m9okWgZWGQD8msDVhV5oU2Ir6LQL9mMD9FnPbcIvASkPAEnilQWkrsgisegQsgVc95vaJFoGVhkCvCWwOjV5pzbAVWQTWUgQ6XDm9Y1MvCaz56vkILQt9tNO7B6+l3WVf2yKwDAKa/FKHsXtloXqhEntMYIlU+fyZdl6+qZlmIXAQo9bRKCXneif/lN/l6vx36ndz1zJl0/Gdfb7Fv6/KX4o0BWWK3c/MY9N9s024Z0+uXhDY5+EzG5n8Sqwnz7FlLQIWgS4QSFnQG+yWwYSbCrt5WOCSJdReEFjz0OmNfPta1HaIRcAi8BMRSEWXrz8ug0P/1l0CL3lojwks8fIPnd7AZEvgn9h19naLwBIE1h+XaQjc02mwJfAaIEXp25PWOQPHGgBUH34FS+A+3DnLNm1lEm7ZBD99EYbU+/5QsqO+2O5V2SZL4FWJdh971socENLxal21r6+3OR04/FCdlsCrGvFOzwtl+5Su045OODTNy6C9wV06t16yrAjtwLGKQWPDTHkjHizDJSc9PVs8gNLhHiUjwkx53Te192VCpNpWsU6QjG9AeYj6uR51syXx4Y+9+dphxlsCr0YCFw+DXU6PM+ezZvJLipj2hsOcr318ya+ulFnvFu9EVr5ml5MzUY7DO/+MsNWEbF75e1tyAV8WxZes2QZ3BB+IjBsxT34vv2+8d4QN987nwVOXXs4zz0oWlsFBmfuXSw9q0JL6gzLJNFnLJJ0M8mg5KCXllhlqTFs0rlZ4qfZ1GqhS7ej85OGbBwW2PCiPb1+LM+mVqMmmaS+wBF6NUlC5Xog9zszh2csXM2STEOvtkssrf48yZDOfsbsNIN7u880rrThOmL3OzqNxgU9LrWbdHcN8/XKcF65pYvujsykZGmbh9HY+eTzKlgflMPWdOrY6qIxHz5OE7ArJwf6zA7JYZ8dM2huayS0N8fDpMTbdT7PeToXM/bqdiU9E2Gz/PHKKoxQNzCURgcfObWLwRi7bHpVt9gm4IYcXrmnl52fkkZENjdUeL17XwugdMtjklxko18H3fJ6+sJV4RMYNn8KBmi0PyqBsVC5fPNPIlLc0+/2lgHhrlJziTKJtwWkQGdkh3r6rjXlfJTjwmnwyshSL53q8eG0LG+4ZpFZdb9dMS+Bl5NUSeDURWDRM1Xohxp2cy8OnNeBmYBbkX/l7Ky2LEwwoCVM0VLHBbmHeuauVXU/OZdq7Po3zPQ6+upA7j1rM4pkeRVUuoWyHLSdk8u2rUXY6IZu2hiZe+7tLzTSjyk0dY3ZWTHrZY/ROiqJBLk+eFeWw2/J57q9trLtLmKaFPuvvmsX8b5qY8rbLhJtyeeaieirWDZFbEiac4xCPaN75Z5T8CpdQFmzy6wgz34eCsnzyKxVf/DfCQdcUcNchDbS1eGilzGAja5UfPRJh+2OzefOONk54sIR/n7mQ7MIstjkyk1dubmbzA/L45qUok1+LUbFOiJxc2P38XB77YxPr75ptemnQWMcS2BJ4NTF2mcd2JvCDpzeYvMyH3FzAa//XyrjTYMiGBbQ2tFM3M8z/rmpkl5Oy+PL5BHWz4KRHi7hqx4WUDnU55JYcnJAiM8fl2cva2eHoLN68vYVp7yaMGS4m7LaH5xDOgHfvibDuzgk2PSCLp8/3OO/dUmJtGjdD8/KNrYzcMswbd7RRPSnB8Q/m8M6dzWQOyGTQWDkrSTHr0xhT3oxz+n+LiUQiKMfno4facFWOGSjee6CNkx8v5O5jGmlvlqTkPpvun83e5+WTiGrC2YrbJ9Tx27uL+Mt2C6kak8G4k3N4+IxGxp+Tx4yP49TNaeTI2wfS1hTBDWXy6B8bGLl1fydw+ubjVgOvJj7LPHHg+mF2Oz2Xx85tZPtjwpSP1jx3hccpTxZz4+51lK0bYodjcnjh6kZ2PjGLL19IUDvN59Rnirlh9zoKhjjm/ifOa2L3M3OZ9k6UHY7K5uW/RZj56ZI57mb7ZjDsZ5r3H4iz4d6KgeuFeeKsOEfeVcA9v20wZnYiCgddl8/r/9dKzZQEx92fw1v/aMEJZbPtofD6La3Mnxpm6yPFCaZ49XqHPc53mDMxgUOume++d18bpzxRwl3H1BFpAcfXrLtrJqO3DfPa39uMwyzapjn/vTKu2HoRMoX4//bOAzzKKuvj//TeKyQhEFIgQKQjVUUURBEQ0F0brKzu6qqw6q6uq+uuW/x0q4q9r6ssKkUWRUBFIdSEhJYO6b33mUkmyfecM5kQEMgkmfLO5LzPE4mZ+9577u/c/63nnZdmFh+va8Dixz2Rn9SGK+92Q9LHLSg81Yk7X/HClicaMWq6K4/m4ePteYRO/7oNXR0WcpzCihUBW8gh1JiDIh2w6u8+vHdUmd+E71/XoPKMPe5+3ROeAU5QNbehPMMOB95rwtSVrsg5qEXxiQ789N9+oD2cbU83YtULXmhT69aRezdoMHGJM45s1KA0vb0nPtbBCbxWHrfQFVl76+Hi7YDdf9Viym1dmLLcnze5Et9rRfh4JyR9okJVvha3/NkVJ3eo4B3ijpl3uXOaivwmHHhLjZueCoC9A5C8uRoatQMc4Mrln/hCg9v+5oNtzzRB00IWdsEvvAuz73HGiAQvtKs7sfk3zVjxJ2+8vboWgZGOmHqbG3b+tRlz1rijJK0ddlBjwXpd/qnby3E20Q1h4104r+BoB+QebUfukXYwALlkE8tSbYA3fXtttfbsGPe8RUj34fmTLzsWkm53V/e7PhE/odXzfJfuAxq19Pef94RXVyfsYK+7vfsD3Qa0budad3UheLQjFvzSmdfg6LLH7DUe+PolNapyO2DX1aVL271Tfq4ytDut+0z/mBtZq98SP293m3exex1kUZV6wHTno69Bz9NrXbxD3t/QQUv52dTlyghsasKXyJ/OMUmIehWc1yapFbM+zz3p2TtyinZ37brszz1u2SO57kctu4V5TkC69n6uuO7zn25xnDtB0qlXL0x3fzsk3GgPdbMGTs720LY5IuPrTmiaL+gseoSvs5gFy53JD89qz/VZOoHqhN+rM+o5eCKR6lP3rr2ucxnIM7AWcrVJixUBmxSvlWeuH9V7jcr60e/iJ8RWXl8rNN/KBGy63Twr9J3ZTO4drSUeMBt2gwqyMgEbVCdJZEQCF05ejZi1ZGUEAmYTMK2LNj7UwM8DKzn+1ghMJQshYHIC+o517LX0PDCdZPQVG36+Sf1+HpjOPTc92oD0XRo+AehfcSbnIQUIAasjQOGt4653xq1/N8M3cpCAc5Oase+1NlTkqXHei6OtDp0YLAQsS4CezwqMcsPV9zsjarqn6Udg3vzvAtpU7cg4UAqttvskXrYzLdsSpHSrJODoZI8xs4fBxc1J9+RaP2vR7yl0P/OX5EJACJiQgAjYhHAla0sQGFpbqyJgS7QxKVMIGImACNhIICUbIWAJAiJgS1CXMoWAkQiIgI0EUrIRApYgIAK2BHUpUwgYiYAI2EggJRshYAkC/RTw0Nqit4RDpEwh0B8C/RRwf7KWtEJACJiagAh4kIR7x4LTNz5e6tKn06cx9L5Bmsex6r3tOmeHLiT2UjZzOqoPfzdOH5cdfbOG7q0LhlzdXydvSFJJ0yd6m38awbTT/lOn0rBt+w5MmzoZC69fcFFBkAWtLa38Fa4BAf7sEr2wtm7djmXLlhj4YmfD2jOVl5aWjjFxMXB01H2Zur7M777bj6DAAISEhrAt9vY/FJ7etg8+/BglpWV48P774O3lxV+Sc+D9VgyPd0TUDGeuwzur67D2gwCDXyxPeezd0IyJS93hH+FgWIUk1SUJyAg8iMZBg9OGV17HPffcDSdHR5RXVPD3PEWER+Dw4cOYNm0atNoOpKSkYNy4cVCrVXBwcEB2Tg4mjB8PT09PvPHmu5g2ZSJCQkMRHh7G1pDQSXiJiYmYNXsmCvOL0NHZgdi4GGjUGqSlpSEmJhZeXp5ISk6Bu5sr3FxdMHr0aDS3tiIzOxtNDY2YM3sWCys19ST8/X3hH+CPnTv3wNfXB8nJKYgfNxYrli9FaVkZSkvLMHFiArKzc+Do4IiOjg5ERo6AWq3Bixtew7PP/JZty9rbAN9wZwRHu0HTosH+9yqw4MEI1Fe14mxSJcLifBE62heZB0rQUKXG1BtHIetwGeLnhqEwrYbzSNnohFlr3FFZUo5xV4fzd2rZ2Rk+gg/CZTZ36xAW8OBHZhqBfv+n57DmrtsxfNgwHDmazA1k3tzZ+MtzL2D9ugfx/F//gV89uh7pGZkYERHBo55W2473P/gIa1bfgUd+9SRe+ucLqK2th4eHBzw9PVBX14CTp05h1swZ+Nn9D+PtN19FdU01mpuboVapWfivvv4Wnn7ycTy0/jG8/eYrqKquRH19I3cgAf4B+M/GTbjvp2vh4uwIjUaDxib6BrtOlJSWIzg4GNs/38Edj4uLM1pVaqSlZSAvLx8qjRqx0dGYeeU0FlVmZja8PDwQFhHGs4TGGjWSPqvAlCXB2PZ0NaLmqzD39hh0ajv5jQ8Fp+pRU9yKsXOD4eHniK4OO3z1XCVu/mMoDv1HxVPyiqx2hMS1IXKyPcLGB5BZsLPv73M4NqfFAVVoCAt4QLzOu0m/+igrr0Bi4kGEhgTzy8Dmzp2Jvzz3N/xy/YNISkrC3Llz0NTUyMI8m5uLjIwsHvGe+u0T+OijTbj33jVoaWmBSqVCYGAgp3NxdoKbuxseeOgRvLbhnygrL0dWZjZyzuYiOyuH3wDxzDNP4ZlnnsULz/+Z80tPz0RCwngEBQXiwIFDmDFjOo6fPImDB4/A388XV82bg5qaWgQHB+Hz7Tuw9p7VLJ7NW7Yir6AQUVGj0N7ejnHxYzBt6hQWfHFpKcLDwnvq3VzTjsR36zF+kQfyj1eh064TM5aPwIkvm5GzTwuPwFbMvNMXx7dp4BHQjITFYdi7oRo3/yEEhz9U8be4lGe2oTpfhVV/94PfMN3bGuQaGAER8MC49XyRAY2sNML5+viiqbkJFRWVGBkZgY8+/hSP//qX2PHFVzz1pVGsqrqap9TBIcHYsnkbHn7oAWzc+AnWrl2NluYWqNS9BOziBDc3N/zioUfwareAy8rKERgQwCL08PTA6KhR+M2Tv8Pz//cnFnBxcQnnXV/fgIKCQiy+4Xr83wv/wLKlN8HH25tH55qaOhZwSupxhIaGIjYmBjk52fx3TVsb6uvrEd8tYBrt27Vanqp3r6LRVKNFp7YDSRubMO9nATi8uQDj5oZj39tNmLLcDTVlNQiIcEN7K32JfBfo1atFx1QIHeOJ7H1q+IU5ozyrA5NucUBReiNm3xHCnZF8t8vAGqKCBTz4Ke7AkBh2l36jhwSq0agxedIkjBgRjpTUEywCEuTixQtRUlKK46dOYfLESfD19sKZs7mob2yAWqXCdQuuRUpKKo+UbW1t0LZrWZitrSo4OjrA2dkZn322BStWLEdTUxNaWlrZuORjqXBzc+URdefO3ViyZDEaGht5ik15nDx1GrGxMYiJjkZJSQlSj5/AlMmT4O7uxnmQIJ2cnfHFjq+wfPkS7Nq1By4uLoiJiUFlZSVCh4XwdL+xoREqtRohPLMASjPakfW9Cg5O9ji6UYXpt7mh8HQ9IhN8UJCi0r2kLVINDz9nnDngCHu7Tsz6iQ8aK9pxfGsr7B06ETHJHU2VXRg13QkFJ5pw3aNuiJzQ/6+SMcxL1pJq4G1dwQK2FvgG2nne10L25zsiDXWuoen6svfS+ZCAC5LbOYNeL17QvbdYn233yxZ6atjzzuPex1Hd70y2A8KntiN8rO61NHL1n4AIuP/Mhuwd50vbgPNhg0jpT4VFwgbhuiCRCHgg1OQeIaAQAiLg8xxhrGmoQrwrZtg8ARGwzbtYKmjLBETAtuxdqZvNExAB27yLpYKWJWDaZZkI2LLeldKFwKAIiIAHhU+pN5u211dqrYeiXUNUwNLAh2Jjt8U6D1EB26IrLV0n6RQt4QERsCWoS5lCwEgERMBGAinZCAFLEBABW4K6lCkEjERABGwkkJKNELAEARGwJahLmULASAREwEYCKdkIAUsQEAFbgrqUKQSMREAEbCSQko0QsAQBEbAlqEuZQsBIBETARgIp2QgBSxAQAVuCupQpBIxEQARsJJB9ZyOxwn0zkhT9JSAC7i8xSS8EFERABKwgZ4gpQqC/BETA/SUm6YWAggiIgBXkDDFFCPSXgAi4v8QkvRBQEAERsIKcIaYIgf4SEAH3l5ik74OAHJeZs4mIgM1JW8oSAkYmYCYBS69sZL9JdkKACZhJwEOVtnRcQ9Xz5qq3CNhcpKUcIWACAiJgE0CVLIWAuQiIgM1FWsoRAiYgIAI2AVTJUgiYi4AI2FykpRwhYAICImATQJUshYC5CIiAzUXa7OXIEZbZkVugQBGwBaBLkULAWAREwMYiKfkIAQsQEAFbALoUKQSMRUAEbCySko8QsAABEbAFoEuRQsBYBETAxiIp+QgBCxAQAVsAunUWKcdSSvSbCFiJXhGbhICBBETABoKSZEJAiQREwEr0ithkYgK2sxwQAZu4qUj2QsCUBETApqQreQsBExMQAZsYsGRvDAK2M+U1Bo3eeYiAjU1U8hMCJiFw8U5MBGwS2JKpEDAPARGweThLKULAJASMLGBZq5jES5KpELgEASMLWDgLASFgTgIiYHPSlrKEgJEJiICNDFSyEwLmJCACNidtKUsIGJmACNjIQCU7IWBOAiJgc9KWsoSAkQmIgI0MVLITAuYkIAI2J20pSwgYmYAI2MhAJTulEbDt4CIRsNLamyLsse1Gbzhi5XMQARvuTUkpBBRHQASsOJeIQULAcAIiYMNZSUohoDgCImDFuUQMEgKGExABG85KUgoBxREQASvOJWKQEDCcgAjYcFaSUggojoAIWHEuEYOEgOEERMCGs5KUFieg/MAKcyMSAZubuJQnBIxIQARsRJiSlRAwNwERsLmJS3lCwIgERMADgmnptZilyx8QtCFwk/n9IgIeAs1Kqmi7BETAtutbqdkQICACHgJOliraLgERsO36Vmo2BAiIgIeAk6WKtktABGy7vpWaDQECIuAh4GSpou0SEAHbrm+lZkOAgAh4CDhZqmi7BETAtutbqdkQICACHgJOliraLgERsO36Vmo2BAiIgIeAk6WKxiJg/ocV+rJcBNwXIflcCCiYgAhYwc4R04RAXwREwH0Rks+FgIIJiIAV7BwxTQj0RUAE3Bch+VwIKJiACFjBzhHThEBfBETAfRGSz4WAggmIgBXsHDFNCPRFQATcFyH5XAgomIANCFh50TEK9nc/TBOu/YBlsaQ2IGCLsZOChYDFCYiALe4CMUAIDJyAlQhYpnMDd7HcacsErETAtuwCqZsQGDgBEfDA2cmdQsDiBETAFneBGCAEiMDAlokiYGk9QsCKCYiATeq8gfWqJjVJMrcpAiJgm3KnVGaoERABDzWPS31tioAI2KbcKZUZagREwEPN41JfmyIgArYpd0plhhoBEfBQ87jU16YIiIBtyp1SmaFGQAQ8II/L+e6AsMlNRidgpQIWARm9JUiGVknASgVslazFaCFgdAIiYKMjlQyFgPkIiIDNx1pKEgJGJyACNjpSyVAImI+ACNh8rKUkIWB0AiJgoyOVDIWA+QiIgM3HWkoSAkYnIALuN1I5g+43MrnBZAREwCZDKxkLAdMTEAEPirGMxoPCJzcPmoAIeNAIJQMhYDkCImDLsZeShcCgCYiAB41QMhACliMgArYceylZCAyagAh40AiVmoFssCnVM8a0SwRsTJqSlxAwMwERsJmBW0dxMnpbh58AEbC1eErs7EVAOhg9DBGwCEMIWDEBEbAVO09MFwIiYGkDQsCKCYiArdh5YroQEAFLGxACZiFgmo03EbBZnCeFCAHTEBABm4ar5CoEzEJABGwWzFKIEDANARGwabhKrkLALAREwGbBLIUIAdMQsAEBm2Z3zzS4JVchYFwCNiBgYwKRzsCYNCUv0xMQAZuesZQwpAiYdxAQASuqcZnX+YqquhgzIAIi4AFhk5uEgDIIDBEBy8imjOYmVhibwBARsLGxSX5CQBkERMDK8INYIQQGREAEPCBscpMQUAYBEbAy/CBWCIEBERABDwib3CQElEFABKwMPyjECtmtV4gjDDZDBGwwKkkoBJRHQASsPJ+IRUYnYLszCxGw0RuLZCgEzEdABGw+1lKSEDA6ARGw0ZFKhkLAfAREwOZjLSUJAaMTEAEbHalkKATMR0AEbD7WUpIQMDoBEbDRkUqGQsB8BMwkYN05XFcX/au77OzszFfLfpakt/NCGwdqP91nrPpemNc5W5nqZWs60NPQy9l/KVb9RD7g5L1tMybnyxlkrnIMgWIWAbe2tuLU6TRoNG2Ii41BcHCQ0Rq0IZXsTxrqYyoqK+Dn6wsXF5eeW0tLy3DkaDKuSBiPUaNGGmx/e3s7Dh05irmzZ2OwfRY1nM7OThaqg4M920Z/I76lJWWIjhl9WbsqKiv5npDg4P4g6SlH1wmd3w1kZWUjNjbmsuWSzSq1moyFh4dHv8vuS0zNzS1ISkpGWFgYoqJGwcnJ0ahl9M7M0h3WhRUzi4Crqqpw4OAh3Lj4BhxNOobAQH9Ej46Cg4MDurr0jaJnbOZGQo2FYVGj6TVyX8wzPO50q0N3j66d/eBW/R96PtAn6h68uttmUVEJggID4Orm1lP2sZRUpKVlYPnyZXB2doKLs9MlG0nv0batrQ27v/4WN96w8LyZx4UNQfdMNNvoAAAXoUlEQVT/drCz62KJ6P5z7jqbm4fikhJcNW9uT93oUxJHUVEpMrMysfD6BcxMVz3KSydw/VVcUsoZR4SF9WSvt7V3ugsrRv47fCQZS266occvdgTZDmhsbIK3t9dFZ1f6POnflhYVqGbenh4XVu0yYiPb7X9QD527z8026uvrcfJUGkJDg2EHe0SPHgXYUQfXqx11l9LTrvTzld7t5hKWUF27vcIpvv1uHyYmTEBAgH93G+WetNt/unary9b0s0yzCLiykgR8EMuW3swA/rvpU1x11Vy8/sY7eODn9+Gtt9/BokXX4/CRJCxaeD0aGuoRGxuLo0eTMWPGNOze/Q3mzZ2JqqoaJB1LwYTx8fhq125ce818DA8bjqTkJNyybCk77JPPtiA8PAIpx1Lg6OiIZcuWYtOmT3DVvDnsZGcXZ8SPHYNDhw5jTOwYRMdFY9dXuzFpYgJOp2Vi2LAQODg6YMaM6cjPK+TGmZiYiNFRUUjPyMTNS27iPNzdXFFYWAxXdzd8t3cf5l8zD3u+/pYb0axZM+HaPXqTgD/bsg0jwiPQ3NIMFxdnFBUVY+rUqfj6m29x70/XYOPGzzi/xYsXok2rRX19A2jEn3XldLzx5rtYdesK1NfWobCoGNOnTeXG4enpwY1YpVLhzbfewZ133oGWlhYUFBSivKIcs668Eq+98SaefOLX+Ovf/olbb12FU6dPY+aV09GmaYO7uzve++BDPPnEr9gnRcUl/BMbPRpOTk74fn8iJk2ciB07vsAttyxF4oFDmH/NVZzW18cHn3y6GUtvvhkvvfwybl21Epu3bMUjv1yHXbv3YOTIkRgTF8sN+ZHHnsAv1z2E/QcOso+zs7Lh4emBlJRU/Pi2VXjit7/D+nUPo7i4CKOjRkGlUsPF2QVNqlZEj4xEclIqvH28sC8xkWc+DQ1NGDs2Do4OjoiJ1g0CdXV1SEk9jnHx8bCzc0BOTg78/H1RXl6FCRPiUVNTi7S0NEybOhWtahW8PD0REhKEPzz7Z/zhmadRWlbBftG2a5GemYWoUZGorq7B99/vx+q774C3tzeo86upqeG65xcUYsrkiSzgvPxCaNRq0EyrvqEeak0bmpqaMGf2LIQEB5lsJtAz3HVdrus1UvE6AR/C8mU3s1M/3rgJCRMSkF9QwFPBmtpaxMXFID0jC2vuugO7dn+N8ePHoa62DiMiwvH1t3ux+IaFyMvPw/f7DvB0dPv2HVi37hds4Wuvv4VHH1nHv3+/LxHhYWEMNDo6ChqNBn/803NYu/YnSDxwED4+vpg2dTK+3PkV7r7zdh7Bnv3Tc9z4auvqEBcTwyMdObSluRXZ2dnIyMzEnNmzkZ7ZLWAnJ7i7u6G0vAIF+floam7BpCuuYAfGRJ8/jdWPwDctXoTU48fZxhMn0+Dh4Q53dw+MHROH9Ix03HjDIrS2qlBeUcHiPXM2F7f/aBXX5/rrrkV2zhkUFhaxgO3t7XgqSgKura3DkSNJ8PH1QXl5GQKDghA2fDiLYe29P8erG17E7j3fYMlNi1mgarWaxZuXm4c3334X/37/bbYpIzMLp9MyMGfWlSz0tnYtHBwcceTwYdz/83uRePAQrr3mah5ofH19sHHTp1ix/Ga8+NIruO3Wlfhs81b2wVe7egsYOJ2ejvgxcWhobMaZs2dRUlICV1dXJCcfw2OPrMMH//4IP7tvLZpbWpGbl89choWEIq8gHyNHjOC2ceToURQWFGHixAQe1a6dfzV36vPnX8WdTVFxMZ5/4e8YFz8GN924GJs+3Yzhw4bBPyAAapUGM2fOgJeXJ5ydnLBv/35mRB3V3u/3c1vY+N9P8NN71nDnl5dfgPHjx6OsrIw7deogKioqUV5RifT0dF4u1NXWY/LkidBqtaiqqUVhQQGcHJ0QGxfDLD09PLmTcnM9twQzkpR+kI2ZRuBK7PlmL2bOmA5NWxvUKjVGREQg+0wOQkNC0NHZwWKlEW713Xfiq91fY+rkiXjjzXcw76p5POLSOic3N48dSj3t5s+2XETAXdifeIgbcFubBtHRo1nAz/75OTz4wP3IOZODiPBwDAsN5U7krrtuR2eHTsAP3H8fcnLOsl3tWi2Ki0sRNWoEWlUqfPvtXp2AMzKx4pZlKCuvgJ+fD/7xz5fws3vXoqWlFYGBgTxzoDJpJKT1MzWutrZ2bN/xJSaMG8sdg7+/H8rLKxEaGsIjQYS+g1q0EKnHT7AgqdNKSk7BypXLed09b84s7kROnjzNnZe3jzc3dBLwRxs34fYf3YbGpiaUkfBzcxE/Ng6jRo7E2vvux2sbXmRxXXnldM5brdbAz9eHbXvu+b/h/Xff5EZBNpeXV+BsXh5PQ6l+Af7+0GjU8PHxwRc7d+GGhdfzepvKJX+uWX0HXn75Fdx5x+34fPsOLFgwH0lJxzB58qTuERjY+vn/MDFhPFTqNjg6OaKxoZ7z6+zoYFbvffAf3Lt2DXeCNJs4ezYXTc3NmDJ5Eurr6qHSqFFXW4vk5JRuAQNXXzWPBXzNNfPg7OyMuvp6pJ1Ox+zZM9m2zzZvwfDhwxESEoygwECoNe3w9fXmEbauvhbFxWUYFhqC8PAwbPp0C0ZGRrDojp84gSlTJiM0NBRnzpzBpIlXcAf/vy++xMQrEpCZmc15UmdCg8O+/Qe5Y6yurma28fFjeKrt5ubOHazNCLipqRkpqamwt7dnQV2RMAFBQUHY8cWX8PfzR1u7BlFRUdyAaITJyMxGc3MTi4iAOTk7Y3hoCE6eOgUvL29uHMePn8C8eXO48dHofs3VNL3rQm5uPjcQbYeWRdWh1fKIPnvWTBaBpk2D8fHxOHsmF9OmT2EH7dr9DaZPm8IzAMpjGPXefn7IyTnD0yEaMUZFjUJFRQWmTZ2C5GOpCPD3w7HUVIyKjIS3tw+GDQvl0S0wMAAHDx5GXFws/97R0YGjR4+hqbkRvr6+iIwcwQ0pLz8f7e1azJ0zC1nZOTytp0ZQUFiI2ppaLpNER9PmqFEjWfwnT57izovETw2Xrs+2bMWqFct5ZCotKwOtlWlUDwwI4JFl1cpbcPDQYU5Lo0n06NEoKS3lKSLV5647b+fPqmtqkJGRyR0Mif+7ffvh6+2DxqZGzJg+DfsTD2DiFVfwLIXsJKHMmT2TO7F1Dz+A7Jyz3JDJvyS+4O6Nsu3bv0BwSBAcnZzYdhrFaM1KM5MF185nljOvnMYbnNSBlpSW8AyBZiM0DU08cIDr5uHuzm2BLhJ+ZlY2z3aoTdEGKbUdmmLT+kKtUuHI0SQ42DvwiOnh7gE3N1f2JfGtqq7G1MmTeRR9aN2jeObpJ7lzpnxoCTRq1Cg01DfwTI6WsTQzKC0pZf+Sn6iTo3L9/f05z6bGRowYEYlQss8OcHJyZv+MiYvh2ZIp18JmGYEHMn2g0YgaOfXUBIemOoM/itFv6PxwN1Vn4wU7RxfdhOj7MIaEHxY2nBvi+Vfv8gdCRX9P3zZcmDtvrHRvPF285P7ZRvnt2rUH+YWFPAs5f4fdkM2bH9YhLS2dlxlubm5wdXXjpQPNFC53UQdMy42eEnt2ysmdF9jRs1+q25JKTT0OL28vFnNDY8O59L3Ssfi6s9Hvj+r+v6t7o7Cru9n0LkvHcvToKBa6KS/FCpimsVlZWejq7OJpJo2q5wu4/434UmJS0rneYJ1trrpQOXSERFNFmooOvnMFL69Kikt4Ck0zFR9v7z7zvfyxzqXbCN1HMxraa6GZyeWvvtrahZ/3lX6wXj53v2IFbLwqGisn8znFWBZLPrZPQARs+z624hpKp9mX82xawO3tbd1RSw48FTPGNK8voAP9nI4kaD2n35zqKx86JqNzbqoT3Uu/975ok6h3XpebatJn9NOf9RqlJxuofL0d+vKpHv3hrY8w009l9fbQBqC9vUNP1FlfTIbi5zYt4E8+2YKQ0GDEjRmDQH/fHzRyJTmcQgH1x2iG2LVl2+d8dlxVXYPiomLesdZfJAAKtFi2dAkfZ5Gg9D8XExwdLdEudNjwYQZ3crShs3PnV/D18+XdYDpV0F81tXXw8vTo7kD6HkXpaKq4uAQxMdFcPu1Sq1Qa5Jw5g7jYWA66kOviBGxawP/818t4+KFf8FGMk7MjvD29mEJXVydvvlBwBEVYFZcU89kwnfk6OTpyw+vs1I1I+hA6+juNdHZ29jwi0Lk0BW7QkRMFRdDRRlt7O5oam/iMlvKnY6IWVSs83Nz5CKKltRWdnR18/kubcnRRkIC7hztSU08iLy8PK1cs4wAKivahkMCzubkICgyCnb09tO1tPUJ5/Mmn8JO778Lp9AysWL6U825taWUbPT09WcAUYEHnwxQRpBOwLrSQQkFphNZo2jnikOpWWlbO574U4UXRUHRmS4EjFBBCRza0qdSh7eAAFtoZpk6CwmIpuOLbb7/jIyUKQtGdHbfD398XeXn5iI2LRZtGwwEgnV2d3Xw8UFpWisjIkVCrVRxVRfUdP24sM6Fz68mTJmHkyBFcH/IDHStRPDUdy9DRja+fH+y6wHVpbm5GSEgIKquq+H6vbj9ThBYd7yl55jXYjsmmBfzU07/HnDmzEB4ezg2OzogpFI4O/q+aNxvbv9iJW5bejG/2fodx8WNRWFSEkZEjWWAU+E8jEh2+VFVXITQ4mHdHKZrHzd2ND/XVGjUmjB+P119/A+sefggVlVV8DDJhXDwfIZzNzec8SQRdnUBNTTXqGxsROSKCRy26NrzyGoc50o5oSUkphxtSKOWnm7fikXUP4sWXX8aPf/QjPrelKKalN9/E9z3+m6f4TPfuu+6kiGicOHWaA0TKy8sxc8Y0fP3td1i9+i7k5+XD1cUZISGh3VNtBz7rLSgo4vLs7O0w8YoJHEZKooscMYLPiens/sP/fITf/+63+Mvzf8O6h34Biqjz9/NlURDPd979AGFhoQgKCoGnpzsOHz7KQRZ0Fj1p0hV4+533sf7hX+DAocMclknBOinHTyBhwjg+Kx83Lp5DV9vb2jnclCKzSOi7du3G1KmTERAQwMdTJN4zZ3I5DoDOgqlDmT//GvYT1cHdzQ3Dhw/jTogE7uvjyzMK8sU9a+4erEYUfb/tC3j2TIyOjoaqtRVJycc4OKC+oZHD7gqKShAXM5obHI0cJLbAwCAEBPjxQT6Fz9ERFo2aNCpTT08HiJ5enhx0QKF2Wm0H3nv/faxcsQIFRUU8slEgRPKxFCRMmABNm5rD+Sg4oKurg8Mk/fz9uEOg69777sebb7zK6dPTM3HttdegpbUF+/cfwJ13/BgvvrQBj//qUY7MSs/IwOq77ugRMI2wOWfO8oMSNBJT50TRS1FRI/HFl7tw+49v5dGHAllmzZzJwS2ODg5IT89A6LAQzuf06XRcf90CjlUmQVBn09nVxRFYf3j2L3h1w7/wj3+9jN/+5tfIzsnhs2QKjqDr7XfeQ0R4GBISEvgclUbRhdct4PDPhITxyM8vwrDQYOz8ajduuvEGFBQWoZ34jBrJswEKEiEeVCYFpDz2yHoW8Mf/3YT5V8/j2Q3NHChIw97BAbv37OEAFQrGWHLjYj6+2rx1O+bMmolt27brIrHs7fgMmU5lKQrskfUPyQis6C7oYsbx2XoX/vWvDVi//kHduqqhgUcIGlkoQooCQ4pLyxBDI+XZPIRHhOPEiVMczTRj2hSEDgvFW2+/x9E4c+bopoeJiQd5qk2jS0lJGU8fO7VavPvevzF7zkzs/W4/R+pQ4928ZRviYqJ59BgxMpKn6jRqUURVgJ9fT1TR7j1fo6mphUc9H28vjh6jjoKm47euWoGXXnwZv2IBH2OBr777dm7kTzz5NH731G84+J7OTkkUFMPsaO+AK2dMx74DhxAcFMhxwrRWdnFxhbajA44O9jhw4BDsHe3R2tICJycXLFp0HYcwklCcnJ14RKyvr8Pnn+/AG2+8gpeoE/n1Y7zk0Ak4mm04mpzMrCjSITMri2OJr79+Ab7/XidgXx9vvPTya1i58haefez9bh/ix47lz/bt24/AgEB+AIRioWna/Nij6zlAgjqVQ4eOYNjw4aioLMPV865GckoKiouLecaTX5CPxYsW8eODW7ZtxzVXz8XWrZ/zNJ9CKGnq39jYgLz8Yqx/+H6Oz9bPXKyuLfdhsM2OwIePHOUpc1BQIGixRA2OhEIjMa2b6AkTChZxdXbh0ZXWWxzIPi4e27b/jxs0BfHTDuvevd9z704PUri6uvAak9Zmbq6uLMra2lp+MIFGIQqBpHVkc1MzR/t0dGjh6eHVsyPcrm3jNR/NBCjAnkIPacpMO66UN62xaXeXdmT9/Hx56kzPT9NGD62jKXyPIr2OJCXz2pgaPD1tQ2VSJ0WdFQVA0PS+s6OL/6XAfsqf/k6jJ01BaepJu/T0yCStGWl0prhtmm1Q9BuFNlJ5ESPCUVVZzR0O/Y1GNnrQg66WVhU83N34d9oI07S38dNbzU0tcHNz4bU8PcVDUWmqVhUaGhq4PE8Pd45pd3Zy5nUtPbpJHOkJNZoFkK20N0CdCa2fyYe1tfU8M6B60iju5eXFa/GGxka+hzo9qjvxp7hu4koLfMqb+BBDy1x9b+INxi6bFTCJ4OLX+SGD/MSpnR03mE8/3cwbIStX3MKPFH744cfcuNeuXYNhw0O5YdGlC5obWPSN7nllO944GujmCtmhe7Bf9xiqLoyR5hznwvl6P2VNv1MM85493/BIPX3atIuEjepp9RVu2p/m9sPG+0P652x2cHRkX1z+Mq0g+lM7JaS1SQH3HV53Toa9ndD7vos9ZXl5wRkeSzyYcMf+3HuxtJdn01vEeiFRRzHQeF7DxWaYXRdKxvD8lSA2U9hgkwI2BSjJUwgokYAIWIleEZuEgIEERMAGgpJkQkCJBETASvSK2CQEDCQgAjYQlCQTAkokIAJWolfEJiFgIAERsIGgJJkQUCIBEbASvSI2CQEDCYiADQQlyYSAEgmIgJXoFbFJCBhIQARsIChJJgSUSEAErESviE1CwEACImADQUkyIaBEAiJgJXpFbBICBhIQARsISpIJASUSEAEr0StikxAwkIAI2EBQkkwIKJGACFiJXhGbhICBBETABoKSZEJAiQREwEr0itgkBAwkIAI2EJQkEwJKJGBBAcs3CiqxQYhN1kXAggK2LlCGWysdk+GsJOVgCYiAB0tQ7hcCFiRgYQHLaGVB30vRNkDAwgK2AYJSBSFgQQIiYAvCl6KFwGAJiIAHS1DuvwwBWSKZunkMQQFLozJ1o5L8zUdgCArYfHClJCFgagIi4AsI9+f1ncZzjvFmBb1fi6p/HerF/mY82y2Tk95PF74SdqDvXLZMLQZf6pATMDm8sbERbW1tP6Dn6OgIDw8PODvr3kBvjZdWq0V2djYqKip6XgJub2+PkJAQxMbGgupo7Rf5kF5yXl1djaysLPbZlClTBvzCdGvmMSQFfLGXd5MT9b23NffiZ86cgY+PDwIDA89r0FVVVaivr0dMTIzVtlfym0aj4Z/c3FxERkbC19cXxcXFiIiIEAFbrWf7YfilxKsXsGWm0P2oQB9JMzMz4efnh+Dg4PMadGVlJWprazFmzBjjFWbGnGjEbW1t5VHXyckJoaGhcHBwAPlLBDxgRxhv7TZgE/p5IzlcpVLxFOzCi6aaLi4uVj3NJAH7+/uzgHtf1i7glpYWlJWVISAggEdd/Syps7NTBNxPDVh98r4ETD27tV62KmDas2hqakJzczO8vLx4lkGXjMCXm1Naaysewnbn5OTwCGWLa2CaNZGA1Wo1LweioqJ4Oi1TaJtv8OdP9QsKCngn+sLL1dWV11bUw1/8Uv6SgRp3fn4+6urqeHTSr+1pxBo5ciSojtZ+0U471ZN22knQtLMeHx8vm1jW7lhD7KdGTeumS21W0TpYmbvQhnUe+iOW3vWj36leyq3bpTx3+TrTiEy+JH+RiK19A9KQ9nthmiF3jDQQSHKPEFAqARGwUj0jdgkBAwiIgA2AJEmEgFIJWEDAhq3llApM7BICSiJgAQErqfpiixCwbgIiYOv2n1g/xAmIgId4A5DqWzcBEbB1+0+styoCxt//+X+eurB886vvRQAAAABJRU5ErkJggg==;" vertex="1" parent="WIyWlLk6GJQsqaUBKTNV-1">
          <mxGeometry x="122.91999999999999" y="1845" width="240" height="520" as="geometry" />
        </mxCell>
        <mxCell id="ZbRekK_5Z5T81OuFVQke-89" value="" style="shape=image;verticalLabelPosition=bottom;labelBackgroundColor=#ffffff;verticalAlign=top;aspect=fixed;imageAspect=0;image=data:image/png,iVBORw0KGgoAAAANSUhEUgAAAPAAAAIICAYAAABQC2PPAAAgAElEQVR4Xux9B3xcxbX+N3ebercs9y73hm3cwBVs00I11TYhCYGQ/PMIiQOEvCQvCSEJoQYeJOHRMTamgysYA8ZN7r03ucmyelltvfP/nbm767Us25K8d7WSzwX9ZO3OnfLNfHPOzJw5R8ycOVOCH0aAEWiWCAgmcLPsN640I6AQYALzQGjhCJCCKVpsG5nALbZruWF1I9CyCM0E5nHOCDQrBE6fgJjAzarzuLKMwOkIMIF5RDACzRgBJvA5O69lrZcaP04Zh8ZjZ+6bTOAwfHVdB/3UfjRNA/3w03wQ8Hg8kFLC4XCoSlO/er1eWK1WWCwW0Pd2uz1qDaK6nO0RovG75I0mcGlpqaoPgZCQkKAAqa6uVgDR3/Q7+FDl6Xv6SU5OVh/TZ0VFRWjVqlW9QfT7/SotdUB43vR5RUUFbDabqk+w02pnTOlcLpdKQ2nDH5/PhwMHDuDgwYOqbsGHwG3Xrh369OlT73pywvohUFVVhcTERNQewIR/ZWUlqL/ou7S0tDMyLC8vR0pKSoicNTU1SEpKCo2tuXPngvKfPn26Gov79u3DF198gREjRiA3Nxf0/R133HHaWKExQOUS0YMPjZNg+ecjmtPphK77kZiYFGoT5UVcCY7d2g2hPINlhI/rU+nOrf00isAnTpzA5s2bFVGJEJdddhm2bt2KsrIyVW7fvn2Rk5MTqoPb7UZeXp4CZsKECerzw4cP44MPPsCDDz543t6mjigoKFATABG+NumLi4uxdOlSxMfHo0uXLmeQjQYEdTDV+/jx46pDMjIy0Lp16xDQJSUl+Oqrr9REQG2iyYi+p8mA/r777rvPW09OUD8ESBrSwF2+fDnatm2LTp06hSZlIgF9t2nTJtC4Ic1n6NChigBBgtL7K1euVP2TmZmJkydPgsbAoEGD1Big/l67di3atGmjyJuVlaXGz/r169G+fXs1Dmm8Tp06NTQJUB/T5E3jkiYHIjMRiyYJInzHjh3PmGhqt3bdunWg+g8fPlwJCarHli1bVN1ICFCeNGFRm6gNVE56ejr27t2rxm3nzp3rB2BYqkYReMGCBRg2bJgChohD0mnDhg2YMmWK+p2dna0qTA81gkAhQIk4RGCq+LZt27Bq1So89NBDZ1Sa3qFOpI45dOiQmhWJeERgep/ADD4EGn1OIBHRqZOpbkTyoNpLnU+ds2vXLsTFxal09HPLLbeE1KgggQl4+o7y6927tyLw/v37TyMwdQTlRfkOGDCgwaBf7C8cOXJE9c2ePXsUttOmTQtpRNu3b1d9SESk8UUTKUkwGguXXHKJgo7wp/FD/UR9TyQjohI5idD0LFy4UAmY/v37q/FH/yYCd+vWTaX59ttvcfXVV6sy6KExSUSiPqU+p/xoAqEf+psmh7Mto4i0x44dUwKMBEU4gd955x3ceOONoDbn5+ejZ8+eqn0kTGhsE2dIE12zZo369/mk/BkSvDGmlB9//DFGjRqliEoDmX5T5YhoR48exaWXXqpmFCIigb1x40YFMn03fvx4BX6HDh3wxhtv4Oc//3md45kkNqm0NAvSTEoqEOVBBA7OxPQi1YUAprJIPad6EIBdu3YNAR4kHAFFMyCRmAYPdWBQ3SYCf/PNN+q78AmCOpbShktgAv/TTz9Vg6s+GsTFTtja7Q9qcCQVSaXt3r17aOCSZKT+pX4KEpj6ht6hiZkeIi2NOxIcb775piIIaU5EMCIxPTt27FDp+vXrh507d6oxRCQiqU0/1Kc0RsLVVupPSkM/9O9gPehd0ijPtmYuLCxU2gSNm3AJTPV49dVXcdttt4W0BBrDNPGQBCahdM0116jv6P0bbrghOgT+5JNPMHLkSEVcKpg6gVQQIiaRhWY9ajzNJl9//bUiHxGFyEjqEs269G8i26RJk1T62g99R7NfamqqUm1pFqUZmAgcPkuRNkAqDnU8zazUsZSG1JFgOqoTdSjlQQODZleqw6233noagamuNPEMHjw4VB0Cd/78+acRmDqXZnOqG0vghk1PNNGStKF+IGxp3FxxxRWhPRMiW3CSDZfAROKBAweqwkjKkVQmUtEkT6QlAtNkS5MBPURCGp9EVJKOQclL6jO9T2VT39Xeq6GJgrQv0gBIaxs9erQaW5QXCR16aGyShkcTEOVDY23FihXq+9oEJglMxCSSk4QmApOUJ2FDgu2qq65S5ZGGSlwwXQJTB5AkpcrTYJ83bx5mzJihiEsqARGTZiIiNhGBSEigUaNJAhLx6W9qxOzZs/HDH/7wNIlaezhQOlK1CaAhQ4aE1tDBdEG15fPPP1cEpjUVlRu+kUXl0Zqd6kQAURtoZh4zZkyoA4MqNHUcfU4TEKV77bXXVBpqYzi4NPCorXVvPDRsUDff1I07XiKikUpLEyP1zU033RTSloiYhDNJKepLGtz00GdBdZek12effYbJkycrjYnGAK01SfML9jtN2EQKknBz5sxRqmtwWUcTOZGflki1+4+kNtWPxgqRlwg3a9YsJa3Hjh2r6kL1prJokqAxT2Oa0gcJTAItKK1pQqJJhiYWqjeNGdIUqD1Edqrv7t27lRAL1q8h46HBa+DgDi0Ri8AnAIIL9uB3VMHgln0QfKo8vRO++xtcX5yvwjQ50AxL4IZvjgXfo7KCsxvVJ3xWpTRULyo7fCewdjoaMMuWLQOtwej9IFmpjjT71ibw+erM358fAZJetC8SjndwDBE5qL+pn0hrC46jYH9Sn9M6lgY/SUDSuojMwYcITO+RgKGxQdKWJoDgupaEEE0AtU8jgvnThE4bnfSQxhXUIOlvmlRIgtKYpomcJn0iPWkO9FlQ+6S20A+NLcqjrqMk4gppcpT/6Wvs+k2ODSbw+buFUzACsYlAkEANVVNjszVGrZjAsdw7Ea9b/Wb1iBfLGZqGABPYNGg5Y0bAfASYwOZjzCUwAqYhwAQ2DVrOmBEwHwEmsPkYcwmMgGkIMIFNg5YzZgTMR4AJbD7GXAIjYBoCTGDToOWMGQHzEWACm48xl8AImIYAE9g0aDljRsB8BJjA5mPMJTACpiHABL4gaNk08YLg45cvGAEm8AVDyBkwAk2HABO46bDnkhmBC0aACXzBEHIGjEC0ETi1dGMCRxt7Lo8RiBgCku8DRwxLzogRaAIEWAI3AehcJCMQKQTOQWA+IokUyJwPI2AWAiyBzUKW82UEooAAEzgKIHMRjIBZCDCBzUKW82UEooAAEzgKIHMRjIBZCDCBzUKW860DAd4YjfSwYALXiSgPtEgPNM7PHASYwObgyrkyAlFBgAkcFZi5EEbAHASYwObgyrkyAlFBgAkcFZi5EEbAHASYwObgyrkyAlFBgAkcFZi5EEbAHASYwObgehHmykdvTdHpTOCmQJ3LZAQihAATOEJAcjaMQFMgwARuCtS5TEYgQggwgSMEJGfDCDQFAkzgpkCdy2QEIoQAEzhCQHI2jEBTIMAEbgrUuUxGIEIIMIEjBOSZ2fC56PmhZYzOj9G5UzCBLxRBfj/GEWjZkwQTOMaHH1ePETgXAkxgHh+MQDNGgAncjDuPq84IMIF5DDACzRgBJnAz7jyuOiPABOYxEIZAy96xbYldzQSuV6/ywK4XTBFNxJjXB04mcH1Q4jSMQMwhYExwTOCY6xiuECNQfwSYwPXHilMyAjGHABPYtC6RgPE/hDCtkBjNmBouICEhhBajdWwZ1WICm9SPUkrFXAEfpNQUiemjC3saOxMECw5/P7hJdK5KBdM3sOL0mi4AQRhoaGytLwyri+NtJrCJ/UwSSFZ+AfiKIWA1xLGSS4186ngxKN/0sCzPoF3YB2f9LrxKtcupJwONZMbEBd0P3doOlpQxtNfCj0kIMIFNAtYYyn7oRW9C6MVKGAUf9e/aTAr/+ywDXoYxITw/VVZA4NXZHGFMGoISBR7jn/JUvWqXGZbWeIWIGXw5rP6hDI06BOYopTr77W1gTb/TeJcfUxBgApsCa2DISz/00reheUog47pCs3dVKmWIEOofdTG5jgGv1tNEorDvDFYG+EEMNnILV5ilJDWe1qP0nW58FyhSgOpyppqstH8YMp0mDWMdG16n8FJOAWjUzw/pOgjhPgS/vRWs6XcxgU0cY0xgE8HViVtEYF8pROJwIGEoAM3Y3GlwuQEpGtoRC5IonFi1RLvaSNIDxLbUQaTaxAzpCJDEX0H1PKXy00RQ92NMEIaUloBzHVC1Cn5rBqwZ05jADe7r+r/ABK4/Vg1OGU5gJF4KJAwB9GpAdwZk4inC1J15OCE1SC0R0BIgFIkFpF4JIRwBge4PZSGlBxBxELoTUsTRjlJIBhtb4j4ANkCLP2ubpO6HkFWQuivwfoCgZ7wRqAuRm/LTEiCd6yGIwLZMWDNIAvNjFgJMYLOQJbkjBfTSt6D5SqAIHD8A8B4BvCcA6Q9f0daqRS0VVRJ5bZCODhDWHKXSqh3tmm0QjnaQug/wVxobZKTueo8Dtg6Aey+koy00nzMgiW0Qwgb4yyFsmYC9W5hKH6gCiV5vEXRPAYRFB/xVEPSZmkvCt8rCpLVqiQbYWqs6wrkBomoN/LYsWDNoDcyPWQgwgc1CNpzA3hIIInDiIEgis14VOFMylFK1Wx1cY9LRU3ChGhDAxtrSAlgzICzpxppW6hBVKyDj+wCyBvCVKVVZwgK4DkDE5UKvXg+Z0BOat1itTQVJZeGA9BVB2NsBcf1OI7CUfkjPYQhPPiQSIBxtALihpLGqX12bUWFqtZYGWFOBmnUQVWvhs7WCNeMOExHmrJnAJo6BkAQOEFgmDATchyB8RYqABmlJlSWVNqAJGxauAa6Q5KMzZB1SWAFbewh7e0PaUbrq5dDje0OTLsBXaUhZWKC7DkCL7wW9ag1EYl8Ib6EhtWFVJIa/GMLWFjKutyKwUQ+piA3nNvUdbCnQqzZBsySe2hRTC+M6HqVFCwhLK0hHJ6BmM0RVHhPYxLEV0n9mzpzZxHv84eu8KLQ4ikWcQeDES9SaUkh3QH0m6lghQcYOmrGhrIwfDAJLeAw6k+oqNUAkQFgcSjVX+8NVK6GThKU1r69CHVsBVug1B6El9ISsXAMQgX0nAJoAFIEdAQK3g4zrFZDAVJgX0rkTkG7A3hr+yi2wJPQE7FnQpcfYr5YWdVSkJo+wCYfW2KoXKW8tDtK5Dlr1GvisLIHNHm4sgU1E+DQCJ1wKmdAbunMD4DqsVGhDNbZD2jJgS70cErSpJCB8h6FXrIaPJCu80HQrYLFDxPeBRiqzotNZCCys0J21CExrbi2MwHoRhLU9ZHyvkDSXvlK1+QRbG0hvATRHO8DeDnrpV5D+Mmg0hwTOjkM7ziExQPXRoMV1hkgcDNRshahezQQ2cWzFkASOQiubqIgzJfAQpeaqTSEiIUlWXYN0bYDurYAlbSyEXg5fZZ5aw1qsXSA12g02ZB5Ja2WaKIJr4DokcGMJTOtkzx5IazpQvQUi+XLonn2AboGWNASC1tbnNeqmivohq9ZDOldDt9ImFq+BzRx+LIFNRLc2gZHQF37XLujeYxBSmUgYm1Lx/YDqNUBcV0jvSSWVNUcX+Cu/g65IQ5cC7BCO7rA4uiiV+5wSmFToeFKh84DEfhD1kMBk7ik9ewFLMlCzCzJpNETFCojUyZAkvSWp52c5Bw4YkBi6tQZZtYEJbOK4Cs+aCWwi0OEEVsdIicOUJJOCyKCr4x9Z9Ca0tOsgfAWQdIbqLQOsWRD+49DdxdAyrgsc3xDdyRiDpK+x6VTnGpgkcM0hWOJ7Qq9aCZHQH/AWnlOFVutXIrB7N2BJBVx7gKSRQOVKiLSJkP4qwF8ESKP8U9ttYathIrGWDGnJAGo2qmMk3oU2cXAFsmYCm4hxbQKLxGFqlzjIATq20Yv+Ay31amNnWktUx0xqN9e7Fxqd/6ZMggiZTwauC5yLwLSJ5ToELS4XsnoVkDjAkMDCGlCDjV1o0E6zWk8HzCzPIPAIoHIVROpESOkFdNokq1sCKxtrtRMdD1iSQufATGATBxcT2HxwgwQWvhJoiSMMU8rw+7EBAgtF4GJDAvuKDQnsPQBBplypU86o6NklMK2tbdBd+yHiekFWr4VI6g3hoXNgYphVGYRoVJa9DRDXV+1+qyU2lRuSwLuBxJHKHBIpEwE6u6YJ5iyQGbQWkJZUCHu2sYnFx0jmDzBCvemPkaLSziYp5BSBS6ElDodMGFrrgrsf+slXINImQ3hLILUk4yzWmgnhPWgYPqVOOmPteT4C+z17IHQv4DoBzZEGXfcpCyxB61sy4PAWqKMi4TAMOU4ReA9gSVEqtEgaAakk8ARI6YP0V599DRyU40oCJwI1hiUWS2Dzhx0T2ESMQwT2lkJLqovAPugn/w9ImwwtjMDSmgVNSeDGENgK6doHYctWR0Lq7BZeSO9hoGYnRMIgwx7blhwgMH1vSGDhNggsa/ZAJBsERup46DUHAFc+pHYWGRy4HylsrSDi+0LUbGcJbOK44k2sKIHbJAQmgw3nfgiLFXpcO+MMGTp0a1tArwSq16v1NpJHQ8R1C9yOClehUyBceyGVCr0CSJ0AIN4wKjnHMZKxTA8cNTnXQFStYwkchXHGEthEkKNNYCIqbVbpNfugWZMhHe0NCy7Xfkgy50weDt1fA1G5ElrK5UBcp9Am1qk1MBF4T4DAJIEnAu58SM8RSO1M/1bqkEvdIpSQlmwgvgc0Zcixigls4tgKZs0ENhHkaBPYsIWmXei90Ow5ELZ20HU3hDUF0ncccB2HSOoPVC4HyA46Ljd02T+cwME1MCpXQKZNNvxbqauLdTmoCzoLIEstO4QWD1m9DqKabaFNHFqhrJnAJqLcdAQ+YNhPW7PVrrZmiYeI6wlJa1lrMuA5CNg7KtNMw8EAqdBFkJ49gEYSeDdAm1hV6yCSLwO01LM65VM70CHVWoKOxqAIvJolsIljiyVwFMBtGgLboHsOKGIKSzZEXBegZi2ESIbUPYDmgPCXnHYOrKDwF0F37QQsmWqzC8nDIckAxOeGFt9FWYedOo+uAzxlDWKDpPvG1RtYAkdhfKm5k4+RzEM6+gT2K6LROTA0C+A+AS15NOA5qjah6LaQcZ2QCEznwMZ1QnWV0F8B4dwI3ZatzDmFNQ3C0Rm6cxc0WxwgyQ77XBfXyCNHEmBtBZBHjuq1fJnBvKHFKnQUsA155BBRO0YiE00y5DgAkZALvWodtLg+Sj0WmmHIQTbVRGBaH5+6TkgbUR5I5zbjuqOjA/SarbCINCAh95SnvDoMsYJ+soxLoTaAHAa4aBearhNm82UGkwcaS2ATAa6PBPYrQ44pIJIrf1IBSyx4D0Cj7d0UMuSoY/OIPHJUr4Q/Pvw+MO1CW9R9YBHfC7JqLTR1meG4cR+YvHoE7gODjpVCEpgITO5zyiGdGwF7K8DSCpo3H37y9EGPMt8k31qnnlM3uQOf2khl765c/aA6D36+D2zi6DKyZgKbCHF9CKwXvgotbTJ0b5GyI5beUkhbFoT7ACyogUz5Xp3Hr5LMLJ3LgIQ+gN8NoS7008V6K+A+ChHXFb7q9bAm9FH3e5XLWVqfkrWUv1D5zBJhBCYYdCIpnRFX0ZrZD5kyChDJ6ohIDZbzYKVspckHtXJqlwc/u9QxcXQxgU0H95wEJpevwgtf0VxlpSXIOsqSDN1XrkweNe9h+H010NInK38dtR8yp9Rr1kOzd4Ygbxp0Y0g9GvyeAlgcbeGnW0VkHaW7lDWWgMNQcfViaPY20Bw9z5DulC/lR3n7XHug6YGb/HQHOVSJcC8qQXIL40J/wiWAawtbYpk+upjApkN8PgmsyOKrhrSSJw5ST+mqoNewT6aL+6TWkg1zHSq0YTzhD9wXJukYdCurGe5xhAWCbJjJ+IKyURtQdB2QvvcZt5PUBlbtyYGOgsiNjx+6pDxcIfU5/Lgo4EEvzJO84QBe0pGSk5zasS206QOMVWhzIT4fgQOLyzN+1d7rVSvgM8wYiXj+UBTAoMfIoLcOIz15/6B1bzBaYICuodgu54kcqCaQ8Pu/p0eVUJ4xlXcQIm/gqiPViZwTsApt7uAK5M5rYBNhPhuBTymg0nDO7qsKqMC14pEGmazcLtsAazoEXbgPBlChc1pLmuHGhiS3ComiqTyVZw1fuXK2boRJMdz4KL/RZJ1FTtit9O4pgqriSLTLarWpJpVaH2eUocoJpNYrodPlB5VPEmDLUA73DAe5ukFg3sQycWSdypoJbCLMZyVwcEfXtRu67yiElqkMLELxR4NudAIElhSiVC9VRhYaud9Rbmd1ZbKIhO6KSNJXEWiJBdJ7BMLeGXDuhIzvAOGtCriuJcfu5Be6FCBTy7jcMALragtMug9D8+RDWNIglctbD6T7pGG1Zc9S3wvvEUjln5qcBHig+ysAR08IOgOm+aB6DTu1M3FchWfNBDYR6HACq9hIiUOMdSK50nFuhPAWQMb3g7DYDHc10mWsVekCguHiwvhlTVf2zdC90JIC8ZVIva1aaexCk2N3LxFYBTSC7jkIjUwnq9cC8X0BMsxQVwGJwGTIUWTcC3b0MY6Wgq7lqT7uvdCsrSCQrK4P0jqcJLH0n4BmyYQkp/QWIqol4B5IKEkv/SehJQ6B1JIBdRuJvVKaOLRCWTOBTUQ5RGAynEgYBtAPEdi5xSAvEdq9FzpJTEd3dYxkxBI07JOF7oF0bYVIGK7CnZAkFuRbOugXuvo7yPj+gE6RGSi0ChFYQncfgpbQB3rlGoiEvoCvANoZjt3bn+YXWtc9EM5NavMLWjKEh+rUEX7nRmhJAyH9NareloRLoEtvwByzPXTnJliTR8HvO6k2z7S4AZBkusl+oU0cWTGhQrdch+5BeMMJrCUOg4wfZnjcqN4IkTQU0rUdfl8lLMnj1eUDOr4B7IElroRPs8FCklpdSig1NqXCCCwrlxm3i/xuIzaSclerG2ou+aAmr5QJ/aCRIcc5/UJTVIZSwLUNUksFvIehURQJSwakrIasWAaKKiFdOyBsORDuo0DyCAgtHcJ9ENK1xZhI6NgpaRSke5dhC82GHKaTmCWwiRCH+8RSDu0ShilzRUFWUY4s+IsWQ2t1G+A7AVG1HFKLh64lQPe7ILyHYG11D2T1Tggy7PAXqRhFSLok4B1SAlXLgMQAgZUENpzFC88hII4k8CqIxP6GJdZ5COynicV7GEKLUxOJsLWGt2QxROb3IEoXKg3BuNmUqNzMaiIZnsq1sLW6HqL8S8iE/pCeAxDxgyHdB6AxgU0cWTEhgaPSviYt5EwCD4RengfN0ZF2eqBRMDFHN/gqlqj1I0laOvel8J+eipWwp4yEdO+DJpKgU6hQitKg7vDaoUsdmvM7RRz4nYDyWRXYxXYTgXvCX70aGhHYU3BeAkvfSeV2R1D4Ut0N2HLgL/8SIu1aiIovAUcXZS0mtEQImgwsadCr10FLvx4oXwTEDwRo8yuxv6qzcmrHEtj08ccS2ESITycwhRftC1R8B5C9sL8UIJc2ZH9cswMiaTwkWWEFQnjSuSpZS6rzVXU8ZIW0JCh7aeO0R0Jzkmo7IEDgKiMYN1l4kemkZg9cC7xMrWfPJ4HDCQzSAOxtoVcugUi9Bij/ApIcyisCU3xiK4QtQ0U/1FKvgSxfDJDKrQg8gAls4piqnTUT2ESwgwSGl9zKDlc7xpLUXkcP5URO+W6mIxjPYeXiVRIBaJ0bMooIhuWl+L81kLbWxmUBtTVtAaq+BBKHBta/lYCP1tB+dS4r3fkQ1Tuhp42HRmtiQQ7ljWMknBEbidbAJ43yKYAamV7a20JWfRUiqO7oqjbSNDpXJglsS4detREi9Sqg/EtAqdD50BIHQrr3swQ2cVzxMVKUwD07gburXVzh6AHpr4R0HwGSLoWmU4hQCqNiRF6Q5MpG3SDSAOduo9aJlwQCfFMIk68hEvqpINzwHIckZ+0UHoXUXEu8uo0kk8dCIwmszCaZwFHq+qgVwxLYRKjPIHBiX8jKbwBHd2gUHUFtDFUDZBgRPxgaWVYJsoUm8vqVxRQ8BRC0ceU+ZoQPpbWyspkWkDWrYZECfrp4X70BFjoyIudy+kkjxnDlesjkMRDeo0xgE/u5KbNmApuIft0E/hZwdIPQSyDs3QwTSvKYkUAS2BWIg0SV8kEnowsyinB0hfCUKgLTMVLQ/FFZZxV/BmTdDN19GP6aPbDSjjUZYmgW6GXfASmjlOVU00ng2+txEdHEToj5rC/sOJUJbGIHn53AZP5YHCIwbTJJexel8pI1lnq8VdCyp0O6tkGQnyp/idq4UvF3A9EJKZlONsfuYtjSJwBkv+w5CEkBxJU72T3Q08apNXDTEZjDi5o4xPhCv5ng1pvAXpLAowzLK1J+hQeydAlExlWQ5GOZbIwpfi9ZWikJHLwVRDvUXsiaNQB5nIzvoXa26VK/FFZopZ8DZDvtPXH6Jpa/2HCpEwrwHdzEOgQhEnkTy8xBEeG8WQJHGNDw7OpDYN1fCY0InDja8CSpNq+8kKXzoYUInAXayT6TwGSnLKALtyKpXrMHWuD+rka2yqRWp02BxX0IUm2M2dXxktpAq5PAvAtt4nAwJWsmsCmwGpmek8BqE6srhL8GcO8FkieGLjCQCoyS+QEJvEXdQhIBU0ooFdpixAj2lxnHUEI37KPJMaS6CEHXhAVk1Wrj8oProOEggNzthNzKtgPOkMBMYBOHgylZM4FNgfV0AlPkQaECfPeHrFgO4egCIasg6c6uSFVxfEXyWHX8o9aqZBNdOg9Iu0q5p4ElS4X4VPd6Ayq0OmiikCfK3xW5vTHK1MiLBp0GK/sPAUt8LmTVcgh7VxXjlxy3K5NHR2cIcqkTdCvL58AmjgTzsmYCm4dtSAJrFF9X2UIPhiSn59YMwJJg/DtlgrrCR4G9oWVCkIpLLl7p+mDqdRDuPMDaGfCfNC7ik+EGrXHpP08JhAzG/lVRikJEVnubfj2WI0QAACAASURBVB9071Hl4xm21spghHa0/TVbocX3hka+oQMbYmzIYeJAMDFrJrCJ4AZVaAupv3QbKWGICmuiE5HiB0FUfQvd1g4aSUnapCLpqUwp/ZCwQ7NlQS/5CCL9KhXTV/q90Mj2WV0N9EP6yyDoFpJSvsOdzqn9aeMur9QgyaijZpcyf6S7xtJfBI0MQsibRsC7R4jAZARClli2NmexxEpQR1RsiWXiwGlA1kzgBoDV0KSnCEwS+FKDwNIHvSrPCLid0Bt+1wbAVwaLozcEXYYn1dfvA+CGv2oDrIm9oVMco+p1kAm9oZE/ZyVrydCjEoLuAit12Vj7Kn8A9IHuND73VEP37oLm6AFBjtrpqh+Zcjo6BC7zG7mdncBXQydbaFLBfWRKSfbYZAudxqaUDR0QJqRnApsAajDLIIFJhaY1sEwg9dcC4a+CXvk1/BYbbEkTALoMr1dAyppQ/CEpEgEtTXnjoM0oek9LGhFYsxqk073HoHmKjE2sWu1QS2llOhmv3N9QUG+9eiM0R2cgrpcKvWJ4uzRUb91XaFxGIKlMkwLZQlcuUbbQekWAwB4jUBp5utSsdJlhE7S0q9RlBpFAlxjy1aUGdYOKL/SbOLJOZc0ENhHmU7eRStVlBiKw4cWRKOOCLF8JkKsa8qXsyDYu5FN0P5KImgWa3wtv5XJYrFkQqaMgpD1QW7p1RLvc1RDkTkf52AqjMO1Iq1AqFrVWRs126J7j0BIGQCPPH8qNzukxFnTfCSNqIXnjINc+dMxUvgAi/WbIks/gj+8F4QncRgqo0P7q5bCm3QpZMQ+IGwRQULXEIYArH3Cugt+axaFVTBxfSuPi4GbmIRxOYOUTSxFYU0dApALTWa0kO2VPgbGJFfLtTE7fSdjGqWt9wta1FumIwDqkdz9QvS/g+jXgYF05YKcLETp0v1CXGijgmHC0M0KHKt6e6U5Wpx1qH9lQ20nvhrBmKY8hkqI3OLcB9tbK7NO48K8DlhTonr2wxA+FTqFU7B0AXyGEoxPg2g5RtY7Di5o3tEI5M4FNBDmkQtMxUlJQAgfi8ZJZZGDRqvwqK5+QtIEVfOgzugJIDt+tAQl7Smqqc2DDhV1gTRz+btCdpZoFQgYigfgqdbSYSqZyDP/RhmcPDUL3Gt4yAxOLKjLgZ89YbJO2QITX1bmzFvgtlVM7Dq1y/qF1YXbQLIHPj/AFpTiNwLQGJvWSiEK3jGqR9VRBAfJRFEG6zKAIWP9HSV8iFnm+1IhYdmihte7ZohsZGgERUtAtqKCiHpwkjJkmMFFQlSjGEk0qdYR8Ycfu9e+sCKS8YAmsDOzVus74zU8YFSWgl74NTRlykFvZ/pCuXZCe4xBK0hnRE4wnTLoqMWcz7vTG9YIgh+51hhYLOY4O3B+uAOhuMbl5lR46CDaMQyjWUlwPFTvYcHdZB/HIXSwF9laqfMCaK9yxvOEWJCCCaWKxQlAsJEsrY9c7ENhMFaAiM6yB35YFa/rtdZbH48TwqnKhnGkwgT0eD7xe8vxguHtJTU3FhAkT0KpVqwuuTMvp1IBRBdGKXMbqHrWbTAGwJZlQ6k7jttBZCEw4KO4IYfjJ0uLqcSWPZosa5aIHVJ56SAKTQwC7coxHBiBqw6suApP1F8URpiuNAbe2p22MBbmr6mYQliYWFdQ7NAEF8qZzb18pJJlt2tq1nG41oSUnT57EsmXLUFhYGMo9Li4OFgttNJ7/aTCBa2pqQCSm2eOOO+5Ar169kJGRAbvdzgQ+K95nRvOrLXVPf1XtHRu+sJRPrDDpd64+DU+nilQKtXrf4Gwwr7pU37AaBZbCZ9enGrJ2a0ja8w/YlpSCOETCsKSkBBs3bsRHH32kmpeQkACbjZwbnv9pMIFdLhfo59prr8WUKVMUcet+uOPODz+nYAQMBEgoLl68GJ999pn5BHa73fjtb3+L9u3bs9TlEcgIRAABksYkhd977z0lIE2VwG3atMG9996LzMxMJnAEOo+zYAQIgaqqKkXgLVu2mEvgHj16YNq0aUhPT2fkGQFGIEII+P1+ReC8vLyWQmBeR0dobHA2zQCBFkjgZoA6V5ERiBACTOAIAcnZMAKnEIieFsgE5nHHCDRjBJjAzbjzuOqMABOYxwAj0IwRYAI3487jqjMCTGAeA4xAM0aACRxznRe9HcyYazpXqMEIMIEbDFkze8GE+SASd1KbGYoxW92LiMAmjOSY7VajYtJXDHIiJ8iDZR2X+9WFf+UsL+gb64zbvKc+CLsnSPeFLel3QSgPG/w0JQIXEYGbEuamKVu6tkIvnw/h6Gt42VBPkInk1YN+DBKry/bqn1L5qjKcBwQ9VwY9gZD7Kwl57C+w9PhUOavjp2kRYAI3Lf6mli5rNkGvXgn4nEA1+Yk2PHoQCVXco1b3QlSsgLBnK+d4etVKCEsKtJRJQFxP6O4DkEWvQpDr16DDkIRLIMh1bO4CJrCpvVe/zJnA9cOpWaYKElhYcwB3AQAfdPIMKaywWLIg4/sDZR8CFHVB+oDyTyGsHYHMqdCtraAXPA/EdYRFJASiNwDS0QZawdOAIjB5n+SnKRFgAjcl+iaXHSJw0jjy3wC9dAngy4c1815IWxrgr4Is/QAgx+1E4LLPIWxtgczbIO0dISu/gIgfAEGhUchPFvmmJp9V+6YDufNYApvcf/XJnglcH5SaaRoisApDmnoz9LKPIKvXQzjaQ9g6Q2TeqWIMy9L3AUc3wHsSesUiaPH9IdJuhIzrBFmxGCJ+CKS/BNJXYPjbsqZCO/pnIHc+hBbfTJFpOdVmAhs+U1tOj4a1xJDAq6Gl3gJZ+h5050bAkQOLrTtE1jRI1x7ope9DxHWHXrMbsvJriIybYUm8HLotG6ik+EXDjNjD/jKVs6RIhPm/hGAJHBNjhgkcE91gTiVOJ/Bc6M4NEI4caGcQuAeklmAEHLP3hEgdA1izoVctgpYwAoAN8FcbHitFHLSD9wG5n7MKbU63NShXJnCD4KorcexK8FMEvhmybG4g0mAOYOsGLXM6pHt3aA0sLXbI0nnQLJlAxk2ANQf+E/+AljQKWvKYQOgU0lU0yP13QPTgXegLHjoRyIAJHAEQYzWLcAmsl8yG7lwL2NtBo5+s+xSB9dK50Bxdlc9uX/kHsFjbQMv8PkT8QPjLF0JW58GSNCoUUlSFLz3+GBM4RjqdCRwjHWFGNRSBq1ZBS7sFsCRCqsBiFHXBiGKoAo1ROBUjRJk6ZjKss2wAxTKinWn6UaFF6QnEOto9OXAOzMdIZvRbQ/JkAjcErWaWNkhgkXodZMk7QFxfCFsGoEtlYmlRn78HoY6RdMjSjwFHa4iMGUB8d+jOlRDuYkDTVLgW3bUdWsbNEPvu5nPgGBkLzZTAsbvujJF+NXaMg5ZYfgm/awu01O8BFgeEvQdkVR60hL7wkwodlwtBO83ldA7cHsigc+D20Olv6Yd05kEkjoSs3gnNuw3wuVkCx0hHN1MCNyV6zWfyCK2B7bnQKVhZXHcjkBmF89RJNbZBlrwN0JERBep2boYgq6yM2wBaF1ctgvAUQ9bsBlJGQnqLgYovIXyVEOocmFXophyJVDYTuKl7wMTyDQLnQdi7QwgNUksFqr4FEodDOndDpF8JWfGFMvCA5yA06YaI66sILOK6Qq9YCOErMQicPArwFgGVSwBveSMlcPOZ/EzslohmzQRuFJzNYyCGCExrXGhKPZau3UB8LmT5MmitZkDq1ZB00aH8SxXrl6S0yLgdIt4MAjcKbH7pHAgwgVvw8AiaUsLWCZLWuN6TQHxPwJYDVCyDyLwN8B5X6jM8BZCeY0Bce2hxgyCsiSZI4BYMdhM1jQncRMBHo1iDwCsBe0/otF4l22ahQ2o5gPcotNb/BVnxFeA+BB1ewN4WcG2Hte3jAEnmikWAn9bAeyCSR4ap0BVsShmNDqxHGUzgeoDUXJOcMuS4QZ3/+svnA77jSk3WkicD0gW9cingPgipC4jE/tASL4WwpCrVWvfsgfDXQPecgOboCPid0F37YCl9HchdCCH4Qn9Tjw0mcFP3gInlB1VoXUuFqNkGAZ+6zI+0OyDiekOjXWjphfQcgqz6DkgaBs3W2fDe4Ttp7FDrXnWHmHanRfIYCGsmsPMKtYmFZrkL3Tz2L+o7LJjA9UWqGaYLSmBh76ZUZUFSFR5oaTcbx0ZpN0GWL4S/ehVgSYAlcRikcw9E6/shfKXQi14x1s1aHPy2VEhPIazZP4V24EfNmMDNsCN5E6tldVp9W6MI7MyDZu8E6a8A/DWGOSV54nDvBxKHqXvCQi+HoCMmR1cILQUyoR8sEtDLPoe0php3gUUipGsXhL8YFjpWYpc69e0GU9OxBDYV3qbNPEhgYesE6OWQzq2QZKiRMBDCtQuI6wVZ9LqhSgsHpF4FYW0NLWU8hL0T9LLPAEdn6K6dEDW7IOGCcO+H0P2NPAduWjxaYulM4JbYq4E2nU7gMqB6M3Q6QnJ0BTz7IZLGKad1mrBDkotYvQbC1gYiedxpBIZzPeDaC13oAQLrTOAYGTdM4BjpCDOqUZvAsnITJKqB+JFqx1kIC/QTL0FKH7SESyDdByEcmRCJo5XaHZTAUndCVi8HfIWA+wA02rFmU0ozuqzBeTKBGwxZ7Rdid1ezNoH9NdthybgL0LIhrCmAdCv1mEgp/W5AL4Fmp93m0YBeqdbAyuhDrwSsGYY7HXcBtJMv8m2kCx43kcmACRwZHGMyl1O70J3U5pO/ZhssOY8ZXiaDara/Anr5F4A9G8J1CCK+n5LOkiyzyhcAqZOUTyzp2acMOrTMuyH2XA+R+znATu2avN+ZwE3eBeZVQJ0DV30LkXItYEkLRFqgCAzk4J0eqTxxGJf5yeUV3fQ3NAr6Rc7eT/f3F3hv301AD7qNxIYc5vVe/XJmAtcPp2aZStbsgH78rxB0gUFFZaj1BKMthH8cdNAZZHXwu7C0QrMAPRdBCHYr29QDgwnc1D1gcvlmRBJUMlsasZT4aVoEmMBNiz+XzghcEAJM4AuCj19mBJoWASZw0+LfyNJj9+iqkQ3i185AoH59zARulkOnfp3bLJvGlW4QAkzgBsHFiRmB2EKACRxb/cG1YQQahAATuEFwcWJGILYQYALHVn+csza1z3Tpb3pE2IFs8LNgRrW/C/+7sU2vq9zG5sXvXRgCTOALwy/qbxN5Xn3tdWXhSPzVNA3Dhg1Fnz694XK58MEHH+GGG74Hj8eDDRs2YeLE8cjLW6NMJgcPHoTZ787BjLunn0b6+jaC8igvL8NHH32Ke+65u76vcToTEWACmwiuWVn37NUPD//6l4rAhw8fQVFxMR74yX3o3LkTZs58BH/96+M4fPgwnn32n/jXv1/Ce3PeQ1JSEiZOnIhBg4Zgx44tjSIwtWf37t24+prrsXfPDrOax/k2AAEmcAPAipWkAwYOweZN69RlhJKSMvz+9/+DoUMvwe2334bjx4+jU6dO2LFjJ5577p/417/+FyUlJXA4HEhMTESv3v2xY/tmOJ1OFBeXICcnBzab9QxCk7SlNIWFJ5GZmYnk5CSVZs8eIvAN2LN7u5LqDVHRKX1FRYUqt0uXzmeo/7GCb3OqBxO4OfVWoK6nCGx88N+/+wM6dmiPadPuwvQZ92Due++eRuCXXv43unfrigkTxqNvv0H44//8Dq+/8RYcdjsyMjJw//0/Vmp48PH5fJg9ew5mz3kPcXFxcNW4ce+9P8RVV03GoUMHQwQuKipS+XTo0AHXXD0Fv374UTz597+qiYIG1tfffItdO3fh7run44kn/oaDhw7B6/Gh2lmNtm3b4okn/ozMjIxm2AOxU+UmInBzN0Ro2voTgb9b9jV03Y8vlyzFk0/+A3/4/X9jypTJGDhoqJLO27fvCEng3//hj+jXry9uvOF69Os/CD26dcfb77ypSPbW2+8gJSUF3w9bF+u6jvzDR5AQH4/4+Dgcys/H44//Fb/73W9gtVgUgdevW41XXnkVJ4uK8OgjD4NuKN5yy+14b84slZ/fr+PTTz/Dho0bMfNXD+Fn/+9BDBk8GNNn3AWaICg/Wsg/8/Q/Gq3Oxw6Nmq4mTUTgpmtwSyi5S9dcJCYkKgJkZWXi1zN/iauvvkqptPUhcN7qlSGV+NXX3lCE+tEP71EbYvRQPsXFxVixcjU2btyopPNbb83CY489DLvNhkmTr8EjD/8aK1auxP+++DwSEhKUun3zLbeFCEyTwCefnCLw/ff/FI8++jD69u2jyli1Kg+vv/EmXn7pBSbwBQxKJvAFgNdUr9ZWocPrEfzu7BJ4MHbu2BJ6hXa0DQL/QBGYyFtVVYXrrrsRQ4Zegmuuvgrr1m/A3Lnv47XX/gO7zY4pV12H7t26Ibt1Nn5wz/cxbtyYEIHnzH4HqampKs8PP/oYW7dsxa9//Sv8+Mc/wW8eewT9+vZVZeStWYNXX30D/3r5xaaCsUWUywRuht1oJoEJjvLyctx625347NOP1QbXnj178cijj+FPf/qDksDX33AL1q5ZiSVfLcWXXyzBLx76L+S0bq0+f/ON/0N2draS4H954m9q95s0BCawOQMtKgSuqalB9+7dMWPGDKSnp5vTkosoVzMJHNx9/vl//QKXXHIJ4uMcOHrsOObPX4hXXnlZEZiOkWgX+siRo3jyyaeQ1SoLP/vZA/jTHx9Xu9qZmRlwu9349ttlyM3tgZkzf4n77nuAJbAJY5QIPGfOHOTl5cFut9erBDFz5szaDlfO+WJ1dTV69OiBu+++mwlcL4jPnejtd2Zh2l131pmIvrvrzjtQWlqKDRs2YuLECVi5ajWyMjPQrVs3vP32LMyYMS307rbt2yF1HX379g2tRWlQbNy4Sf0QoXv2zEVZWTlGjRoJTRP4+JPPcM/3Z6g8tm7dhqNHj2L4iOEoOF6AVavz4PV4kJGZgV69eqKivAJDhlyCJUuW4tJLh6ojKXoKCk6Ayp44YXwEELl4s6C+evfdd7F27VomcEsaBhfqSifcJLO2+eW58lZO8sLOhyNhutmS+iXSbWECRxpRzo8RiCICTOAogs1FMQKRRoAJHGlEOT9GIIoIMIGjCDYXxQhEGgEmcKQR5fwYgSgiwASOIthcFCMQaQSYwJFGlPNjBKKIABM4imBzUYxApBFgAkcaUc6PEYgiAkzgKILNRTECkUaACRxpRDk/RiCKCDCBowg2F8UIRBoBJnCkEeX8GIEoIsAEjiLYXBQjEGkEmMCRRpTzYwSiiAATOIpgc1GMQKQRYAJHGlHOjxGIIgJM4CiCzUUxApFGgAkcaUQ5P0YgighEhcDk9Juc2rFXyij2LBd1USBABJ49ezbWrFljnlM7CntJBJ42bRp7pbwohhU3MloIRMUvNBM4Wt3J5VxsCDCBL7Ye5/a2KARinMBNGwWwRfU0N6ZFIhDjBG6RmHOjGIGIIcAEjhiUnBEjEH0EmMDRx5xLZAQihgATOGJQ1pURr+FNhZczR1QITOFFc3Nz+RyYBxwjEGEEokZgMuSYPn06G3JEuAM5u4sbASIwxQcmSyybzVYvMBocH5hNKeuFKydiBBqMQFRsoVtmgG9e3zZ4tDXLF2K7n5nAzXJQNedKR5MQ0SyrafqECdw0uHOpjEBEEGACRwRGzoQRaBoEmMBNgzuXyghEBAEmcERg5Eyig0DLX9M2FEcmcEMR4/SMQAwhwASOoc7gqjACDUWgWRFYSlKhAJ/Xje8WLcSOrZuRGOeAEFYkZ2fj8ismIrNVG5VGCNFQLED5N+a9ugoK1rWhdWnsew1uLL/QIhBodgR+5ok/YdfGjSgvKUJVZSWS7BY44hJhccRh2KA+6DNgMMZOvQsQGtG4Xp20aNFiLFy0GA/94kF06ND+tHcaS2qXy40FCxbgP6+8CotFw2O/eRQjRgw/b32ovKNHjykHZbt378aaNWvx05/+pE6HZY2t23krwQmaDQLNhMASut+PX95/L/bt2KaI6/R4kZqagpHdO0P6dLRt3xFCd8Nms6Jd1x647M57EJ+UUi+J+vjjT+DVV1/Hp59+hD59eoNMP30+H4qLi9GlSxfVmbt370H79u1UfvHx8aiqqsLx4yfQuXMnaJpAaWkZiouL0L17d1itVtAFjiVLvkJlVRX69O6NDz/8CHfeeQc6duyAEydOoFWrVjh85Ci6d+sKi8WCAwcOIjk5GVlZmZj17hxkZWZg1KjRIH9iyclJsNttqmyqW1xcHPLzD6v3ghNOpDSHZjNyuaIKgWZBYK/Hg4d//lN8tfBzCIuGzPRMwGJBx9bZGN2rJ1zOKuwrPInSinLEJyTBVVmCgcNH4ye/exx2e9w5u/r48QJ8/PEnKCoqUmS97bap6NmrH8aMuRyapinyVVZVKkKvXbsOBw4cwIcfzMWDv/gVRo8aiW+++RZdu3aGplkQnxCPvNVrsGrVd3C73Vjy1VKQGSkRc9XKVfjgw4+QnZ2NPr17Yc3adRg3bqwxwUiJiopKHDt2DD//+c/w3HMvILt1Jvr3H4DSklJYbTaMGjVSpctbsxZLv1qKHrk9FLm7dOmMRx95uF4TFY/5lodAzBOY1MR3X38drz/7FLw11dDtVrgtdiSlpKBDVibaOizo170Lstq0wqpN21Hh8iHVLlBaWYHrpk7D5TfcCovVWmfPUd7vvDMLe/fuw5ixY/CHP/wRn37yIUaMvBw7tm/G/AUL8fzzL2DaXXfgyiuvRFpaKkaNHouePXLx7/+8pEg9d+778Ou6Ih+R+9tvlyH/0H5FrrlzP8Cbb72Nfv364v77foyfPPAzfPjhXGhCgKT+ofx8tG3TFh6PRxF94sTxGD9+HJYtW46srAwIoSkVOjU1VUn6l1/+N95663WMHHU5tm3dhO++W44VK1bigQfuR1JSUssbndyi8yIQ0wSmLStndRVe+NsTWLN4Adq0SoOemAlvSgbatW2F0mPH0TU1Ho54B5ISE7Fu+1bECw2Thw9F4ZHDiMvpiGE33IbWHTrXCURlZRXenT0bJIX79+uL+QsW4Z577sYPfvAj7Nq5DfPmLcCsWe9i9OhRyGmTA5vVisd++zvcPeNudOzYXkncZcu+w7q163DDDdejT98+uPfe+7Fv707U1LiwdOlSeDxeXH/9dar8CRMn4eOP3kdxSSkeeuhXuO/H92Lz5i3IzMpATk4OPvrwYwwaPBCdOnbE4cOHkZmZiYMH83H//ffitdfeVCr6Y489iisnXY3H//w/2LVrN8orKvDz//dTOByO83Y2J2h5CMQ0gQnujevW4Ok//Q77tm2DLc6KxI4D4EhKQae2WWidlorc7FScLC1Bl1YZKMzPR2nhcQy4ZBBqikpwoLAEfcZNwtgbpta5n3WyqAg7d+xE9+7dFIFoHbp5yxZs27Ydj/3mEWzfvkNJ54KCAhw9dgx+nx9Ll36NDz6YoyRom7ZtkZ+fr9TY5KRkJUWrq534/e9/q6Tznj171Rqlf/9+auS88OJL+NEP74Hfr+PZZ59Td6NpPWu1WlBaVg6v14urpkxGQkICPvv8c3Tp3FmttydMGI/7f/JT/OynD6i83n//A7UGpvufgwcPwmWXjWYVuuVxs14tinkCb1gwDx8//w9sO5yPQrcPWQPHwOOtUYO9datMjO7XA63SU3Fs1w7orhoMbpeJPiPHYNOKtVi9aQuGTrgCV/74/nqBUVciXdfx9juzlJRNTEzCkCGD1fr4T3/6i9qs6tS5E26/baqSlrSpVN/NJMqXwA9ewvZ6fWq3mtbdtZ+169Zh2bff4c47b0fr1q3VcRe9Tw+Vyc/Fi0DME/jYvPnY/+KLcNc4UeMFZrXtCKe3EmWVTrRp2w4j+uYiLd6KsgP7caSkDN/r1gFZA/uhYMMOrN+zB/3HTcCkH91f3xOlM0YCkWXfvn1KEgtNYPy4cYqkX3/9jZKyXbt1RW6PHvUmbmOG2pEjR1T+pCUYhGWTwsbg2BLfiXkCVy79FtUv/AuJ5ZWoSozHLzUbMtunYM2WXejYqQu6ZKfBV12GguPFaOd14770dBS7nEiMi0OZ3Y7WV1+D7jfd2mgCx0qnR/LMl41FYqVXL7weMU9gd/5huF74F6zr1+NTiwdzNRtS23eC3SZQVFKFNhlJsLjKMcil4zJhRWvhR0mVGy4AH2g6rn3oFxh42dgLR8qEHIJEOp/aXZu8F0rmcAKTcRudY/PTPBGIcQJL0H8l//4/VM6ZDY+mQSSk4L80O1qnJ8JmEfA6qyHLCjDdmoJdzjJUWYEu0oKeFjvWd++Ku/7+NGwOe51WWcG1pMfrhc1KDsF06LpUqjFtJNFv+qG1LqmuLrdbHQEF17put0cZjtBD6Ui1dTji4PN6yZZTnQ17vZTGZrzvcqk1rtvrwaefLcTgQf3VZtTkKycqFZmOk8hgo6bGCYvFhuoqJ9Zu2IDt23biyivHq/NjMgx58unn0KFtOyQlJ2HqzTdQUaA1NKkZcXEOlQ9tlNHmWHCdHSyfypHSjzfefBfjxo7BwUOHMGXylWpdTe2h35QHrbGD7aM6U/soT6qf2+NRm2+WOtbrsUODi2OZEeMEJkpIbP9yCRb//e84um8vvHHx2NG9P4T0ol2KHVpNGfYfLsBAH5Ag/ND8UhlQZqWlodc9P8CVM75/1vUpdfGWLVvx5VdfY+yYy5T1VFWVE5s2b8YPvz8DW7Zuw+69+zBk8CBkt8rC5/MXqXV329ZZyqJq1uz3MHBAf0XYvfsOwKfrmH7nrfhs3kJ1dtsztzsWLFyMsWMuR2ZGOj76dB46tG+r6pO3Zp0qkww4hg0bjFaZmVj4xRIMHjAQH3z0MXrl5mL8hLFwuWoUkTWrFWkpKdi0dSu6d+2ijrSKi0tQUFCI1LQULPtuOSoqqjHzl/+Fd2bNQVFxsSqrsLAYo0ePRO/euXjrnXdh0SyYftdt+Pcrr2PK5Ctw8CAReJKyLPvk03koOHECpirhJAAAIABJREFU9/7w+zh46DC+XLIUgwcNUIQ+lH8Ux44exbhxo/H5vC9w/fXXYmD/vrHD14u0JlEhMBGDTAwbHeBbSmx8+RWsev5FFLi9WDmwP2qqyzEkyY6OKQ58tHY9RkkHjldWAI44tEuMxzVTb8aoR/8b4hxSwuvzgc6CrRYN69ZvRFl5BSZPmqgk7qefzENR0UnMmDENJ04UYtHiL/C9712D7FbZWPbdCnTr1gWpKSmorqrGF18txZBLBqFrly7Iy1ujSD9j+p0oPFGI5OQUNTHQTvKAAf2VSeZlo0fiyaeex/euuxq7du9FamoyrBYLevXMxV//8QxeePYfipwH8w8hzh6HFatWY+TwS3Hk6DFMnDAWL7z4Mn5y/49x6FC+muBoQiATzJf/9X946MGf4d3Z7+PKK8bj48/m4dabbwDZZdNE0b5De+zetQf9+vXBU888j9um3oQDhw7hqsmT8MWSrzBo4ABlwrl2/SZlRfbrXz6I7Tt2YvWatZg4fiw6tG+PlXlrcMnAAXj2ny/iNw/PvEhpEzvNJgJHIMD3udWVC48PLCF1ia2vvY2lCxZhlcuDKrsFHbUaxDsrsXbPflwXl4IuDhvQtSvaTZyAYT/6McR5jljI2GLn7j0oKy1DSUmJUm9JnbRaNXw+bzGqqioxaNAARQAiS26P7krFLi4phiB1NT6OrBuxZ+9edWablpYCP5lcrt+IW6fehNWr1yIpKRH2uDioqxWawFtvzcKf//h7/PVvT+Gaa6bg4KF89OnTS00KN990PWbNmoNbb7kJxwtOwK/7kZ6WplRX0irWb9iIW26+Hu+9/zEGDuwP6BLOGqeqE9lLz/3gYzw88xeYM/sDXHHlOHzyyTzcOvVG1LhcKv9ePXtiy5ZtuOnmG/Dcc//ErVNvVir06JEjsWnzFqSkJCMpMUn9/mz+Qoy9fDQKC0/iYH4+Rg4fpgxM1m/chN49e+DZ51/Ebx75deyM5Iu0JlFx7H7hBDZ6h9Zne9asxdEDh7F05zbsWrMCdncNykpLMbXvIEy57DKIPn2QNXqUItj5HlrXnSwqVuTVpUS8wxG4nKAp1ZLWldVOIogfrbOzFZEKCwuVVCdJRd/7/H5s3bpNnc+mpaeiZ48eitA9unfDkSPH4PHSutauLiEQGYkMIy4dhtWr16gzZPq8U8cO2Lx1G3rl9kBJaSmsVhvKy8vRtk0OiotLFZFbtcpS30m/RGlZmZoYyPqMOpDqSOaib739Ln776ExlkEIq/r59B9CjRzdVxyNHjqr0Bw4ewojhl2Ljpk1qQiLJTAYltFghqU/r6IyMdJUn9RvVnZBMTklGSkqKan9GRgY2btiIYcOGng9i/t5kBCJM4LolcaQIHMRC9+s4euwIjh4+DLumQep+tMnOQesOHWFRG1YX/hBpjh07rkhAllrZ2a2wft1GWKwW9MztoSQeDXbaQFq5cjXatMlR5A9/AteXVZrgBFR7x5kmpZ27dqsLD0TYugw5Qu2WEsePHVflkZSkyxB2mxWFJ4uwfftO2Ow2jBg+7KzGHY3fvTbuYTf7s7gLHxYxl0OECVx3+yJD4OjuKtJgJztm2hFOTExUO8llZeXKWoouDoQT0emsUTu+JK0a+lA5JIUpf/o515GSsWvux8mTxWr3myQnEZ7qSWacJJXrG16jofXk9LGJQDMicGwCyLWKFALRnaAjVeumzocJ3NQ9wOUzAheAABP4AsDjVxmBpkaACdzUPcDlMwIXgAAT+ALA41cZgaZGIOYJ3Pijj6aGlstnBMxHIOYJTMcjZKfLDyPQ0hEgA5mGHgNGmMCRN+SgCtIPP4xAS0fgfHYAdbU/wgSuG+LIGHI0dffxOWVT90BLLr+xS0UmcEseFdy2Fo9AjBKYpV2LH3ncwIggEKMEjkjbOBNGoMUjwARu8V3MDWzJCDCBW3LvcttaPAJM4BbfxdzAloxAhAkc+XPglgw+t40RuFAEIkzglnwOfKFQ8/uMQOQRYAJHHlPOkRGIGgJM4KhBzQUxApFHgAkceUw5R0YgaggwgaMGNRfECEQeASZw5DHlHBmBqCHABI4I1Gy7HREYOZMGIxAdAjvdaJPVBfc+MANZ2RkNriS/wAgwAnUj4Pf58Z9/zsambWuQnFE/v+Ri5syZQVf99cJ175oydGjTHY/940fIbssErhdonIgRqAcCPp8fTz82CzsOrUWrjo56vAE0mMC7V1WgY5se+O0z9zCB6wUxJ2IE6ocAEfipx97BzoNr0apTXL1eYgLXCyZOxAiYjwAT2HyMuQRGwDQEFIF/8w52kgrNEtg0nDljRsAUBFgCmwIrZ8oIRAcBJnB0cOZSGAFTEGACmwIrZ8oIRAcBJnB0cOZSGAFTEGACmwIrZ8oIRAcBJnB0cOZSGAFTEGACmwIrZ9o8EGj+l1CYwM1jpHEtGYE6EYh5Ajc26FPz6u/mLwmaF96xWdvGjPWYJzBFNqQfIURsos61YgQihEBSUhIsFkuDcot5Auu6DvrhhxFo6QgQeRsqqGKewC2907h9jMCFIMAEvhD0+F1GoIkRYAI3cQdw8S0BgabbhGQCt4Txw224aBFgAl+0Xc8NbwkIRIXA+dsr0S6zO379xD1ozU7tWsK44TbECAJR8chRWeZEl065+OF905GZlR4jTedqMALNHwHyC/36v9/Dhs15SEi21atBDXZqV1NTg9zcXEybNg3p6UzgeqHcqERNt5nSqOrySxeMgHLsPuc95K3Jg81mEoHJkqpHjx4RI7DH48HcDz7Czl27cfWUSRgx/NIQEHQQXh+TNEoT/tTnAD38nbOlD6YJfl+fd+rbi7XzNvu9+ubP6ZoOgehEZogwgb/86mt8990KTLpyIr7+dhmuv+5q9OndC/PmL4LH68VNN3zvnIhWVlRg+MjLoft8gCbwm0cfwfTpd6l3wokZnAjCSThg4GBs2rgBUuohs7dwYtG/h106AmvyVoXq8Nxzz2Pw4MEYO3ZM6DOyLqOyahO99sQQnvc111yLd955G2lpaedsH+WtaVoozQsv/i86deqEKZMnwWq1qgmOvv/yyyXIW7MWjzzya5ChavDzphuOXHJDEWiWBH7rnXeREB+PAf37Y+XqPPTq2QOdO3dSBPb5fJg8aSI6duhwVklMA7Ww8CQ+/uQTjBkzBhnpaTh+vAAERnZ2Ntq0aYOdO3eCZLSu+yF1qYjWs2cPDB02CrPffRs1NS60bp2N1NQUHD12HM7qaiSnJKN7t24YMnQE3nrzNfj9PnTp0gWvvfYGBg4agA7t26NDhw7Ys2cv3G43kpIS0a5dO1RUVKKkpASkWeTm9gDZxBIJS0tLcfjwEdWnXbt2we2334lZs95GSXEJEhITYbfb4XDY1aRFdaypcaKsrBxOZw0yMtLQrVs39e4LL7ykCDx48AAUF5fC63WjVatsJCcnqbIpn/KyMpRXVCI7Owtdu3Zt6Dji9E2EQLMk8MmiYrz9zmzYbVa0bdcWE8ePw9JvvsWKFaug6xKdO3fEA/ffe0670hMnCvHRhx9j7Lgx2LxlC+Z9Ph+lpWWwO+x47dVXcNXV12LSpCuRl5eHQYMGYcuWrfjbXx/H1FvvxGWjR6Fvv744nJ+PMWMvx+efz0fhiUIUnjyJBfM/w5BLR2LaHXegpLQEgwcPUuT0erw4cuQo/vSnP+C++x+A1WoD7Q3MmD4N27ZvB2kFVP7EiRNwyy03qYlo3vwFePONt1FWXo5HHv4Vnnn2OTz00IN46813cOONNyjC0wRRWHgCbo8HG9avx46du3H1VVOwYMFCvPfeu0rSvvCCIYErKsox9/0PYbVYYLFa8YMffB+rV61WQ2///gOKuMuWfYfFi+c32Ca3icbvRV9sExG4cZstJDm9Xh82btqE/fsP4sSJk+jeoyv69+uLdm3bYPEXS+Dx+fC9a6+CEp+1VOLw3i4sLMQHH36McWPHgMi8ffsOxMfH4Q9//DO2bl6Pe37wI/zz+WfxzTffom/fvpgzZy7u/v503HjjVGzauA5VVZX49NPPUFBwAsnJyUqdfvHFl/DNN0swbvyVWL9uNRYtWoxVq1YjLi4OCxctxn0//hGmTr0FTz75FDIyMpB/+DASEhKQkpykVOyMjHT861+v4Nlnn4LT6VQq7p49+5Q2cNddd+Lvf/872rVvr6T/iy88r/Lv3Lkzjh0/Bp/Pi00bN2HixIkYNmwoHn30v/HMM08qldkgcEfUuFwoLipSmsYnn36Omb96SNWPcB0xYgQmTboCXbvm4sCBPRc9MZoLAE1E4MbBs2/ffqxYlQeP24OsrAwlxaqqq1FdXY22bXLQpUtnRYgO7dudtwAi8IckgceOwdy570PTLEqlJSm3dctG/Pi+n+Dpp/+B5d8tVwR+Z9Zs3D1jGm68aSpuu3WqIsTeffsQ53CgqLgY3bt3x8sv/xvLvv0KEyZOwto1q7Fo8WKsWrkK8fEJSEtLVRrCE0/8CZePGY+//vUvWLToC1XnzIwMDBw4QKV56aV/47nnnkZJSSlee+11pRYfPnwUU6fejKefega/eexRfPbZPPTu3QspKSnYtGkzKqsq0bdPHxw8eABXX301Bgzoj988+js8/czfTyPw7Dnv4fLLL0dVVRUWL/4Cv/rlL7By1SrQft7IESMwefIV6NKFCXzewRNDCZoVgf/35f+odeTAAf3VWo3UwxpnjVqDfj5vAe6841a0rwd5CX9agx47dgxZWVk4evSY+qGdHI/HjSsmTsDGjZvRv39fFBeXKKLQWrRjx45YnZen1FuLZkFGZjpaZ2crKUkin9TYCePHYfnyFWpioHU2qdE2q02Rkyagvn374LvvlsPucChJSGt1u92GlNRU2G02HDhwEP3791NlHDx4CEePHlXDhQhL7w8dOgRFRcUoKChATk5r7NixU+FAdXO7aV3eGqmpqdi+bQf69e+rviP1OCEhXmkLpM6T+myzWtUamdbZ9NDxHq3pidhXXnkFq9AxRNJzVaVZEfjPf/kbKiur1caN0pBJdAQu+p8oKMBjj/5aScb6P8GjJGGQsp73MUnlpPTBczcCkTa5wnd+z1WH2u+fLS2lC+6En+3YKnhXur5lN6Sd9ceRUzYVAs2KwC6XW0mtsznnoLVmfQdyUwHO5TICkUSgWRE4kg3nvBiBloAAEzgqvdi4XfeoVI0LiQACTde/TOBGd1/TdVqjqxzTLzKejemecxO4bkwbfJkh0rbQjWkov8MItEQEWAK3xF7lNl00CDCBL5qu5oa2RASYwC2xV7lNFw0CTOCLpquj1VDejIoW0lROzBM4aI0UTVC4LEYg8gicf2JrjBFSzBOYDO8rKioaief5QWtkxvwaIxBxBMgun+5mN+SJeQLXxz1OQxrMaRmBWEWgMWM95gkcq2A3rF6sCTQML05dXwSYwPVFitMxAg1CIDqTNhO4QZ3CiRmB2EKACRxb/cG1YQQahAATuEFwcWJGILYQYALHVn9wbRiBBiHABG4QXC0hcXQ2V1oCUs2hDUzg5tBLXEdG4CwIMIF5aDACzRgBJnCEOq8xVjQRKpqzuYgRiHkCu9xulJWVISU5WTlt/+CDT3DTTUbwsmAkQhWZi57TAw6qjyicCX1P/qSNgISnEoXeP8sAIOfqVDbFXSKXs7UjDQb/3r17L1LSUpCTnX2qTmH1KyktVaFVsrIyQwHRTqt/WNq63Mfu238AK1asRuucbEwYN+aMPILVrx1xMfg5hXCh6BNt2uTA4XCE6lg7kFuwTgsXfoEpU648A5XaQdyC6cPLD8f0bIHaarc9+P5bb7+LW6fepCJZ1NWm8EBwupQoKipBjdMJTQikpacq/921n1N1VqUaw6RWZMrwdpytj4P5ni8YXbTnkpgncEVlpSJhm5wc5Rz957+YieefefIMnBYu/hJDhwxGVmbmaeTeTo7PhUCv3r1CEfhqD6BgfxruaqWiuIDAsWPHlQN1inSgovqFhgBFFTw1ECgMCn1PztoDs4TKZ/8BwzE7xRxyu9zo0KFdwJe0kVNdUtuoQ3BGAvbtO4DCk0XIyclGZUUlqqudGDFiWGggBiMcGgMvUPNAiFXDbbZQl0EOHjiIbt27ITExUUVWDI+MGBzURtECL/3rFfzkvh8aTTEaelpdAx+F+sAgbQA7lTdFRqxdFyNAnJFWD7TRwCBQLB557Pf43WMPq4k6SJSg3+vgu8HIi8EwOzQ5kdN9cnJPE6SRt6aCw2naKRxrk9TIn9pVayiFGmd8X3tyCv5NMbgo//qEpTWT1M2CwIfzD6Nt27ZIT0/DfQ88iGf+8Rf8+S9/x/BLh6nbG7169VQBxq64YgJe+N+X8eLzT+NE4Uls3rod7XKyQRKwrLwCI0dcioz0dBVb6C9/ewqjRgzDt8uWY9jQS7D/wEHcfvstmL9gMQYN6I9t23Zh/PjLUVJUgtZtsrFp81Y1sA7l5+PWm2/Ek09RyNBB8HhcaN++PXJat1bRHK6+6koVlZC+nzhxnIq5RNEUkpOSVIQEipzQpXMn/OfV11U4FGd1FXx+XUno8opy3HjDtWiT0ybU5wsXfaHGEYU9oUFJP16vB0/+4zmMGjlChZYZP+5yfLFkKXJa5+Cb5cvx0P97AM8+/yKGDB6EQ/mHMXToJSqSRLduXfH4E3/HXXfdjgULFmHmLx9U5Xz86eeIj4/Hju078P27p+P/t3cd8FVX1//7Rl6Sl52XnZAJJOy9URDciloVUZFqHa2jrW0VZ7VWW/eq1tnqv7aOIu6qICIKMmSvAFkEsvd4eZlv/j/f8/IghABh5yX39/kgkvzGveee7znnnvO9936wYCEuu+RiLF32Pc4/7xxs2boNWo0OewsLMfeaq3D/g3/CrIsvxO78fNz8ixsE46tWr5WzmUaOGi6nRE6dOkW845TJE7Hmp7Uw+gdg8+Yt+M1vb8X9DzyCy392KZYs/Q4ZA/rD0tSMyRPH45NPP8f48WPlMDeOgdMFbN26HW3WNowbOwpr1qzHsGGDsGHDJiQlp2DEiGGwWBppCuV4ncbGJkw7cyoefOgRXHH5Zdi4aQvS0wdix45dMJlM6J+WhDGjR4uxLSouxYcffYzYmGjERsfIiZT5e/bIcT02hx0D01Kx6JsliDBFIDc3V5wDj7i54YbrcO/9D+Haa6/Gps2bcestN51WEHsFgAsLixDfDuBf3vZbvPDsE3jy6eflJAYqKM80WrHiR5w1fRoefPhRvPXmKygrr8SWbdsQFREhyn3ZJRciIz1dLD43iH/zH2/j5/OuRVl5BRITE/DW2+/gsksvxutv/h+unXMFWq1W7M0vQGpKEoYMHYyq6mqUlpbjX++8hxeffxKLFn8rwCgrLUdzS7McG7ph42ZcesmFcNjteOrp53DV7CtEKQj0zVu2AxoXzjvnbIkIGFXwnCeik9Z8UEa6AHtndjamTJywTykINF5UsE8//wJh4SbMmX05KsorMWzYYOzMysaXXy7CxRedj6FDh+CFl17FrTf/Au+++yFuueXnyMnLg6WhCT46nRgyHz9fBPj5YsvWTNxw/Vz5Dk853FtQiJ1ZORg2ZJC8j1OCSy6+EKEhIaiqqkJhSRnee+9D/PWxP8rJkNfMmY3MXbswZuQICXmXr1iNYUMHISwsGHf85i688vILYuwY+sfFxSIsNBRLv1+B2391Ix58+DE8/pc/oaiwBCHBQVixchUG9E8Tw/HQg/dKm55/8e+46w+/BY334m+W4swzp+D775fLAXF6vQ6ff/E1Ro8ZKQDmNCc7Jw9XXDYLJlM4qqprBVxl5eWIjooU+Z098ywZs/PPPVumEZwebdu2DTExsbDZ7eifliIRV1VVDT7/31e48ze3obyiAgzV6aVHjxwhhuHB++ejrc2KTZu3oLauHrOvuEwB+HAhBkPGHTt2yrk9PH/36WdekEEmgP/4wD3YU1CEoMAALFv2A6ZPO0N+/tSTj6GwsFjAHRYSjOUrVmLKlEniaemxOa9+88235FBvnheUlJiAf7YD+N//+QC33/ZLuJxOCT3rauvR1NyEwMAgJPSLx58ffRzPP/uEeOpxY8egtIwAbkFivwTs2LkL48aMkrDz1dffxNVXXSHnJvHgsoKCIqxctRrXXjNbPGpBUbGcT1RUVASHwylRRHJyP2Rl5WL0qBESatNT0NvUm+vlW7S273/4EWZffhl27crByJHDkJuXL55t5Ihhcsg5DdOtv7oF/3rnXcy9dg5y8/IkXCWAm5pb4OfnK56YffOcI/XfBQvlkDWGvgxDv/lmKSZPnoDMzF0YMiRDDF5aarKAirL/z7vv45pr5iBzRxZGjxoOfwL4x1UYPnSIREm3/+Z3ePXlF8UorFu/EYmJ/ZCcmIjWVsqpH+6+/yE88djDMkYhIUFYvnI1BvZPw38XfIQ7f3u79HPhwk/kQHJOoXgm1ODBGfj+hxWYN/caMZg//bRRANxgaUB9bR3WrduA8847B0MGp+Nf/34fM2dMx08/rZP2sP+MhhYtWoILzj9HZMszoRhVcWpms9lk7HjmFk+IfPFvr+LOO29FeXmlnLtMoz9q1Ag88NCf8cf75+Oll1+TKGbr1kycNX2qqC/PdD4dV4/3wBTK8hU/wkfPg6ytcij10CGD8fEnn2P2lT+T+SGVkgPIA8A2bNyIjPQM5OTmIjkpSRSSsxmGgRMmjENkRIQM2JIlSzF9+jTU1dfLvPm7Zd9L+PbjytXyPA8Ko3eQmaXTJV7I0tSE3Xn5uOXmG7Bp0xb0758mlry0vEJORORJhbuys+U0wqKCAkw9YzLy8vKREB8PY4ARoSHBYt2pXCtX/YTAgEAYfH0E0AkJcXJgW0lxGWrr6zCk/fRBhsyrVq2Br58fuD0vDdCokcPx4cJPMHjwIPnZyBHDsWnzVpkebN++HZdffhk++uRTpKWmIn/vXpFXUEAAomOi8d57H8jhZevXb8SVV1wmOrf8x5XQafUoKCjAGVMnY1cWpw/TxYOa680iL047KNMbr5+H75cvxxlnTJWQkhEK25S5YxeSk/qJIr/+j7cktJTD3Wrr5NxkTj+ysrJx5RU/E0973bVzxNsFBPhjx84sxMXFSESSmpwsoXD//imw2x3IzduN5pZWjBw+VEJhHnTOs5r9jYGYMGGMnLGs02olUuBpkJfMugjv//cjOUSuqqpaQmQqwIhhQ0VGNI40jPTcewsKRGb8Dk+rtDtdqKioQIO5AbNmnY/6OvO+XAMN3HvvLxCZ/d8772Ls2LGoqCgX48UpBA+1Ox2XVwCYFtCTNPAkIw6VEZWDwxwOOcT6cNfhMtBdJZc6/8zzPBX7myVLxYNmpA/skOxxJ0A87eR2KQdnPw9MlHj6xnB72NDB0OuZDHInYqhkOp12XwbZs9UQj0X1nBVFsLNd/JsehdEFAcXwnAlAz8V3+fjoD0jQeJJD8sPOWaouBOm5pXMmu6vMNh/v+H6P7DpmdOVntGSdznXuKLOi4hLk5uaJh+a5yAP6px7Uso7JrwMTfO6EnufqqD+ecTpSKbCjznjuZQWCV3r6gNOB356/J9bBUulZVEB6gOzsXMTFxyIq0j3fOt42dzRWx6IVBAvbVFFZKeWztLSUY3nNYZ45PWPA6QoTSjSGU6dMPq1zz0MZghMs6CO+zis88IG9OD3Kc0RJ9rAbDi2lvi6/3tV/rwKwJ2w5UqhzJCx1Dp+OdP+hft+56H+s7zne505Ufzq3o6O83ZH1fiJE53p1d9pwuHu687yntnyy5X6493tq2Ieq/3avH8c74vuf90oA333P/XjmqcePOYRycw7cxIL919FZZiZnNm/ZKuUdDtqgjIEHnU3MUHbPnkLofXRISux34kat05vMDSS7FEsZismio788hIUDiQ+e9yz8+FPk5eVhxllnYczoUZh//4N4/uknDiBbfPn1YkyayCThoaYR7nzAa2+8jdtvvanLJj7y6OO45+7fw2j0P2wX9uwtwOuvv4nRo0Zh9uwrDiJsHH3/O2iBy4W/v/oGKisqMHv2lRg+bMi+X7L9+fl7pd8pKUld6l/B3iK02WwYOMA9Pz9eZ3OkvvR4ALsZNzY4nUyEOODv74df3/kHvPzic1KP0+q0koWURJfLCZeLSRyHlGhYw+PfdoddjLfD6YTBx4Db7/gdXn3lRUkKud9vl7/5x9fXgJbWFuj1Btjttn1JI4OPT/u/9XA47fDz5e8dUuKw250YPCRjXzso9NaWVsnHsHzk62dAQnyc1BMpcPaBv9fp3Yk2ljU8V1tbG3Q6Pex2KwwGX9jtdmmDJwnm/jfb7ZT2M8nV1NSCPXv3IjU1WfrH91NmnsSQVqOV9zBJ5OfrpilarTZ5B9vEuiplQ3vGtkjbdExyOaHR6rBrVzaioqIQGhosmfbbf/17vPbKi/vazHLMj6tW42eXzkJcbIx8y9NON1uJY+dmir3yxlv43a9vk1KeBlrodJp9W6mSifXQA/dIu1lbpqzcl6Y9gcdknhPPvvA33Df/D9i2LVPq3JdcfJH0w+VySI2XMmSfeVE/PPLjz/lelv300j+XfLujIf/Pfz7ArEsuEOIKWXw0zDSKHlYb5cy6+YD+TFo5hPjRkS1WWFQi32eCjWPGPvD9TKyyTW6Zu0S+1NPO3z8SYDv/vscDmCD5YfmPouzfLV2GB+6fj/n3PYiHH7wfXy36BiZThNQSq6uqpcxEwS746CPMvvIKlJeVYfy40VLkJ7BXr1mNq6+6Ck889Swee+RhxMZGwWxuEDaWv9GIzMxM/OqWm6Rgf/XVV+F/X34lLKrysgpMGD8Gq1avw7RpU/Hhhx/j9ltvwcaNm5GUlCgD0hHAzEw/+/zfMGPGWcK+Gj9uDPJyc2GKjMBHCz/Fo48+hEf/8iTOPWcmrG1WIRkQRDU1tXj3/f/i7JkzsfDjT3DDvGuxdXumKDATZFSMnNzd4uk++O9CnHPOTDFZEAHLAAAgAElEQVQ2iQnx+GntevFICz/6BH966D589/1yGP2NIM2Ttc6Nmzajf1oazjxzsrT3o48/k3JXq7UN0ZEmbNu+A9FRUbhk1oV47K9P45prrsKuHTsxZuwYYVz1T0vFW2//W4gMd9/zwD4AU3k//ewLIbLU15sxfdpUrFz9E/J25yM+Pg7munqEm8LEAFutbcjN2Y3bb7sF//r3e0hKTITF0oBrrp4tekmG1/U/n4uPP/4Mt956M75btlzKhjQqLP+w5ENWV0pyCqKjIwU47Ms33y6Fn58Ra9euw+9+exv+8vizUjenIaPxIIkkPiEO7/z7ffn9cy/8XVh72Vk5mHfd1Qdwy2mMCgoKMW6cmzNgrm/Ajp3ZMj4EfFJSP3zy2f9k7Fh/Z9ktb/deaX9oSJCw6NpsVtYeERUVKUw8WnKyAlmKYnVkzdp1mHXxRdi1KwvXXj27/d1HC133/T0ewLR21dU1wiJ659/v4ZGHH8A99/0Rzzz9OHJz8kRByUFmdnLGjOmi6L+58y787YVnUFpWJsAON0WIorzxj7fxxF8ewe/vuh9vvv6SCOCnteuklpwxcIAoHqmCb//rP/L3jh1ZUsAnwWDI4Awhy9uddmRmZgmItm/LRFJS0kEAbm5uwSeffoZrr5kjfGj2gYpoNpvx3PMvifK//Oob+NXNN6KsrAyxcbEICQ4WptDkyROlxPPmm2/j+uvnCtGDxofgpledPGkSWCF7+tkX8MjDDwpdkEYoMsIk2WYyrBjesa5Jb8SQT6vTITUlWcgmrJnzPcu+/xHnnTsDa9etF++4Zs1PuPzyS2EKN+HHVWtw/rkzkbd7j/CMoyJNQqR56ZU38MC9d+Gu+fsBzFovWUksU33x5SI8cO/dQpAYOXIEcnKykZ2TK55n4MD+Uq9+kUyxX94oJI+c3DxpyxU/u1TGgkQJeq3f3PErIY+Q8UWmE+9lia5fvwSp5ZrCw8RwNgg3vEkiHRIzWE+++MLzhMb6yMP3Y9v2TKnDcyFKZFQk7DYrJk2cICU2h9MBc70FkydNEJl4ruKSEgQYA/D14m/EAGq0GvBwARqEtes2CHGFUUxkZCQyd+6SWnOjxYJx48Zg69ZtGD58OGz0uk43gHfsypJXM1og04+021deexO/uH6uyGbIoEFiaI716vEApnKShBEYFIgPP3R7l/n3Poh75v8eCxZ+gmlnTIXNbgPplvRkbgDfjb+98LSwpHJycqDT+whAyE7662N/AufQT/z1zwgNDQVX+tBbkGlUWlKGSZMm4J9vvYO513oAPFwATNLEt98uxbXXXI3vf1guRIedO3YKgBmqG/39EB8f6w7Rmlvw1tv/wgUXnC9kAV9fP6FXklTy/Isv49WXn8fLr7yBX/3yFygrK5d5NNtHBSSgSSt8/78Lce45M8TLjxkzSrjdDOvIKCNH/5nn2gG8cQvMDQ1CaMjIGIDvf1gpXvT1N9/CnCt/JkrGEDA1JUW8B0NggubLr74RskRJSakscFi/fgOuuPxSxMTE4K3/+zdmXXSBkCj4b4fd5gbw31/H/ffefYAHXrlqjRA04uPjhbNMb8+oiWDNyc1BVnYuAgMChEUXFhKCb5d9jxvmzcW3S78Xw1BXb5bvugH8KG684Tphn7GfrK8z4qEBYHRAymxdXT2+IBlm5lkCToahNO4k6LBOzHbTSFBPtmfuQO7ufOGEM0LhSq7IyAj87g/34LbbbkFebj5Gjx4l0yEythjqfrt0mRgjcqdZ42UITtmyLt9oaYKPwUcMAFlnJK/QMNTW1GLo0MGw22zQ6XzQarMK840rwKqrqxEcHCRjKwCOj8crb/wDv5g3F9m5ORgyaHDvBjCVjRaYf1OJp06eKB5i7OiR2L5jp3g2X4OveBFSIknKZ8g97cwzxDtzgQD/trbZhPc87cwpWLlyNUaOHI4wsnAcDuzJ3yshOsHEcHfnrmxkpA8QFhEHnJbSFB4uoWS/hH7yN5+nMnGZI69Fi5eIAeGqGL6TzDAObnNTkyxgIF+XV2FREWZMnyZeaviwwWhsahaLz7k3KZWr16yR2u2/3/1APFVhUbF4JYaRpHPGx8VKWEjPO2H8WFRWuqcOZIqRBkjq5vTpZwpTjBGD2Vwv3w8JCRYjQW/kBvBi8dgkgpBxRrYUmWXszw8/rHDTLc1mpGekS+RAI7B563aMHzMKK1atETDwKioulr/dyzVd2L59ByIiI0Ru9XX1wnTjsy0tzWLY+O2hQ4Zg67btssCDck8f6CZBrFr9E8aPHyMUThoxjgcTgAQw3+dJ0JEaS0YW32cKD0V1Ta2Et+RAE6xsw8SJYyVy4yIWRh/8HplpBNOSpcvEoLFf9OrMJTDMppzJDiMjjcZWnk1NFnYW8xFkiJFbnSmGu5+MP9/DCI7jx76ZwsLhhEvCYq4k0+u0Mg40VGmpKUKs2ZqZiSEZ6fI8udtkhh3r1eM98OE61v2U/cEZ5s7Zwe5mC7t6jm1kZpQrkjwZVEmKMYmyL9N9+Cy3573vvPs+mhqbJeQ8e8b0Dsvtus4Qd5SPe5mgO3njJjV1zrS7f0VFo5GjwdnfxgPb524P7+783falkF385khj1fX7jk11ux6/rtrb9fsZNe0fm4PvOYCZtm9x5P77DpD1YbtwdNWNo5WGVwP4aDt7su4/EXVJzzsYJVB56PE5NzsZ6035fi5DpAcUlT+gnHaypKTeezIkoAB8MqTaF98pdZauPeDR+OyONfqT67t6xyApAB/FOLK2yTnkifRYnvqzRL37dqdw132PdHnKKGwTL3fNUXsQsYEhM9/nua/jez211s6/47vZ3+4cd0mgtdmcMOg1XYalNjt3r3BJndzdT6DVxho9a/aAocMUkO9qtbrg76OBS3NwAH8kmXT1e6ud3wZ0nXboONy7WLZ2OF3w0R04haC8KMsTqQPH0ifPMz0ewB6l5t8eMsP++Y97nsnLPZ/puEXLgfsf7Re4m+zRcUWM533yrfYtXzxEgP2gApYvX4mx48ZKxvnA68DtY2RDng7j7gFp59UxfAcTIEw0MfnGRFtLcwuCQoKEubW/7+4FQh2pjHyWixVYxuBqIwKQyTdma02msHaguOfAzKxyTS5LMR5DQVAzwVdZWSNzZS5f9KxkopyZ1Fq3dgMuuuj8w7KJ3GQR4MXPy3D5pDAkRpKUQgXfb5AWb25AcpQv0uM4JQBarMDfvrHiohF65FY4cfk4n33bFfFtT3/lxB8u0sFtlvazxNxf4n8pXJI8tIJwbn/kWckk8355jr9gIkCDRZvMSInyRUY/bnnkubt9gNrH3L3fkvt7/KuiwYmcMiumZZDE4W4Df7NxwxbZAIJZ+c5Tp+7nZI4Hsgc+2+MBTJYUd1ZgFra6pgbBQYGSEXQ6HAgIMEoJgfJlbbC0rEJKAGRQBQdxgzOXZJKpZCGhITLQlkaL1PFYV+VOEawjhoeHi7ehUnNXhpjYaCkBkD3F7CEzikZ/f2xhFnb8WNmFg/tbtbS2SsKJW9wwo11SWipMJGZPubyQ36WAmQ1lPZFZR2Yit2fulJqspbFRarUWiwWRkSZhBxUWFMMY4C/rf7nGlZsJsI7MjQ3YHi7gpwKxzsvML+ulnhIIa6HM1FImFksTAoz+wk7jxfluSEhIu+FyIidnN75duhRzrpotmeDmpmYpAzFL2tTYJBvgVVRUSYmjzWqFzWoVee3dWyDrrtl3ZmdZRqPuP/9ZKS6ZGIqmNi2GJPggt8yGEH/iRYvNe5rhpweG9vNFSYMOI/r5YFuxE4kmDczNLtDJ6bVONLQ6BGgvLXHitrM1qKhzIN6kR22jHTqNE3WNGgyM1WPDHgdSIlxoaHGhf4ybSVXdYEVlgwOmQBf2VvtgaIIOWWVWJEdo0djqQoAvYHXoEBOixeb8VgFzQYUVgf4aGHx04p3JsGMk4WcwIMhfi4ZmB2JC3caFjDtm6FeuXoPJEydKdlzYbSwhGo0yxszmF5eWydrjU+WhezyAWaxf89M6WZj92f++wtlnTZMdCFesWC0L9Hfu2iVCZJ1uwYefSuHfarOJwkdEhAsQCYDEpH7IzsoVELAmSSYTd0DMy9uNSZMnSo2PACgsKML4CWPx1lv/EjZQVlYOLI1NCA8LlTICF90XF5dixlnTZJsdPs8F8GdMnYIvv16EudfMkQX4l106S+qWHGSynNiexd8swR8fmI8HHnoMv/3NbVKjjo6KkUXtZOiw3QRKXZ1ZwMT9m8orymVdL9k78+ZejaefexG33kICSDnSBw6UWjf3a6KRWbduk5Q91m/YCFI/SeCg8aMGZmQMxOhRIwXMDI8zM3fih+XLMWrUKAmT83fnIyw8FAMHDMR/F3yI639+HRZ98y2mTJog5TeSLi6+8Hy88c+38dgjD0n9mHtG3XzjDfLOZz8rR1CAHiFGH8waG4S/fFyPMzIcsNj0aG5xwVfrwJg0I578shUvXx+Ou95vw7ypPthSYMfYZC3Mra3YVNCGy8eF4ON1wIhkDTROByYN9MH2wkY0tNiweKMLT80Nxx3vtOEP57mwtcCGOVOCYNBrsXxHPaotLoxN9cWjX9hx70UBeGlxI+66yAcrdzahf6wv1u+24eaZIXjg3Uo8NDsK32Va0Op0ISLIB75aF8otDiSGOGEKC0Sgnw7bCltw8cggoZ1+8eXXwote9v1yXDrrIqm9UwaMoMhB31tYhJHDhuLDjz/Bg/fN73K6cuL87v43eQWAi0vcnu0/732AW266QRTw6WdexFVzrpSdGsNCQ8QLPffCS3jowfvk918u+kZYM/TEdXW1QlbgflZ333WnKPRfHn9KKHxcID558iQBJwGcmpIKf6Mvnn/uJVx/w1zk796DuPh4Kcjz9/SSxWWluO6aObKvFeecXy1ajEkTxsvOFrf96hYhhpgiTIiPjZFnGAWw3vryK6/hsT8/jKeeeR5/evgB8WakeXI/JjeA7bBZ22SfK9aP5157tYCXu258/r+vMecqGpx82eaWykNSAMNoApgh9Pr1BHCS7L9FSiOJDCRSMEQhgEeNHOEOLjUaYVj978uvhWHEkgoBfNZZZwpxg1TJ3995hwB4+rQzhSLJei4V+O+vvolH//QgSkrL5Pe33Hi9vPPJT6pQ2uDA72eFIyJQj79+2oSbztKi1aHDppxWjE/zRUaCH256rRx/uzEad79vxbwpbgCPSnRCo3Oi2WZHhNEfX23TIDHSCZOvFSOTjahqtMHX4MDTC+vx0s0xePx/BKgeWwtaMTrFF4H+egHwkH5GmIJ8cN9HDbh+SgD+s8KKJ6424t0fqjEowQ+r8xw4Y0QAzA1WDIkzYFVWI0xhBpmfRPo70GDTI0DnRFWjFilRBHCrAJi7d9ADs05OXjh3D9m9Zw9SkpJkyyDWlumFhwwehC+++gpzZl8h3IRTcXkPgONiwH2Db77xevG4z73wMi655CLs3Jkt4XP6wDS88ebbePCBe4TU8c233wmhnArMXSIHDUpHbU2dENm5lQ25wpdfejHWrFsvRIfoyCj4+vpIYd5o9MPzz7+ECy48D6vXrHXvHeVicd4g5Alum0P6HAv0NTV12LFrF849e4bsvXUHGT55+QhvBzABtnnzVjCQ/fqrxXjqiUdx74OP4MZf/Bx78/di8KB094IMIVjYhS/MBIq5vk5IHgx9a2rrhJxw/c+vxeLFSzB5ymTZEoiLByqrCGD3Toskj6SmJWPz5m2yPxhD9azsHJlKcP7LaOHSSy4Wj0sAc2sbri4KCgoSBT1r+pmIjY1uB/BvhNpJwkJZRSVaW1ok6iCjKTExURhjLEXddMO8dg9cgYkZgVia2YK7ZoXhmc9qMGV4EAJ9gLLKFpTWAYNTDfh4dTOenhuBu9+3Yd4UPbYUOKCFA35+DlTW2nDm4ED8mKPBNVOATflcEKJDs809X/1ijRn/vM2Exz8D7psFbC20YlQyw103gHeW6jBmoAavL27BPZeG4f9+sOGpq/3x7vJqDIr3Q5TJH88vasNTc/xRVGXD35c0YESaP/x8NIgNaEOLy4CaZhe0diemZBj3eWBGUQsWfIQBAwfih+UrcM2cK0V/SKohqYNbFgmAhwwSo0gAdyf5dyIA3uMBzAYytOSqInoB1kcJYCZvaPloHRkqBhiNwnZicoEXf05OsdnSiJ07syR0JtWRK224CyF50ffc/Tvx4JyfMolE70qqHBNi9LhUbG6qJpvC+ejl95wjkr5Hiifnr5yDcg7M+SXn02TweFYU8Rm2n1xabh1LSh4jiT8+/Bfcd+8fZM7NeRXf50mquYkV7iQQpw9UBPcclBvDhwsbjYaDgHLP9+37GEpuXrgBrS2cywbI97jqhxdryq++9g/cfusvhWzCsLC2ttbdb71OvkFjQUPA8JxEhUWLl+Kq2T9Da6tVjCCpp5yOUH7MQfBesr9oICrr7QgJ0KG83o74CB9U1NmhNWjhx8Sz04nmNsBl0AA2IDZUh+I6F4qqXeKB50z0QYvLCYcNiAjUorENiAzWoKXNBWaQbbKKC2hrcyIpUodyswbRwS7JZPsbNJLdXr7DjPAQX5jC9LA1uRAdpkN1I5AQpkWtxQY/tsWgxd5qJ1IjdWi1OVFmdkCn18BPp4Fe40CbS0vhg4sZ/X01aLE6EWp0p8jJdOPKIxqtmOgo0QvulebhuWu0WqGpcrNA5kPUHLgL89SRfdMxA+i5tXNmmV7l3Q8WyGZy3CeYCvj4k88IV/f+e+4S5evqPd2xjB33R+r4fclWdtgtvON9nv9//MlnZVVP5+uAbHiHX3Z+h+dXndt+qPs8baJh8ZzM0PEdHbPb/H8aAk4x5lzF9bBD94Xd+7+3f2P7fc/SzAn7zJP99SSC3RnifSWh9qRyYZUNz39RhcsnBWHaYG4e6Enbu/f1clcEtO0b5XtSxO21Zr6sPffcnobG6qxapMcHICzQIDnpjgWo/Vt8OQGNrsNBHrIGscO97sZxmaPkojVslaf05cmG7x+YzvrWcTwVgLuDInWPkkAfl0CPD6H7+Pio7isJHFYCfQTA3SflMXTj3hU+nkUBR1Cg+mYnHC4Xwo37t3dVOqckcKok0OMBLPMnaGB1Aj4ayTHIZRMeDnOUsvELbKTkMUfSTr8jH4jLujjjIWfHPRPToM0J+MvZWwSqe8aj07hgdQGGdql/tKERV44LlJmU3aUB0xj8Lv8t97Ed7fOsjQU2tDpcGJ9skCmbndvycG/m9m8LjaJ9+tTmAvzIDuIWK+3tYfslz8N3O13wE8qVm2fEn/H3nXe47rxSpqOyHO+WtKdK8dR3TowEejyAm9vs2LC7Fb4BPsgptGL2xADsKrXDpvOBDi4EG4A9FdzrSIcwgwNtetZTdfBHC4x+WsSH+mJrkQOmABfKzXbExPhhy44GzBwehCU72jA82R92mwsuHw0qKpsxNNkfv369Eq/cGonqeitsOgMcVicSw3RYk92EIekBWLnVhpumuVcKuQEMxAcDFU0asPxnrm5FhMmI+FANSqqtaLO50ObQIyhUg61ZLbhyohHvr7VhSKIOGu6nFafFjlIbjIE+2LW7BZeMDcBHay3onxgAWIHxaXoxIKzX8gCwqZMnyfpWHqXCHTFYn2TGmTXt1LQ02UooJTVZtqBRV++WQI8HcH2TDRvy25AQ4YtVuXacN9KAJxfW4JzR4aix2AV8SdEaJJm0KK22IreiFROHhsNksKG41okqM0sBWiSY9Nhb40BTaxveWmbDC/MC8d4KM24+NxKFtUBJTQsWra/Ho3Ojcesr5fjXnbEorbMjp9yJHcUOTB/kh9zSelw4NhxPf1GPJ+eECf3OA+D0KA22FgHmhias3N6AX5wfi8yCFqTE+MFoABqtWtQ0NOOfS1rw/u8icd+CVvz6XB9U1VsxKF6PnAqgpqENby5z4INfB+PJz8ow+4xolNW74FO3BYX52bj4ogvw4cJPpQ7JEwAnTxov9M3mphbZf8rf6C/MoJKiElmoPmHC2N6tvap3PX9PLAJ4T5UDSSYDftrrwuAkLe57fQ9eui0BVrsGNRYNHBoX0iIZZmvgsDmQVwdUVlgRH2HA28tbcO1kX5gC7HBq9YgP1mHeK814/SZffL62FjNHRqG+zYEB0Vo8/J8yPPOLBPz8xWK8dms0vt9uxrmjwrBgnQsZsTq0Whswc2gInvmyFvfOigBPPvEAuKTageGJOkQHAvPfLsJDVyfgmU+rcOG4YKTGGtFkdyAhGLjplTosuCsKj3xiwwOztCisscLSakVwoAFxwT6Y+/dWfPaHALz8dSnmzYhFXq0LicYm+NibERFpwqeffylHfy75dhlmzjhTFjAs+fY7XDrrQiz7YQWunnMF91PD9u07MXPmNKXivVwCXuGB31tej9AgPyzb1ooXbgrH11usst1LZIgRTp0BKTFa9I/UYlVWK2rqLXBp/RAYoMX0jAAsXNeGxHA90uNc+GRNLYINVny6NQKv3+iDz9bW4Lyx0fhxlwUWcy1W5+rwf79OwE0v7cGtF0ZiR2ELXE4bMkt9cc2ZJrTYzJg5OBTPflWLe2aZoG/3wC12iKevqbWgrKIG+bX++PsvE/Dl5jYxKNOG+uOztfXQOprwxWZ/LLw7An/+1I77L9GgsLoNVrsTW3Y3oq21BZ9ui8CX8414eVEFrpsRg/xqJ4bH+SDEz81hXvjR57js0ovw7bfLcM45M2SXRi7M4PnBL738KsaMGS183UkTJmDokEGy1Qu9sbp6pwS8AsB7quxICNfBFKTfv1SsfdkXVxjtPyKs/cR1qdxDVrdUWRyICtIj2J25av/jOTTMvVJn/3nx7qTWgSe3k1jA2XZ7Ao37T0vabP+6YDfBQQOny733L68mqwt7zBpEGoHoAM9XPIeTtWe25FPu78k7eYL9AXyB9oVxHQ/lkkfdywTJwlqxYqWwx7iYghd/djx7LPVONe+9verxALa02FBe70R0iB7BxsOfONhxmBpbHViyrQkGH39cPIp55IP3lOq8r9KJGma7E/huWwuqLC7Mnep/0mh12dk5ss3qOWfPEAqnuvqeBHo8gAVknnE5ir2b9i2u9jjVLgB8Moe7M53yZHzrdCwgPxn9UO88dgn0eAAfe9fUk0oCvV8CCsC9f4xVD3uxBBSAe/Hgqq71fgkcGsCHpg9r5s+ff/DaqsPIijtKDBgwANddd52slVSXt0ug+9zyU9/Tnty2Ey8NL/TA3R2g7t534oWq3qgkcKok4IUAPlWiUd9REuj5ElAA7vlj5CUtVBHP6RgoBeDTIXX1TSWBEySBUwJgLnVjEmvevHkqiXWCBk69RkmAEiB19sMPP8T69evl8IPuXEedhSaAefrBHXfcgago966R6lISUBI4fglwZ9EFCxbIIQEnFcB09ffee6/sKXyqduw7fvGoNygJ9GwJrF27VjwwV6qdVABz/9yEhATMnz8ffn6dDwfr2UJSrVMS6IkS4NlUBG9mZqbsDX7SAEwiB//Q83Kz9D//+c9y1Im6lASUBI5eAlzEwsPt/vnPf6K4uFi870kFMCfa/MOrqw3Rj74L6gklASWBjhLgCR7dOVNaMHi0VEolaiUBJYGeIwEF4J4zFqolnY5RUQI5sgQUgI8sI3WHkkCPlYAC8AkfGkVDPOEiVS88pAQUgJVyKAl4sQQUgL148I6+6So6OHqZHc8TJ1/eCsDHMz7qWSWB0ywBBeDTPADq80oCxyMBBeDjkZ56VkngNEtAAfg0D4D6vJLA8UhAAfh4pKeeVRI4zRJQAD7NA9DzPn/yM6c9r8/e2yIFYO8dO9VyJQG1mEHpgJKAN0tAeWBvHj3V9j4vAQXgPq8CSgDeLAEFYG8ePdX2Pi8BBeA+rwJKAN4sAQVgbx491fY+LwEF4D6vAkoA3iwBBWBvHj3V9j4vAQXgPq8CSgDeLAEvALCi9nmzgqm2n1wJeAGAT64A1NuVBLxZAgrA3jx6B7RdRSq9ZiiPoiMKwEchLHWrkkBPk4ACcE8bEWmP8qY9cli63ahTN34KwN0eFHWjkkDPk4ACcM8bE9UiJYFuS0ABuNuiUjcqCfQ8CSgA97wxUS1SEui2BBSAuy0qdaOSQM+TgAJwzxuTPtCiU5el7e3CVADu7SOs+terJaAA3KuHV3Wut0tAAbi3j7DqX6+WgAJwrx5e1bneLgEF4N4+wqp/vVoCCsC9enhV53q7BBSAe/sIq/71agkoAPfq4VWd6+0SUADu7SOs+terJaAA3KuHV3Wut0ugBwNY0e1Or/Ip+Z9e+Xfv6z0YwN3rgLpLSaAvS0ABuC+Pvuq710tAAdjrh1B1oC9LQAG4L4++6ruXSmB/fkIB2EuHUDVbSYASUABWeqAk4MUS8CIAq7KGF+uZavpJkoAXAfgkSUC9VknAiyWgAOzFg6eariSgAKx0QEnAiyWgAOzFg6eariSgAKx0QEnAiyWgAOzFg6eariSgAKx0QEnAiyWgAOzFg6ea3h0J9G7+gAJwd3RA3aMk0EMloADcQwdGNUtJoDsSUADujpTUPUoCPVQCCsA9dGBUs5QEuiMBBeDuSEndoyTQQyWgANxDB0Y1S0mgOxJQAO6OlNQ9SgI9RgIHlsUUgHvMwPTEhnRVQ+3dddWeOAqHa5MCsLeNmGqvkkAHCSgAK3VQEvBiCSgAe/HgqaYrCRwFgNXcR6mLkkBPk8BRALinNV21R0lASUABWOmAkoAXS0AB2IsHTzVdSUABWOmAkoAXS0AB2IsHTzX9UBLoOwlXBeCjQAHVAi4XNBrNUTx14m51uaQFcp2uNnTVG7br5LWn74DxWDTllADYZrOhqroaTocTYeFhCDAaj6Wtp+yZpqYm+Pr6Qq/X7/tmY2MjysoqEBkViZDgoG4rrNPpRGlpGeLj47r9zOE6yvfx0mq1+26jfNm+sLCww8qoublZfm88BvkfCqS1tbUIDw8/7Hf5rN3uoPWDj09hTrsAABM5SURBVI/PCR9Hq9WKsrJyBAUFITQ05ADZnPCP9bAXnhIAU3FKSsqQlpYigvbz90dYaIgodPcsNz2eC/uV6NBWuStF83iuzt861PsaLI3w9/eDXqfb176KigpUV9dgwIAB0Op00Ou0HdpDx9y1F3I4HCgoKERqasoR75d3SE8P9LD8udncAIvFgoSE+INk1tBgQU1NLZKTEw/w0J3b1GCxQAMNAgMDwA+54whPNEH57tfOjrJqbm5BaVkZ+qel7rvB826r1QaDwQ3Kzt/rGDHYbHbpmcFg2Hef5/6Oz7mfoV4cjJRDjWNrWxuqqqoRGBAgD4WGhrZL0S3H/d/hv93vPdS7DtWPju8pLCxGZGQE/Px890VDHd/nAsfx1ERppwzAxSWlGDigvwguKysH/frFY+vW7Rg5cgS2btuG1JQUUZKU5GS0tbUhPDwMpWXliIuNxd6CAiTEx6GlpRXl5RWIiDBhz969SEpKREBAICrKyzFgQH8RZlZ2jljiivIKaLUa+Tl/1i8hQQZZp9PBZApHaWkpwsJDER4egT179iAqMlIAGhAYAJ1Wi9jYGNSbG8QTFxcXIyw0FNXV1ejfv78A2OCjR0NDA3R6HxQVFiExsR/27i1AQECAeFu9XiftIYBzcvMQFBgEm80KnV4PS4MFMTHR2FtQiBHDhyIrK1u8PUHucDhBhWxqbERcXCy2btuOjPR0tLa2gEBlu6jg9GRURrvdLnIcPHgQ6InNDQ1obmqSNmzZshUTJk7AunUb5B3V1VXyTn6D38vcsRMTJ4yTdlosjSDAw8PCxIMVFRUjOjoKu3fvxsCBA8DxS0rsJ/dSJlnZuRjQPxUbN25CRkY6snNyMW7sGOzZsxchIcH7vPKyZT9g7Ngx8nxqShJqa+uk7TSIgwZlYPmKlRg7ZgwsjRaEhoTAZreL4bTabGLkafDdY1Ai722z2mAymaTv4WGhAtDW1lZUVFQiIiJCEFpfVwtfXz80NTUL0FpaWlBdU4OY6GjYHQ4YfHwQYPTHqtU/YerUyWhsbBK9YHRDQxgSGozWlhYQqEOGDBag0ni2tLTB188gxpTv4s/NZouMsdNpR1ubVd7Pv/slxB1TpHO0Dv6UA5gN3LlrFyIjI9FgtshAtLS2whQeLkIeOmSwAIGD0dLaImAsLChCamqyCK6ouFjAnJe3WxSD1+bNWzFunPv/i4pLxMMwXKcRoIKvXrMWw4cNRXFJiQxsbEw08vPzZXBoUFav+UmUjwaCz1gam8TD0rvU1dWhprYWCfHxqKmpQVpaGnQ6rSghB56A4X3RUZFoa2s9KIzl4BKoqSnJYkD4vcqqKvFEBFGEySTvJXgJQCpdY1Mj6uvNyEgfKIqbnJyEurp6ARjb7gawXpSXbabh8/OjwjbB398fQUGBCAkOxuJvvsW558wUUPXvnyYgpTz4LN9P43DRheeL3BgKV1XXID4uTgyVw+mEVqMRIzpq5HABYGK/fjJebDuN4oD+adi0ebMYh+zsXBmDzgDmOyNM4Whts6K+vh6NFgv0eh+Ul5dj7NjR2LFzF0aOGC59Z5soVxrB+gYzQoKC0NrahrKyMpFzVFSUtDU5KVG+k5iYKGNBcK1du14Me2pqqrSNOuDv5yeAiouLg6/Bx22Yiktg9PeXcS4sKkJ0dLQY0GFDh4iB5Heoe02NTYiKipBnOCaMIqmfNHA0GHyOgKdxoF5qdVp5Jy+Dj0Fk3HEKdrTA7O79pwzAe/cWtlt/B+wOO4KDgkQpOVgUBJW/uqZWALxnbwFioqOwZes28ZwEu9VmhbneLKCm0tPijx0z2g3gLdswbqz7/6nwgYGBYhXpYTn3WrPmJ4weNRK1dfUIDgqUb+7clSXfcgN4rShpbV0dgoOC4XS5RCkIAk8IzNCVQBs4cKDMN2l912/YiJEjRoi3oFIwcggLCwXnZBw8Dj6fz9udj8gIkxgGP19fUQgqGAc5ODhYAJ6WmiJehMpBAJZXVCJ94ACUlVeIwaJnqKqqQnx8vHgkD4DZj0EZ6WJE2K56s1mMIb2VB8DZ2TmixHw3Aezr5wedVoO16zbggvPPFbm559FNMJvN4sX8/Xzh5+cPh8Mu39udvwcpKcmwSygMFBQWYdjQweKBBw8ejLy8PCQlJ6G8rFw8t2denJu7W/IG/C4jG8qI73O5nGLstm/fgeHDh4oM+W6CXAxidJREIg67XdpdXlEhURIvRjsdAUyQM3pKSIiT37O/1AFGUxwX6gA9J406v99gaUJggFHGgHrEMSDAKyqrxLNSP6ib0dGRoh95u/cgOipCDLnR3yiGlBEZdS2tfyqam5qlrdRLXhz7XgVgKjQVUqthSOkUQBqN/ti9Ox9+/n5wOhwICQkRKxcTEyNhFgVNhWTChSErhU0PRutvCg9DZWUl+vVLAFwa8awcVF604r6+BjidLvkGjQM9OhWYXoaAoqXmAMXGRsu8jwYjNiYGNbU18g6G5bTe9L5tAkYdQkNC0dTcJPcxjCeA2SeGeQaDLwICjKIo/GZJSalYY3pDGgMqtdXK8MtfEmBsE622w+kQz87+sk205gzL6VX1PnqZPlBZGFrSoDARaAo3iYJ5QnQqIIFORaMHdgPYJHP4XbuykJ4+ECWlpTIno8dmkodApSGkIRkyeJD0md+mkaAnDwkNkWkBgcZ2x8bFibISQAQT/xDkNCwbNmzEmDGjpQ98B40zvZMnUclIiWPonrqYUF1TjbbWNpEBx4xGyx3WO0TeNHI+er0AntMAen7OJgkIY4BRxptGkmAiiNgngpd9Yt94sQ1lpeXQaDXiMenVKS+GtpRnS7ueRUVF4rtlP2Dy5Imoqa4R+VK21EVrW5tEf6JTZrPoIttE47jPyPn7i7HmvcHBIQgI8Jf7tVqd9Jc60L0cT3f97cH3nRIPfCzN48AynIHLiaCgEAGbt1xURHqAk5Fx7UkyoBekIRoxYniXSaejbSuBSMNMD8Ywm0m5jtn2rt5Hw1VXX98pIdflnQf9kB6XDoHRHh2G+zpc8qlDlq/Le/f/no6BhqZPApiDwj+06vybltCT8TtapVD3nzwJcErh42NAcLDbUx3vRS/MSIPhfFBQ8Ekfc05JON892SA7Xrkc7vke64FPZqfVu5UEeosEFIB7y0iqfvRJCfRqADMk60gW6cmhEpM6nC4w+dGdi/d7+sb/7zxX7PizzqSFQ5FdjlY+HeXb8dlDkVoO16/OZI6OJJAjzYO7I6/eek+vBjDrgcyGMvvJOXRPVgQSFpgFHzpkSLd0jeQQlp7cmWuLZHI7XiTLDBjAmrVODIPnD4HWWQ4EYnNLC4ICA7v1bc9N+fl7YPD1FUJFR3oms+isBHRX3mRpNZLI0Z5VlnKXw4H6unopBQYY3QwrdR0sgV4N4PUbNmHsmFGi4Cy0+xoMIgEqMzPErPuyFEGCg7sMZIdGo5WSQ0dKH3OLJDV4vARBwFol2VHMNjMTy4wjgcCyE5k+fD//zdISSyD8m8kZvoOZTyo4L5ZyhJlUWSl17vT0AeJZ2Wa+k+UulqZ40at6gLJ8+UoMHTpYyAVkuLHtfD/LVnxfdlaOMKRY5uDzHQFMULNtLOmR3sgyHcskLHux7QQUCRKsArCExTYEBQfB5eS73fVtvo/lNJZiCgoLpRzGvrB8RfCxDMeSHllvbJtH7myPhwTDWjV/x/eR0RQR4eZUszTGOjC/7fHybBNr0swSs7TFchf/n8+S4cbyDymfHromf0dDILTRXnz1agCv+HEV+iXESxab/FRzPamRBmH3kMq5e/ceoVoWFhaKohE0wSEhAnTWVAODAoWYTO/Ewj9BS4WhErOmbLfbEBkZhc1btgqphApMIEZGREhNkgrsqePSCNBbshbJWjDByWvT5i3CZGJGlIaEZAmWNLJz8zBuzChsIFFiUIYoJ0FGRhUvApjfIIh5VVZVC6GgsalJ6JaFhUVCVGHNkoClgpM8QeNAoAq3urEJGo1LGE4s4UgNODhI2kFixY4dOzFl8kRhOY0eM0rawEjGwzneti0TgUEkSxiFD81FG6ztsqwTHRWFbdszxYCylhsdFe2mPLbLh7VyZoADA41imDxUTPaF5SlSTdlOXgQ5STiUEb/NGjC/Q8aTpbFR6sYkv0h/AOkHx6yyohLDhnUvovFWjPcJADM0oxKUlZeLpyBASJwwN1iEFEIPQ89BAPsbjeI9yAwjIN3FfPfclAB2r6gxoL6+TrwPCSPbM3cgfeBANFgaxKuFhgQLg4rEB36XHonkALJG3CwuP/H4vL5ZshTnnXu2tK2mulb43fQ2xSXFQrLYsGkTxo8dK0wkEi0ISjeAf0TGoAwhP5CmSU/s5+snICERg+Etgc/Lw4JzA1grjDL5vkYroEhJTkJRcamwkWgUWMOk51u1eo1QMck4mzRxgpT1eHkog1u3ZyI4MFD4xvSs9NjkspNHHRlpEq8aEGgUQKalpoq8nU4HQoL5DZc8Q3mEhoUip51LzfeTXZbYL0GiGzdBpVkMDwk5/kb3OJF6SjYfnyNLLjc3D3HxXOgBATQNZm5O3j6KrbcC9Ejt7rUA5sBv3LRFPAAvgpYewk179ENMdAwaGpsQHsYQ0Yzg4EBUVlbD0tSIuJgY8Vjbtm0XL+wOD5tQUlIiLC2Gd42WRkRFE8BOATDvIbeWTJ3IqAjhBgsX22YXr85wkOC3WJrg5++7j6lEcHkUmdEBvQ7/7XC6kJE+QDzwhPHjJFwl8Mjf9gBYGES1tbA0NCI0NBhVVTXCPiKDi+w0votzy9SU1Pa5sBvA9H7uhRA2aLQ6WUhCr8lFEJ7wurWtFXm5u3Heeedg48bNmDBh3EEALi2vQJxws91c6v0ALhEAk8m1cRO50gMl+igoLBa6IQFfXFwEP3+jgHLkyOHIyc7BuHFj5V2MBsgeCwwIRHNzE/ol9BMDxhoxn5XvpCS3AzhPvHFObq5QXwl6stk4lWkwm4Ul5uGCHwkM3vj7XglggpcejXNKelTPRWBQaUl1Y5hM8HF1EDm69JAMN+mZc/N2CyeXPGfOnQsLCoVnW1RUIvdznshn9T4+4iG4coXzOqFd6nTwMRjavTWJZA75tye77Mkek4bIubDMm9tILXTto0d67qGnpuJz3stVOuQFExSMGLgYQEJMDdDa0irfIEWRl6+fLxx2B5wup7yf80DOX/k9GhV6UoLB4XJCT1n4+srcmfd65sr8FqMHkjQYOhsDAuT7/KCOK61cLmmTh23G35EaSlqpzHP1ejEOjZYGBAYFwW6zyfRBeMIGH5EZpyN2h1OiHxo3ApWhuHjd5mYZF7aJ/eS0x50/cOcW2BfKlLJjGxi10CjxZ+75MisQkGcZTvf0NejHajx6LYA9IOiuYMjDzs7OFmXlggUqF+eAVJihw4ZKhrZjaaO77z3Ufd3N0Hb1vAdkR9MGhtb0djRU7iWJPefyJAyZOFPX0UmgVwL48CLoejOAznXIjgu4j06k6u5jkcCx1I6P5Tu97Zk+CODeNoSqP31ZAgrAfXn0Vd+9XgIKwF4/hKoDfVkCCsB9efRV371eAgrAXj+EqgN9WQIKwH159FXfvV4CCsBeP4SqA31ZAgrAfXn0Vd+9XgIKwF4/hKoDfVkCCsB9efRV371eAgrAXj+EqgPeJYETe9qiArB3jb5qrZLAARJQAFYKoSTgxRJQAPbiwVNNPx0SOLEh8PH2QAH4eCWonlcSOI0SUAA+jcJXn1YSOF4JKAAfrwTV80oCp1ECCsCnUfjq00oCxysBBeDjlaB6XkngNEpAAfg0Cl99WkngeCWgAHy8ElTPKwmcRgkoAJ9G4Z/YT/es+uSJ7Zt626EkoACsdENJwIsloADsxYOnmq4koACsdEBJwIsloADsxYOnmq4k0AsArJI3So37rgR6AYD77uCpnisJKAArHVAS8GIJKAB78eCppisJKAB30gF1zKUChTdJoE8CmCfI8wT3zhfPBOZp7zzl3VsvHmxeW1sLHljuOZCc/TIajQgPD5eDy3vDxX62tLRIXzlm0dHRYD/72tUnAcxB9ih3VyD2ZiWoq6uDn5+f/Omo0FT21tZWhIWFeXP3xPDabDaYzWaEhITA19cXFosFQUFBCsBePbKq8SKBmpoa+Pv7i8fteNEjE8Qmk8krJUWDS+CyD4wiAgIC5G/+XAHYK4f02BtNRejKA9NjMXz25jCztwKYY9bY2CjGidGF51IAnj+fTIg+ddntdnAO1VX4rNfrvToU6wrAVHJ6YIbQ3uqBOV5tbW1g/oJhM//Q4CoA90EA92Zr5ZkD01N19FIMPQmAEz8HPnVMOIKYnpgGmMYoNDRUoiUVQvdmje6ibw0NDWLJO18Mnzm3MhgMXisRKjf7RwXvmIWmx2LShxGGt18EMvvJqIKApidmZKGy0N4+st1sPxX7UHPg3qAEnfvnqW2zb72hfxxmz/h17Fs3h79X3dZny0i9ahRVZ/qsBBSAj3roT92c76ibph7ocxLoJQBWoOpzmqs6LBLoJQDua6OpDFZfG/FD9VcBWGmCkoAXS0AB2IsHTzVdSUABWOmAkoAXS0AB2IsHTzVdSeD/AcMXKOR5Ze26AAAAAElFTkSuQmCC;" vertex="1" parent="WIyWlLk6GJQsqaUBKTNV-1">
          <mxGeometry x="445" y="1850" width="240" height="520" as="geometry" />
        </mxCell>
        <mxCell id="ZbRekK_5Z5T81OuFVQke-90" value="" style="shape=image;verticalLabelPosition=bottom;labelBackgroundColor=#ffffff;verticalAlign=top;aspect=fixed;imageAspect=0;image=data:image/png,iVBORw0KGgoAAAANSUhEUgAAAPAAAAIICAYAAABQC2PPAAAgAElEQVR4Xu2dB5QUVdqG3+o405MzOWcTggkExIBZ1jUjxt+0qKC4mFFXEBMqIiiKec056xLMOQEiSo4Dk3PPdO6u/3w1zkiemZ5O1f3WOewKXXXD893n3lvplnL99der4EYCJKBLAgoF1mXcWGgS0AhQYDYEEtAxAQqs4+Cx6CRAgdkGSEDHBCiwjoPHopMABWYbIAEdE6DAOg4ei04CFHi7NmAwGCB/dt4CgQDkDzf9ELBarVosnU5nc6FNJhMURdH+yG9erxd+vz/slWrKc3cZqaoK+RPsFpTAimJAbm6OlqdAqK2tRXJyMtLS0jQgdXV18Hg8O5RJfrdYLNq+skmlCgoKUFJS0uqyG41Gbd+doZvNZmRmZmp5yp/tg7Z94hK0lJQUuN3uXconwR0wYAD69eu3Q3kE7qZNm7B06dJWl5M7to5Aenq61h6kLey8STwlJtJxVlVV7fJ7VlYWampqtMYv7cJms6G+vl77u6R3xRVXaG3i4Ycfhsvl0uI+ZswYLe4i9wEHHIC3334by5cvb05b2pGUSX5vaqPSViorK1slmbQvyXv79iltPi8vb7cDQ1PGkofU0efztQ7cdnsFJXD37t1x8MEHa/JKhd966y0ceuihyM3N1Sr/zTffaI2+aUtKSsJRRx2lBeT999/X/rlv37648MILMXXq1L0WWoBIx9ClSxdIOsXFxdqf7TcBNHbsWDQ0NGD16tW7yCZpSAA7d+6Mrl27agEpLy9HUVFR88ian5+PU045RQu6NAbJc9u2bVpnIH+XhsAtNAREOBFThNq8eTPWrVvX3OhTU1O13w477DBtUJD//vLLLyFyNXX+cvzRRx+NrVu3oqysTBsIOnbsiO+//15rA7Idd9xx2uAgbXTNmjUYPHgwTjjhBHzxxRf49ttvcdFFF+Hll1/W5JZN8pI22bt3b2RnZ2v5iVjSSaxYsUIrY0sjpZRdJLbb7c37ihfSPqWe4oYMbiK41CEnJwelpaUYNGiQVkb509YtKIHHjx+Pzz77TBPpnHPOwQ8//IDhw4drQEaPHq2BlQrLJhXq378/Dj/8cA22CCyyHHTQQRg5ciRuvvnmPZZZgtKnTx9NKhFPAMjx69evbz5G0pBeToIonYkAkiAJmKaeUDoOSWf//ffXAiZyyr7PPPOMFiTZmgSW3+U3SU9GXfldRubtBZb0JC35/59++qmtzBN+/549e2pi7rPPPlrbmDt3riaabAceeKAmgIgoMZRYSUPv0KEDvvvuO20fkWvIkCHIyMjQYl9dXa2NXhs3btTamGzjxo3T0pS2KZ2/yC+iyO/SeUuMf/311+Y2IiO6/C4xlZjLsdLeZNCQv0vnsKfTKBkcZFDbsmXLLgJPnDgRzz77rDazGzhwIJYsWaINIL169dLq/vzzz2ttbdSoUXjjjTfa3DaCElhGzkWLFmkj2LBhw7SRqlu3bhoUCY7IvXLlSq0wTaOv7Cv7fPDBB5q4MlJeddVVuP3223db6COOOEITR+BJhyCVl2mGHC+SNm0XXHCBNkpKRyH/Lj2o5L9q1apm4BLw/fbbT2sEMs1yOBxa43n11Vd3EFh6aPltw4YNWvLS40pvvO++++4gcKdOnXD++edDetzbbrutzdAT/QCZCR1yyCFap/zpp5/ijz/+aEYiHbvIJhKLbMJYRjA55quvvtL2E7EknsuWLcOkSZPw3HPPQQQUwUTipo5ARlXpYGVf6YwlbrLJjErao8R6+03yErGkDct/S3uSckj7KywsbG4rO8dP0pXZhMxEdx6B//3vf+OJJ57QOhGpr3QeMiBJHeTvTz31lFYuOV5kbusWlMAizeLFizUI//znP/Hxxx9rPaFMe5qm0DL1kO2ss87SpBIQAlh6KZmqiEgC65NPPmkOzPaFl2NEfuldZXos+8rUR0bg7acykr5McYYOHar12HJuI/vIdKRpPxFY/r2pHNJbS+cwf/785imUjMAnnXSS1rE09fRSHpFeZhnbj8AyKsiMQnrSn3/+ua3ME3p/OZ2RzlnkkBmWyPTOO+80n/9JnKStiFxNAsupmcRHRtMmAeXfRCwZxURakUJG6qbOQGZcMkOUkVpiKHGtqKjQ2qmILR2CTM2bRn5JV8omMsmIKPlLO5WBSjoVGaSaOgdpR5K2CCh1kLa2J4FlkBIxZV9JW9qzbPL/Muo2jcAjRozQOoC2bkEJLNBEKIFy+umnY+bMmRoYGalkCiqjr5xPyrmwyCPzfam0gPz888+1fxNYEyZMwEMPPdRcqd0VXo6V82cB9PXXX2sj8PabBE0agUzr5ZxHOggRsOncRvaV/KTHl/OiJqll+iQdT9OFg6YptAROOhXpgKSMU6ZM0YK88zmwNAK5IBKJq5htDWqs7y+jpUyRpfOVTlpOZZqmpxJP2WQ2J+eNIlPTlVrpoGWTUe7cc8/VGrzMvmSWJPGVU6emuMs1Gjmte+2113D11VdrnbykJ/Hq0aOH1lZkQNg5fjIASfmOPfZYLFy4UGubIqHM6KS9NA1KMhuQkVo6CplF7E5gaT9yqiW+/Pnnn5oH0makzUl9pY5SfvFGBgIpX1u3oAQWgCJs0zlnE7TtrxLL79Lwm4SR35ou3TcVUoK3vWh7KnzTCb/AlanMzpvkJUEU6SQg2/eqTfvKuY2I3LTJPttf9ZO6iODSYzcBln1FVOl9Z8+e3Va23L8FAjIiyai4/R2LpivSIpm0D2noTRd3tp95SVuQUx6ZHsvv0rFvPyUWgWUgufjii7VzZemwJS9JU46VAUhGv6ZrINsXVcog03bZX/KUGZe006ZySmcvbW37q9/S/qSD2fkqtLT5pmsuu7tFKe1VTg1F5JYuku0OZ1ACs2WSAAnEBgFl0qRJwd9Fjo06sBQkkLAElKOOOooCJ2z4WXG9E1D69+9PgfUeRZY/YQlQ4IQNPSseDwQocMxHUSZIuz4rHPPFZgEjQoACRwRzUyaUMaK4EyAzCpwAQWYV45cABY7f2LJmCUCAArc7yJwWtxshEwiaAAUOGh0PJIHoE6DA0Y8BS0ACQRNos8AKfDh5JBDw+7DgRyt8ft7iCJo+DySBdhJoUWDRs+lRLZF37EgvJp5phwEO3PZkLr79PbWdRYj1w3mOG+sRCk/59BH3FgVugqPAj+MP8+CG8+zokFWDGlcBzrjRiG0V8S5weJoHUyWBUBBolcAKAhixvwv3TXQgy1aJWncB/nVPEn5bZ4WqcgodikAwDRIIhkCLAiuKiiF9HZh/ixs2czkq7Lm48dEUfPe7RdZGCCZPHkMCJBAiAi0KnJIEvDqjAX07bIXbl4QHX0nHywtT4Qv8vbpFiMrCZEiABNpIoEWBjQYVI/crwQ3j69GrcwBfLjFizlvZWLklE/4AR+A28ubuJBBSAi0KLLlZTD6M2r8CE8+wo393FV8uMWD2myJxFs+BQxoOJkYCbSPQKoElySSzF6P2r8RVp4vEAXy33Ig7n83F5rLMtuUY03vr49ZBTCNk4SJKoNUCN0k8Yr9KXHeOHd06peDEaxVsqegY0QIzM70RYKcYzoi1SeCm6fTQftXweP34bX02fAG5Gs2NBEggGgTaLLAU0qA0fhJR5W2kaMSMeZJAM4GgBCa/lghw2tgSIf4eGgIUODQcmQoJRIUABY4KdmYaPwSiO9uiwPHTkliTBCTQBoGj29MkYGxYZRJokUAbBG4xLe5AAiQQYQKtEJgjb4RjwuxIoNUEWiFwq9PijglDgJ16rISaAsdKJFgOEgiCgNKvXz9+nTAIcDyEBGKBgNK3b18KHAuRYBlIIAgC7RyBt1+zMojceQgJkEC7CPAcuF34eDAJRJcABY4uf+ZOAu0iQIHbhY8Hk0B0CVDg6PJn7iTQLgIUuF34eDAJRJcABW4Ff15rbwUk7hIVAnEvsKIAnXPd6Nvd0PyVtsISFdYkK/IyvfjqVz+gmNEpx42U5MYYdMo3bRcMBfWuZFRU1aNHJwOaZF6/NYDMDBty0lzavm6vERu3AcWVsocC+ZbUiMFAcYWCdVsNyM0EBvYyYV2hCo/bhf49gGSzHzWOZCxZ6UNmuln7fXORH9vK/Ni/nwUZaQp+XFaHwwc3rr+tqiZsLvFjS4kCf8Co/ZvF6NZ+L68xYsV6yduAft2N6JjjxsqNPpRXW5CT4cZ+fWQh/gA2bAMKSw1Is/kxuJ8CgwEIqEYUlQPrCgPo1TUJBdlGLFvjwZD+QE29ASvW+bW8kix+9O3qR27m35/TWbFeRXmNBfL5na4FPhTkGLFqsxH2BmD4YDPcbmDd5lr07GzEHxsU+P3Avr1VbC31oXPHNGSnSjmBshozDPCiT1c/OuVb8ctKRSuf2ejReNY5DFi7OQB/ABjQI4D0lMYyBALAuq1A53wLUpIa961tMGDlBsDpida65ZF71DTuBTYZAzhrdBEuPRVYuiqAAMza4vSHD83DCYeU4bYnbFj4owVnjNyKXl0MWLkJOGz/JAw7wACHy4Blq/0ore0At2Mrjh8ewKqN0lSN+OgbE04/vgMOH1SGz3/xIjPNjHWFZjz7UQpKqkwwwIPn7vDC4fJi4gNJOGGYE+OOt+LxNxXs27MGBw5QUFXVgH0HdcPDLwdQ50jBXVcn4am33Xh1gReP3pyCIQNNOGXCGnz8iFcru82WiVq7Dw+/asG6ohStseamlOCL+QF8udSMKbNtcHmTcNcEP04aVoOb53jx5bIMTDm3FoP62NDg9KC23oK5r5uQldqAx28J4OtfPUhJTYViTMHc10w4elgqThxhwRV3NeDZ2zxYssaKyQ82Ctw5px43nl+D7DQfSqqkQ1Dw/EdW/L4pBwa4ceHxVTj/ZCNue9yC7/5Iw+LHU1BSATzw5J+48mwjbpiTDIdTwaxrnXj5EyfOPmUARuy7Dc99nInZr9n+Sr8Wow7KwNm3pmD+LX54PbX4c4MfuVlWvL7ApXUC/7ncC4fTh5oGMzxeBZ//mox/nZUGq6ESG7apyM004pWFyfjkRxv8cf752zgXWIXJqOKc0Rtx5FAfpj5hg19Ng8NjxvUXmnHaiG0orU7F+bf7cPSQOvTuDMx5Mw0miw1P3uzCtgoL/jPfAIvFiNNHlaEg24c5b6TBr9pQ77LgvmstGNq3Fqddb8RRB/lx/skm3PdCGr74tbHnP2RgHR6dUotb5tlw+lEK1hYqWLvFhKvODODhV4Eff/fi+vPc6NHZirlvpuKuq2x48u0AXl4AzLvFiKEDDDhpwma8NsOO254wQTGmYeIZDXjmQysW/pIPFSbkpRThs8fsWLZGwfwPu2DtZj/uvtKJw/ax4/rZCtzeZNx0oQc3zcuA0+nBded68cWvwIZCL+bc4MbY64zo3T0X90xKxrMfpWoj88kjFVw2PYDnb6/GktWpmPRg44ykS04tbj6/FF8tUfHFbznajKDWkaR9cscIFy46oRTXnevGF0vTMe3ZXLx2rwHFlQbMfHI1Jp4F/HtOBhqcCmZPrsFLHwPjxvbA8H2rsK7QhHNuteH4w43419htyM9JwgXTOuCpqXb8sd6Ee591YtwxVTAZDXh9sRH/udyHeW8CK7fmQlUNyEhLxv2TVCxf48TT7ym4/TIPTOZ0XHlfEpzuqMxsI5ZpnAsMyAgsAl9xWgC/r7PCBxue/CADpx8F/GNEHf7coGBzkROr1tWjR2cF97yYD6+aiTdnVGJreTKufdiG1CQPLjmxECePDGDNlmT4YcN9L2bg5otUHDawErNeT8OQfl5kpTpw7wtZWFOYpAVQgRdzrqtG785uVNcZcefTqThxVCpOHqHgshmKNp3dv8tq3HUlMOu1dNx+Zee/BFYw7xaDJvCJEzbjgwfr8fpnqbBabThyqB/3vWDFZ7/atOmyCPz6DDsWfgs4DR1QWp2Ew/apx2EDqzHtKQOGH5iLAd0bcMYt+do0VwS0mFR8vdSP+ye58d3vGUhJNiHJ7MYdT6Xg5COzG8t3154Fzs82oqw6GT4k45pZWVpdmwQevq8L+bkWPPthCiZfmI3CMjMemL8KE88GpszJQP1OAh+yrxlFZQ247+l67NPbj2MO9iMrIxkTH8rRBPZ73Vi+3ogUUyU+W5KMH/+wYPrldfD6TKhzJMPuTsFjb6dh9mQnqmrd+G5FEk4bVYuFPxjx2Lu58Poi+fXMyE2dm3qIhBB43BEbcfxwH2a9CPhgwcayAkweb8HYkQ6Mnwo8eZMdq9bXY0vZ3gXu1dGHFz6SNKxYXdQJM68xYNR+xfizMBeZSeV48r1kvPdtDnz+v8+9+naqwZv31OOdb3Iw7SkzJo834eSRBlw6PYD1W4EDuqzG9KuAWa9uL/COI/CiRx3YVJqJrDQfPvo6gHnv5cLuaFyPWwR+4U47Xl8E7NM7CQrc+GkFcP5JKh57y4zhB+ZhYHc7TrulIwzwNQpsBr5e6sX9Ez24fDrQMT8Jk87LwX8/TkJejqUFgcuwYk0AP/4pZ9RWLNvUYweBuxW4UFxlw7HDDOjZJQ2rCtMxc/4aTDxbxZQ56ah3GrQR+MVPgHNP6YEDBwCvfFiNw4emoKTSAKtFQZ9OXlz1YCqevtWODYU+zHm5DqMGe5GSYsT7X5m0GcWbC1VsKDbAE7Cizt0Vs6+rR0aKRxO2uKwO057Nx8ZiW/PH6SM2JEY4o4QQWEbgww9QMWlWLnxqOlQo+M9lAYwd2YBDL07BecdsxJTz/Hht4d4FTk9VcM8LefCrKdqa2HOv9+HAvg047z9puPWiSqzd7MXMl3K0ht20pdkCWDS7Es98lIn575px/DA3rjunGlMeCmD55gI8O9WB9GQ3Zvw3A9Mu9+D1RX68+L8kvDzDj6zMDIy/YRNevcuOWx6zYcgAM4YfoOCu57OxprDx65Ai8MvT7Xj0TRv+MdqIffok45a5wMQzKjD/XSNKKgLaOfFlM2wwmNNwy3ll+N8PBhRXGDDvZi+GXZKOTh1yMfd6F75cYoIPKS0K/OG3Fiz4uQNUmJvXBm8agbsVeDDvvXzMnmLC/j2KsWxzX9zzxDbccakddzydg+oaD+690o5Zryi45IweOKCvC1feG8Ar06rx3pd+raMaf4IVl99r0wResjoFkx/y4cSDt+DEkSa8sdiIy0/14J7nk7F8k3wVxICuBQoevs6NX1aq2oxqwqnVuO5hC/7Ykq3Ng+J3U5EQAp8+YhP+fZ4PqoilKnh1kQl5uVkYcYAbo/6ViV6dgfk312HRN6V46NV8eJGB52+vQFF5Em6el6pd3bxgTCH+b2wAAVVGPgXz3jFj8IBsDOjuxAnXpuGoA6vwr9MCeOi1bHy/4u9Pr6baAnj3ngq8sCATz39s0S5u3XkFMGZoKRSDAQ1OLy6dYcWW0kycO6YGV50JyDeZ5erquVMDqG0w4ulb63DToxlISc3GdedU4Nn3gU+XNp4D59qK8dStdbj1MQuGDlTRu6uCJ99JxsxJdjz3oQlf/dETc6Y4sX/PYgBm/LY2Cfe/nI1UcylmX2eH1WqFogawvsiEma/kY/gBSThumIKJM1U8fmM1clKqEQiY4PKn4dNfbMiwbMGIIXJFX86LFdz6RBI+XVIARXVh/DEl6JrvwePvd4JFqcKrMxxYX94ft81TcfeEBgzsViPX0rG1MhuTH07B1We7sX9PJy6/NxMPXevB10vdKCxLwiWnOHHtrBTMmVL3V/4GqDDi1cXZ+PBLO265qA779DFpZXB5gEfftmHsESn4+U9g7mvAvVdVwWy24abHMuHyxLPAiH+BpcFIY7IoFVpHLGcpPjVD+38THHCovbRbPo2/++FRC7TGkqxsQQAWuNUOf/1eCZNS3dyZe9UsKIofRtUNh9oDRjhhVUrhRaZ2Dt18joIAbMpGeJDT/O9yLpph3Yb8rAA2lGZq5WlsZj5kp1Qh0+ZEcU0mHN50GOGG1bAVbrUjAqoVFqVMO+P0qLlaOZt/D3SEQfFAgQ9eNQNJhkL41CxIOaXTyLGVwGo1aOkGkAYj7LAq2xqZqBa4ka/NLMxKFYxKPdyBjkhWtmlXl1WtcIa/yumBUWloPMdXARcK4NPqG4BFqdRuBbnVPG10timbhCzcaieNT356hXYeXmrP1fKyKCUwwwWH2hVmpVq7QyCdgpRB8k8ybNOuI2hk1Ex41DytLlalBAbF3Tw9FhYSS7k24VFztFiaUQuH2jPuvx4S9yNwy9On8D+mEf4cdl/L0OQbmlRajgP3CIYABf6LWnSbaXRz37nh7Lk0e/oltsofjAh6PYYC6zVyLDcJyAlH//79uaQOmwIJ6JQABdZp4FhsEtAuJHIEZkMggdggEMyVhHYLLLcF5I0Wo0HuX8b3PbemMMvHzQMqtDdrwv2Rc7nFZTIqUAzyhhO3eCAg56xqQIXPr2q3AtuzBSWw3GvMyVCQnQGkGLeiW4EXPbtlINVmhkFsjuNN5HU6vdhWUo+1W7yw+7uirsGC8io/fIG/H+BoD4Iksw8FuUakWBxIN2/FoD4pyM1JRpLFJL1ke5LmsTFAwO32orzKhT/X1qPO2wUNHhtKK/xwebd/jbV1BW2TwDIadO0A9O1YiWOHJ6FHRw+qq6q1hwXkT9ON+NZlrd+9pAMzK7Xagx0ZqWbUe3Pw8RfVWLk1T3u+2a8GJ3KS2Yu+XeXxzBocOyIHXkchHC4LvMiGT5XXB9vXW+uXeHyVXDySh2HMSiVsFi8sKV2x4JtKLF2bibWFJri8rW8/rRZYGtfgPrUYd4K8OlaLLeU5+OwnF5avDsADeSNFryND8G+QmNCAnp1cOG5EOvp0rITVmoSPvvbh2xVZqLa3RTYVnXK9OHGYA0P6OVHnMOKPzZlY+E01yuukY2x8cYFbfBGQp9zy0qWzzsI+3WuQbvNhyRobPv7ehqIKGY23n83u/gy5VQKn2lScMrwah+9nx6aybLz7ObCh2Kat5MBNuq6AtgLG0Qe5cOigepTU5uDxtyyoqDVBptx7vzagolN2Ha6/wACb1Yd3Ppc3fVJRXd/4zDW3WCcQ/ADwd81UZKV6tLZz6pEKnG4zZv43gKKq9BbbQIsCm00qzj+uDsP2qcVri634aXUu6hoo7u6alcXoxYBuNbjuPBMq7SmYOs8Ap3vv5zUZ1mrMnKzCjxTMeimAtYXyhk/bz4VivZmzfE0E9vw0mzz33berF5PHGyCzuymzFNS6G9+33tPWosCH9ivE9Rf4cO/zFizbUACfn41rr0DhR/f8Wjz8bxW/rk7B9GcaX+7f3SYP/r8ywwOPz4zrHzGgpFI6Ro66LcseilGv5Vyis4eKDjk+3H9NAFajD+dMtUDdyzWVvQpsQSU+f7wej76VhlcXZyKgxvcV5tAFTEXP3G145W4XzrvNgPUlvf56o2fHHKac24DTRrtx/CQT6lwyXeJGAo0E0pPq8MkcL979woqZL6UGMwIH8Ox/FOSkuTF2ihloPt+N594vtM3nhvPsGDsqgNETkuHz73ghKtNaggVzHTj/dmBNca/QZszUIkggfD70K1iPF+5ScNzEJNS4Ou22TnscgTtlluHdB5w46RoF5Q3dIggkGlmFJwjyDuziudV48CUTPvw+v7lictHr/kkedMpTMf62v9ayjUa1mWcICISn7TQV7KXpThSVK7jhEctuHxrao8BTL5ZFxhSMmyr3H4Pdgnk4rK15RSKPtpbp7/0vP6Ucxxxmwzm3Wprvk2fZ6vD8HTWYMkvFmpJY7Bz/ZhrbdIOPi16O7NthCx6cDFxwZxZqHGm7FHu3AsvI8frdtXjkZTe++L3bLrdBhg5U0KXAoD1KuG6bCas2BLd256BeRm3N37+3PTcXs9GHQT0bFx73B0z48ldZ41iO3P0xxw9X8NlPKry+5vXc9xKz8PWiuSmleO4OJy6dkabdXpLtxGF2TDg9gHNvT4XdseMV/QE9gH17efHpzwbtXnJ+ejUOGqTgiyUmODw7ngtJnI4ZlowF3zdWTUb2wf1lxUgF+/UBPvspAI9v99Xu28WNwf38ePMzs/YEXe/OHixfK+tm7/mi285xGjHYjx+X1WtLEHELD4FUmx8vT6vH428Z8PH3rRRYll95/o56nD8tB9UNO17GTrHYcfFYBbWONFTbDZrAqzc4YVLqtKVnvGq61pAUxastmyKXw5uf91RkSXS39lSRUXFg9o1ZuO6+bdoyKHJFVpqgLJXiU1O1heFkmRX5b1meZUB3H44f5sWWUit8gSRN4Lp6WS6nTPvdI0vcyA0YpU5b3uX5u3JwxQwVDQ4/zEqF1jClbJG+yptqA16/24lHXvHifz82Xqj6z+UBpCY5MfVx2y5rNl10iqItFv/Qix6sKuqIK0+tQrq1Ei8uSsXWyg7bcc6CRanGk3fm4P9utwNKQFvz+qABbpRUWXDvpCT8624f7A6hUwdF8WhL4jQ9FHLG6Gr0zS/D/5bmoaIuC6eOqsf8Nx3wIVVbukeWrlEVRVs2R/5HHjqQf9diCz98SMN9k3y4c84WTWBZLFBiZkQDTEq99nc/kmFSahBQbTAoLu3fuLWNQJJFxV3/cmhfB5E1ynfedjsCH9irHPdMNODMW7Ngd+x4kCxMNqi7HZ8t7YDqerMmTe+OFTh+uAHVtR5sK0/Cxq0NyMsElm7spDXGLUVOdC4wYVBvK9xeHzZsM8LhMmHOTSm49t6tKK1Ox/gTTfh1lRkdc1UsXZOM5etNuHuCF1PnaastYfTQAA4e6MMDL5qazwVuuNCM5X+sQaotCaqlC4rLVfTtWI7Kag8mjMvDObeYcO14I378ZR3S0mworeuAb5ZF9vVnWxIw53ovVqw3YdbLjbeIZk+uw4+/VeH1L7vtsASt/PavMwyoKt8Eq8WC17/Ix5szLZj34kpsKZPnofPQs0MNvF4PSqpT8d0yD167T8Gz7/lhMgWwcnM2uncE1heZMfUSiyZwiqkM555owaat9fAhEx9+Y9ZEO3N0NVauLsM1lwzC9Gidff8AACAASURBVCc9OHWUA69/UomOuUZsqshF744OVFbbYTEr2ihfVevDwD75+HOdA906ePHSwixcM86HeocJvyzfio4d8rUZz0EDHLDb63DI4M6Y+aIF0yf4sanEhgVfl2HtNo7UbdO3cV3zs4/YgkMOyMY1s3btAHcr8JiDajHlQhvOuNEMu2PHLA/ub0deWjW+WtFB+zqBLBL+j+ElWLvVD5cnGX26OFBf70eyFVi8rBtOG1mKFWvqkJtthNGcjYoaH7rlubBkfQFevCcdp15rR8csJ84fm4aHXgKG9negwV6F39epmD6pA659SK7eGjB6qA8HDQzggRebnhNVsfgxI86+yY1eXRSccbQFS9cAyRY/PvjKj0dvtuDSaX588JAXF964EQftZ0F+x36Y90bjImmR2qQHnXa5Q1vQ7tZHG/Oec10x3llUhy9W9NnlabZrx5uwbJUD409MwtRZ63HV+Fws/qYcvoABqclmGMw5+H2dB9dflIo7H6vCvKkZmPSAioMHBtC1gxVGE7BsjQFXnmHUBP7H4cVYv64OtjQFnQuS8eriVG22IgIv+aMMQwZloLw6gP36p+H9xWXo282AFVsKcGBfJ7YVVcBkVtC7ezo2lmSgf5c6fLnUgskXZOOJt/y49FQPnnu7Bj5DJkYdUAd7vUFbm3nB13Y8eFNnXDw9FR/MNuP82wKoqPbC6eZtyLa2O4Pix5H7rsM/j8nA1bM6tG4EPvLAGtx4sQ1n3mTZReBeBVU4dJADC38tQGWdGVazijOPKMXin9zwBVJx8MB6+LzySZMmgUuwYo0dGekmNHhzUF7lwQG9nfh+VSe8+WAmjrmiHv061+PM49Mx42kVVqMdV5xugsXowmuflKOwpp9W6NFDVRw00IcHX2xcYlS2L55QMPoKFf26A1f8U9E+iCXbKwsCeHGGCRPu9mLRIzW447Fa1MpHujZlot4d2WmcCHz3BBfqPWm4fV7jCemcyaX48IsaLFq2q8DXnWfArytVHDrIDdW5ES8uADrlKcjOtMLnBVxqR/y8woPHbk3HjQ+XYc6NeTj/dj+OGOLD4P5J8PoCjQKfadAEvuC4MlRVVKOyIRkbS9P+GgUNzQJXOXvihXuysOCrkp0EbsC2oioYTQrycjKwviQLvfJL8eUyG+64ugOef8+NS0/14s45xUjL7ooxQ8tgMBjRu4sJ3y2tQXGVESs2d8XieRYcecUeTsTb2poTcH8ReMzgdThldDaunpXXOoH37V6KmdcoOGuqfAFgx15TzoWmXWlCUVEpthT54PDno7q6Ahf9Iw0l5R5s2Kbgq1/suOa8FGwuCuCQ/ay4/+kypKea4fDloKLag316OvHzmo54ZUYAT71VieXrU3Hq0Wl44IVGAW+7zIyjDrXilEkNqHc0Tnk753lx7hgHXC4XCku8+Hp5KmbdkI9FX69FVnoSTMldtK/rHdCrAqqSjOGDU3HWTT7Mv9WMTz7fiIo6CzaU5GL1lsiOAjKFnn+rHz/8Dsx9vbHjmTXZgd9XV+GFBZ3g3e4rDvLb1WcHsGy1guUrK3HqUUa89EkKeuVtRO+e+UhPS9VOX1xuOVUx463PFbx2dwAvfexC905WLP4lCUMGpmD5OiMu+ocFPy3ZhEU/uDHtqjy8s7jxUzG/rW88Dz51RDV+W1mGbbX9cOlJJUix1uGZ9604c4wFmelG9O5qwaOvlCOgKsjNzsDG0kz0yCvFN7+n4ObL8vDSx15ccJIfW7dskoVz0atHAV782IUTh3tQVt4Alz8V736dibdnGnHK5EACqheKKhsgF28vOLYI+/XP1j7zs/O22yl0sqEIr82ox6X3ZKOsLnfXg+BDklIMA1x/rSecCotSrq1JLGv3yjmWVSnSVl6W7+eIloq8BK/IYtxGGBQnfGoaTEotLKiFSy2AQZFpZq425+/fcRP6drfhox8Ldvi2TePay7Iusl9ba1heX0xWNmsLtrtUudEtaxOXaw20cX1k6bECf+0jF7ry4d/uqwmhQNxSGuk2P96414kZT/nw1fLG9aKnXmpAp+wG/Hu2fHxrx0cnZU1kVU3SvuHUuKnaq2cGVS4cyVrK5doFQlk3WS5PyVrMZlRrb4R51WyYtYtGjVeSk5RtaFB7/7VPDbxqDjyQMsjay9Xa8XKR0IR67dVIt9pZu+ikXWiEfJbEAIMqa+HLAgZJWtwa146u0S6ISTqyZnXj+tCN61ZrMZWLhqoNLrUDkpVCONVYvFXWUuRi4/dkq4oHr5HP1aRg+lO7doQ7CdzYmKTxvzK9Bq98Uo/3vuse0Zpkprhx+pg0fPKt3MBu30sT8haQvA0Uza1XQQUevrYW425LRYOvQCvK8EHVuOMKA866xYrahtbctolmDdqXN+8jt49fhs2F1+9x4875AXz3x64vNuzxQY6rz2jAmEO9+Of1tjh4HzV893lbCs/UiyrRJd+ECffL7bDGDslqqMErdzkw53UzPl+263lNS2mG8vfWC9b6PUNZvranFb1Yt72sLR9x1OByXH2WF+Om2uAO/P3Fj6Yj9yhwfrod7z3oxI1zzfjqt72/0tRyMRJzjyxbOT6erWLKwxZ8+0fjlLNpu+q0Kowa7MO5t6dp90ujtbVey9bvGa26xFu+csr48jQ7vlpmwqNvy4fadt32KLDc373kxG3aV+ll+ifnV9xaT0A+5fngNXXIyTDiomnWXZ5wyklz4P2HvHj+Qwvmvxc9gVtfI+4ZaQKX/8OJi0724JTrGt8vb5PAsnOqxYO3H/JjyUo/bnlUGmHr1+r5O7P4mtK0Noj/d4obV57uxOnXG7G5fNdH4OTi1LABRbhvog+X3mXBmmL5VCY3Emgk0K9TCZ6+1aO9J/7D6s57fIKwxRf6u+ZU480HTHjz8yQ88F/tYUUyboHAsYfYcdN51bj+YR9+3dBzj/ANSgCTzijHiP3rceX9NpTZKTEbF5CfVozHbnDg699TMeeNvL2+h9+iwHIbZp9upZh3qw3vfWnCvDcNcHqToDZ+c5JbMwEVFlMAJx3uwmWnVOGRV3xYtLQ7/IG933e2WlTcdnENuudV4Z7n07G2OE97AYNb4hEwGVX061yBmy+wY3N5FqY/mwl3C983boXAjbeVZMGtWy8xYsmKarz7TTbWbbWg3inrNyWSyE113fHWVJLZg675Xpx8uANjhpkx9+UGLFqSD6+/5VMOuc2VmRrARSdWYNQQFR9+Y8Piny0oqTTBy+WLEsJieVhDltE55mAPTj7cia+WKHjukxzt4+4tba0SWBKRt1AGdPdC3mI5cGAqvvixAisLc1HtSEFxmRt19V54fXLXv6Us9f+7yaQg1WZCXo4FeRk+dM0pwgkj81BS4cRrn6bihxXywoW86NF6HBajrGrpxBlH+7UV+z/90a1NqYvL/ais8cDpCsDvTwC4+m8eLdZAvmKSnGxETqYFHfOMyE8rwdGHWmE2qnjjUyM+/cUGj9/aYjqal239NpIRDowcYsRB/evQvcCN7NyOKCqpQWlZFTzugPbJkXjeREqLxYCc7HR07pwLj7MKG7e6sbIwDwu+9+7yzm7bWKgoyHLg2MMU9MovQZ+eHeDxmlBYVIbaugZ4I/seRtuKzr1bTcBsAjIyUtC1cz4sJi/WbSzDhtICLPxBRWmNPIHX+lltmwVuKqUsgdkpx4n9+qUhO8MPuWclU+3E2IzwIwkN7iT8scauPf/tb370MTQELIZaDOxlwYCeqTAb67X3c+V6BLd4IGDQHo7yBFKxekM9Vm7wwBMI7lXLoAWOB4yxWoe2TL13rENi3rKL1ThGolxRFpgNLhJBZh7xSyDKAscvWNaMBCJBgAJHgjLzIIEwEaDAYQLLZEkgEgQocCQoMw8SCBMBChwmsEyWBCJBgAJHgjLzIIEwEaDAYQLLZEkgOAJtu7UalMDyFYXeHapw+vHZGNwXMCuV2sr9rX/yN7iq8SgSiBcCKizaWuEbipLw1sIyLF2XBr8qn85p27PIbRJYJB1zsAcTTneia16ttia00ZhY7yPFSwNiPaJPQMwJBBS4vSqq6tPwwicpeHWBAe7Anr8HvHOpWyWwQQE65zow4Z+VOPUI71/fMYo+AJaABOKJgAi9dG0aZr6cieXrrC2+Sy51b1Fgg6JiSH+PtsLEvj1r44kX69IigeCfym4xae6wRwK1rmxMfdyCz35NhT+w93eCWxR4nx4u3HdVLfp0qiHymCRAyWIyLO0slMOXgRvnpmHRz3t/vXCvAtvMdsydUovh+za0szg8nARIoK0Eqh3ZuGh6ClZv2fWTKk1p7UXgACafXYvLx8onU9p2ZaytBeX+JEACuyfw+dJ0XP1Alvb++e62PQqcl1aO9x5wITt1p++LknSYCHAqHCawuk7W6THixnkdsPCn3V+Z3qPAN13ownlHb4GslJeYG4VKzLjHVq3l017fr8rDJXdlNH+aZ/sS7lZgeVDj9RkV2LdHXWzVhqXZOwH2OXHZQtYWAuPvSEOdW77AueO2W4EzLFvx4rQG9O0alzziolKbS1Px2ZJknHdsFRyuAL75zYJeXeQTHDas2SyfcFUBxYf9e9VhY3Ea/jGiFis3W7C52AiXV5YEtsDrB8xGIDvdg7GHV8UFl/BVInq9Y3mNEXc9n48FP+36cfrdCjykbwVmXlWFznmJOn0OXzMIVcqfLSvAvx9Jx7VnOzD6gGJMe1LBcSOysGprFmpr7ejbuQGK6sU5x1tx2T2pOGOMCas3AX26eJGR3ID1RSl46oNUXDG2HHmZDpx5lDwKyy0WCTg9VrzwaXc89OKuq1XuVuBjD67F1IvKkZ/pj8X6sEwAROAbH1GQnebFteNceHORq1ngFEs9BvepRZdcN3p3DeCdL3Mw/ekADj8ggBvOc6JnRzdcaheMvDwF3z9ZBBPsZBrDBHxqEt77oS9unSsrk7ZiCn300FrccXE58rMocKzGVQSeOqcGl59uwFufmpGRqmLsaCtWFWahqNyNHvkOHNivHsce6sLPq3Jx8V1W/PMIP248vwZpSa4EETh6095QthtvIAnvftcHt83bdWHw3Y7A+3QtxezJtehSwCl0KAMRyrRE4NseqcHCxxXc+Gg+1m4J4JKxLk3g/fqZcOSBDiiKDxa1DLc/nQ27Q0Gy1YCxIxow+sA6uNXOHIFDGZAwptXgsuCZ/3XDo2/s+ljlbgVOs1Tg5WlV6NuVAocxLu1K+stlKbhzbgMWPwn89IcVdz3pxv+dasbarTYsX+NBdmYABtWP4w/z4Zn3gfsmp2Dhdy5s2ebH1eOAnNwCHHtFNT6bb4J8bYNb7BIorjRg6hPZ+PaPnNZNoeU7A6/NcGC/HsV8CitG41rvBEorgN5dAbcXKCoDsjMa/7vmr1NamUDKv9U7gG4dFdTaVdQ3AHnZ8nkYIzYU+tGrq8IYx2iMm4q1ptCIcbfnosGT2TqBZa/zj6vF9eNKYTFzFI7x+P71LR3GKfbj1PYSBlQDvlvZE5fOkOlzK69CSzZm1OLTx+qQn8HpVdux8wgSCA0Bu9OAM2+2YVN5590muJeXGRSMO6YGUy+qgFFJlI+WhQY6UyGBUBCQF/wXLemKSQ/Kiwy7/2LhXl8nlEcqH55sx5iDqiDnxdxIgAQiR2DZuiRcPC0NTn/2HjNt8YX+jORaTL/cjjGHuBPo86GRCxJzIoGdCcjVjGVrzbjz6UysKtyzvHJciwLLu8Cdcmpx1elOjB3pgcngInESIIEwEVBhwqc/K3jm42wsW5ehLXq3t61FgTXLEUB+lhunjHDjjCPr0L3AFcFbD/HxNE2Y4s1k44hArSMFb3+RjFcXmbG1QtbDMrRYu1YJ3JSKzRpAh+x6HHOQE+NPsiA/jat1tEiYO5DAXgkYUOdKx4ffmPHWZyoKKzJR1yDi7n3kbUqyTQI3HqTCbAKsZiDJUIq+nWoxoE86stLNUOQVNm4kQAItEmhw+LBuiwO/r1XQoHaD12uExyt2tU7cdgjcYtm4AwmQQAsEVFWFouxJ1tZ/XiWIEZixIQESiBUCFDhWIsFykEAQBChwENB4CAnECgEKHCuRYDlIIAgCFDgIaDyEBGKFAAWOlUiwHCQQBAEKHAQ0HkICsUKAAsdKJFgOEgiCAAUOAhoPIYFYIUCBYyUSLAcJBEGAAgcBLfSHtP7RudDnzRT1TIAC6zl6LHvCE6DACd8ECEDPBCiwnqMXsrJzCh8ylBFOiAJHGDizI4FQEqDAoaTJtEggwgQocISBMzsSCCUBChxKmkyLBCJMgAJHGDizI4FQEqDAoaSpi7R4xVkXYWplISlwK0FxNxKIRQIUOBajousycYSPZPgocCRpJ0xelDhSoabAkSLNfEggDAQocBigMslIEkjs0Z4CR7KtMS8SCDEBChxioEyOBCJJgAJHkjbzIoEQE6DAIQbK5EggkgQocCRpMy8SCDEBChxioEyOBCJJgAJHkjbzIoEQE6DAIQbK5EggkgQocCRpMy8SCDEBChxioEyOBCJJgAJHkjbzIoEQE6DAIQbK5EggkgQocCRpMy8SCDEBChxioEyOBCJJgAJHknbC5JXYr/hFMswUOJK0mRcJhJgABQ4xUCZHApEkQIEjSZt5kUCICVDgEANlciQQSQIUOJK0mRcJhJgABQ4xUCZHApEkQIEjSTtqefG2TtTQhzljChxmwEyeBMJJgAKHky7TJoEwE6DAYQbM5EkgnAQocDjpMm0SCDMBChxmwEyeBMJJgAKHky7TJoEwE6DAYQbM5EkgnAQocDjpMm0SCDMBChxmwEyeBMJJgAKHky7TJoEwE6DAYQbM5EkgOAKte/yVAgdHl0eRQEwQoMAxEQYWggSCI0CBg+PGo0ggggT2PJ2mwBEMA7MigVAToMChJsr0SCCCBChwBGEzKxIINQEKHGqiTI8EIkiAAkcQNrMigVAToMAa0dbdNA81fKZHAu0lQIHbS5DHk0AUCVDgKMJn1iTQXgIUuL0EeTwJRJEABY4ifGZNAu0lQIHbSzChj+fFv2iHnwJHOwLMnwTaQYACtwMeDyWBaBOgwNGOAPMngXYQiAGBeR7Vjvjx0AQnEAMCJ3gEWH0SaCbQ9sGMArP5kEDUCLRd2J2LSoGjFjxmTALtJ0CB28+QKZBA1AhQ4KihZ8Yk0H4CFLj9DJkCCUSNAAWOGnpmTALtJ0CB28+QKZBA1AhQ4KihZ8Yk0H4CFLj9DJkCCUSNAAWOGnpmTALtJ0CB28+QKZBA1AhQ4KihZ8Yk0H4CFLj9DJkCCUSNQJQFbv/D3FEjx4xJIAYIRFngGCDAIpCAjglQYB0Hb+9FT8TZTeLVmQLHrcCsWCIQoMCJEGXWMW4JUOC4DS0rlggEKHAiRJl1jFsCFDhuQ8uKJQIBCpwIUWYd45YABY7b0LJiiUCAAidClFnHuCVAgeM2tKxYIhCgwIkQZdYxbglQ4LgNLSuWCAQocCJEmXWMWwIUOG5Dy4olAgEKnAhRZh3jlgAFjtvQsmKJQIACJ0KUWce4JUCB4za0rFgiEKDAiRBl1jFuCVDguA0tK5YIBChwIkSZdYxbAhQ4bkPLiiUCAQqcCFFmHeOWAAWO29CyYolAgAInQpRZxxYI6Hc9aZ0JrF/QdCiRCESunepM4ERqBKzr7glETg49RIAC6yFKLCMJ7IEABWbTIAEdE6DAOg4ei04CFJhtgAR0TIAC6zh4LDoJUGC2ARLQMQEKrOPgJVbReftod/GmwIllAWsbZwQocJwFlNVJLAIUOLHizdrGGQEKHGcBZXUSiwAFTqx4s7ZxRoACx1lAWZ3EIkCBEyverG2cEaDAcRbQ+K8O7wdvH2MKHP8tnjWMYwIUOI6Dy6rFPwEKHP8xZg3jmAAFjuPgsmrxT4ACx3+MWcM4JkCB4zi4rFr8E6DA8R9j1jCOCSSYwLyHGMdtOSGrlmACJ2SMWek4JkCB2xxcjuJtRsYDwkaAAocNLRMmgfAToMDhZ8wcSCBsBChw2NAyYRIIPwEKHH7GzIEEwkaAAocNLRMmgfAToMDhZ8wcSCBsBChw2NAyYRIIPwEKHH7GzIEEwkaAAocNLRMmgWAJtP5hIQocLGMeRwLNBFovXKihUeBQE2V6JBBBAhQ4grCZFQmEmgAFDjVRpkcCESRAgSMIm1mRQKgJUOBQE2V6JBBBAhQ4grCZFQmEmgAFDjVRpkcCESRAgSMIm1mRQKgJUOBQE2V6JBBBAhQ4grCDyyp6T/kEV14e1TYC7YsvBW4bbe5NAmEiEJzIFDhM4WCyJBAJAhQ4EpSZBwmEiQAFDhNYJksCkSBAgSNBmXmQQJgIUOAwgWWyJBAJAhQ4EpSZBwmEiQAFDhNYJksCkSBAgSNBmXmQQJgIUOAwgWWyJBAJAhQ4ZJSDe5ImZNkzoYQkQIETMuysdLwQaIXAHFniJdisR/wRaIXA8Vdp1ogE4oUABY6XSLIeCUmAAidk2FnpeCGQAALzHD5eGivrsSuBBBCYYSeB+CUQYwJztAx9UyPT0DONnRRjTODYAcOSkIAeCFBgPUSJZSSBPRCgwGwaJKBjAhRYd8HjOa3uQhbGAlPgMMJl0iQQbgIUONyEmb5OCehjpkOBddq8WGwSEAIUmO2ABHRMIE4F1sf0JzbaDVnFRhyCK0WcChwcDB5FAnojQIH1FrG4LS9nAsGElgIHQ43HxBiBxJWfAsdYU2RxSKAtBChwW2hxXxJoN4HQzhYocLsDwgRIIHoEKHD02DNnEmg3AQrcboRMgASiR4ACR5x9aM+BIl58ZhhTBChwTIWDhSGBthHYTmCODG1Dx71JIPoEOAJHPwYsAQkETYACB42OB5JA9AlQ4OjHgCUggaAJUOCg0fFAEog+AQoc/RiwBCQQNAEKHDQ6HkgC0SdAgaMfgxgtAW8rxmhgdigWBdZDlFhGEtgDAQrMpkECOiZAgXUcPBadBCgw2wAJ6JgABdZx8Fh0EqDAbAMkoGMCFFjHwWPRSYACsw2QgI4JUGAdB49FJwEKzDZAAjomQIF1HDwWnQQoMNsACeiYAAXWcfBYdBKgwGwDJKBjAhRYx8HTR9H5WmI440SBw0mXaZNAmAlQ4DADZvIkEE4CFDicdJk2CYSZQJgF5vlPmOPH5BOcQJgFTnC6rD4JhJkABQ4z4PAmzxlOePnGfuoUOPZjxBKSwB4JUGA2DhLQMQEKrOPgsegkQIHZBkigVQRi83oDBW5V8LgTCcQmAQocm3FhqUigVQQocKswcSd9EIjNaW442VHgcNJl2iQQZgIUOMyAmTwJhJMABQ4nXaZNAmEmQIHDDJjJk0A4CVDgcNJl2iQQZgIUOMyAmTwJhJMABQ4nXaZNAmEmQIHDDJjJk0A4CVDgcNJl2iQQZgIUOMyAmTwJhJMABQ4nXaZNAmEmQIHDDLj1ySfec7ytZ8M990SAArNtkICOCVBgHQePRScBCsw2QAI6JkCBdRw8Fp0EKDDbAAnomAAF1nHwWHQSoMBsAySgYwIUWMfBY9FJgAKzDZCAjglQYB0Hj0UnAQrMNkACOiZAgXUcPBadBChwQrQBvigRr2GmwPEaWdYrIQhQ4IQIMysZrwQocLxGlvVKCAIUOCHCzErGKwEKHK+RZb0SggAFTogwB1NJXrkOhlqkj6HAkSbO/EgghAQocAhhMikSiDQBChxp4syPBEJIgAKHECaTIoFIE6DAkSbO/EgghAQocAhhMikSiDQBChxp4syPBEJIgAKHECaTIoFIE6DAkSbO/EgghAQocAhhMikSiDQBChxp4syPBEJIQOcC83ndELYFJqVDAjoXWIfEWWQSCCEBChxCmEyKBCJNgAJHmjjzI4EQEqDAIYTJpEgg0gQocKSJMz8SCCEBChxCmEyKBCJNgAKDt6Ii3eiYX+gIUODQsWRKJBBxAhQ44siZob4JxNaMjQLruzWx9AlOgAIneANg9fVNgALrO34sfdQIxMZUmgJHrQEwYxJoPwEK3H6GTIEEokaAAkcNPTPeO4HYmKLGepQocKxHiOUjgb0QoMBsHiSgYwIUWMfBY9FJgAKzDZCAjglQYB0Hj0UnAQrMNkACOiZAgXUcPBadBCgw2wAJ6JgABdZx8Fh0EqDAbAMkoGMCFFjHwWPR+bglBaYFOiFAWXcXKAqsk+bLYpIABWYbIIE4I8AROM4CyuokFgEKnFjxZm3jjAAFjrOAsjqJRYACJ1a8Wds4I0CB4yygrE5iEaDAiRVv1jbOCFDgOAsoq5NYBBJYYD7Zk1hNPT5rm8ACx2dAWavEIkCBEyverG2cEaDAcRZQViexCFDgxIo3axtnBChwnAX07+rwIl3chna7ilHgkEeZ4oQcKRPcIwEKzMZBAjomQIF1HDwWnQQoMNsACeiYAAXWcfBYdBKgwGwDJKBjAhRYx8Fj0UmAArMNkICOCVBgHQePRScBCsw2QAI6JkCBdRw8Fp0EKDDbAAnomMBeBOYzvTqOK4ueIATaMAJT6ARpE6ymjgi0QWAd1YpFJYEEIUCBEyTQrGZ8EqDA8RlX1ipBCFDgBAk0qxmfBChwfMaVtWqRQHxclKXALQaaO5BA7BKgwLEbG5aMBFokQIFbRMQdSCB2CVDg2I0NS0YCLRJoQeD4ONFvkQJ3IAGdEuAIrNPAsdgkIAQoMNsBCeiYAAXWcfBYdBKgwGwDJKBjAhRYx8Fj0UmAArMNkICOCVBgHQePRScBCsw2QAI6JkCBdRw8Fp0EKDDbAAnomAAF1nHwWHQSUGpra+WBZ24kQAI6JKCoqkqBdRg4FpkEhAAFZjsgAR0ToMA6Dh6LTgIUOKptgO9bRxV/HGROgeMgiKxC4hKgwIkbe9Y8Dgi0QWBO9+Ig3qxCnBFog8BxVnNWJ24IyJ1QRVHipj5tqUhCClxXVwePx7MLJ5PJhJSUFJjN5rYwjKl9/X4/1qxZg5KSEgQCAa1sBoMBHTp0QN++fSF11Psmwko9Kysrr07gUwAAAdNJREFUsWrVKqSmpmLIkCEJKXFCCry3Z1f03pOvX78eGRkZyM3N3cHTiooK1NTUoE+fPrr21+12w+VyYcOGDejevTsyMzOxbds2dOnSJc4Ebt0pa0IKrOsW3ELhZUTKzs5Gfn7+DnuWlZWhqqoKAwYM0GX1ZcR1Op0oLy/XZkgyo5DZhMwy4lPg1oUpIQWWhuDz+XYhJFPNpKQkGI3G1tGLwb3iVWCHw4Hi4mKtc8rKymomT4ET8FlomYLtSWCr1RoigVs3BQp1HxCvAnu9Xtjtdu1PWlqaJrGc7lDgBBQ41NLEUnrr1q3Tzgt3PgeWqaecA8uFLL1uImt9fb02lZbTgV69emnTaU6h9RrRIMu9ZcsWyJXonTeZPsu5lVzV1Osms4vNmzejurq6+Sq0jFQyYvXo0UM7RdD7JrMnuZglV9obGhq0GdOgQYPi7CJW66KUkOfA0pPvaeIh58GxdSW67VNxueCzc/2kTno+t99dc96+nvFwe6x1yu64V0IKHAwoHkMCsUiAAsdiVFgmEmglAQrcSlDcrYlA26f0ZBc+AhQ4fGyZMgmEnQAFDjtiZkAC4SNAgcPHlimTQNgJUOCwI2YGJBA+AhQ4fGyZMgmEncD/A1Jg2sO5F4kEAAAAAElFTkSuQmCC;" vertex="1" parent="WIyWlLk6GJQsqaUBKTNV-1">
          <mxGeometry x="760" y="1850" width="240" height="520" as="geometry" />
        </mxCell>
        <mxCell id="ZbRekK_5Z5T81OuFVQke-91" value="" style="shape=image;verticalLabelPosition=bottom;labelBackgroundColor=#ffffff;verticalAlign=top;aspect=fixed;imageAspect=0;image=data:image/png,iVBORw0KGgoAAAANSUhEUgAAAPAAAAIICAYAAABQC2PPAAAgAElEQVR4Xu2dB3gUVReGvy3pnSRAQg1VQKqA9CpNikgXUKRIkQ52VBAR66+CdBAUkSqoKCJIL9KRDkLovaT3bPufc8NGIEC278zsmedBk92Ze895z/nuuXNnMqN6/fXXTeCNCTABWRJQsYBlGTc2mgkIAixgTgQmIGMCLGAZB49NZwIsYM4BJiBjAixgGQePTWcCLGDOAQ8nQBdhVLJlwAKWbejYcCbAq9CcAwol4OPjA7VajYyMDOEh/azRaKDX6+Hl5SV+zszMhMnk/NsgVCoV6N/DNurfHhtsrsB+fn4IDQ3F9evXhV1arRbBwcHIyspCWlrafbbSvvQvPj5efB4WFib2J4g3btx4ZApFRkYKyEajEd7e3khOTobBYMg35ShAFKgHwQQEBIACS5+npKSIfR62kW2BgYFISkqyC26+hnr4DpQvxPhhyU25RXGg2Jvz5l5clEOJiYkiPpRH/v7+SE1NFb9Te4MGDRL5+fXXX4ucLFmyJCpVqoS9e/eiWbNmiImJwYwZM5GUlJjbLOUN2UQ5Qhu1Q8fGxcVZlAeUXzRQmO2gNihvKY/p80dt1Af5+Kh8fFya2CzgihUrolevXhg3bpxon2C1adMGly9fxo4dO3L7JMNr1qyJEiVKYMWKFSAnmzRpIhyKjo7GokWL8gieDi5evDiqVasm2iMRFylSBMeOHcPNmzcfCpOCGB4eLmBRME+cOJGn3erVq6N8+fLChtWrV+P27dv3sSGbQkJCULRoURQrVgxnzpwRwTAPUh6uN4e5T7EiYbZo0QIXL15EbGxs7sBMAyd9V6dOHTHo089bt24VVZPEThsd37x5c1y5cgW3bt1CoUKFEBUVhV27duXGvFWrVqI46HQ6kQskTMpB+oxygHKKhHP06FHRJvVVtmxZlC5dGgUKFBD90fc0SFDekY35VcoGDRqIgX/z5s3iWNqefvppkZPkJw0M5iJENpPt5B9p6fTp0+KftZvNAiYgr732Gt5//33RJznctGlTpKen5xFw1apVhcDJMfqZKvT58+cFeIJK4B/cnnvuORw+fBhBQUECMoEhUZPTd+7cuW+AoDboH43KFAT6fuXKlbkBJ8HWqFFDtEV202BAQd25c6cAat4oiGQfjdYUONqPRuF58+bdZx5VhipVqogKQSO6fZu8F1Fs8Z2qHyUuVUQS07Rp04TQaKNBlmZHlCM0WFPMaGAuXLgw/v7779xco3jSYEsVLiEhQVQvyinKD9peeOEF0ebu3buFgEiAFFcScO3atUU+Ud5dunRJ7E+5Q0KimJL46FgSnK+vr/id9iWbH7ZRflH+kfDJ3k2bNuUKePjw4ViwYAHKlSuHChUq4ODBg6Ki16pVCwcOHBD2kA4aNWokCpy1m80Cpo4++OADjB8/PrdPGoFou7cC0+/kGAmDBEwip6pKQGnr3r07li1blsduqr7kaIcOHTB9+nTxPX1G26FDh3L3J6HT6EtBpKBTUuzZs0cEOzs7W+xH/bdu3VpUfWqTRFywYEFR/ek480aBqFevnqi6NODQqFm/fn3MnTv3Pvto5vDiiy+KJHjvvfesZe7x+9PASCKiWc7GjRtx/PjxXCY0W6NKSyImMRJjEiAds23bNrEfCaty5coiD0aMGIHvvvtOCJAERiKmjQYCGpBpgKV9qQ+KO+UIDSAUX/ru3mkr9VWqVCnxPf1MgzvZQvlEgn6UgCkfaDZx9uzZPAIeO3YsZs+enTuro1kf5SDZS+IlH83Hf//991bnhssFTAEiJ2jkI2ER3C1bNudZyifh/vnnn2JKQ8GgaSwJiqYx5iCRtyRYCgKNxC1bthSj2Q8//JA7NTKPrjTimfejEZ2gzZgx475pNgm4cePGog8KPoF+6qmn8OWXX94HNigoGPXr1xPf79u3z2royjvA8lkEzWiIMYmDBl463fn5559zhUQDPYmXZnJmAUdERIgBl6opbXQMfUZTaKrglA8kSIqreTAoU6aMyBmq1FS9//33XzEzozyh2NKAQFNzc+Wndsk2ygvKIeqfZnOUgzRg0H7maTHlJLVNAxD5QFPfRwl46NChIGHSvtQ2FQzKG5o9mAVM/VHxo1ljzmYFT3v+mOFxFZgESJWYTs7vrcAEj5wlp0lwND0lWA9utAixfPlyMQKSgwScpifU5r3QzcfRiEbn4FSlCdi9ozpNi0ic9B1NkyhQW7ZswalTp+4bVWmftm3bikGB9iEhU4Uwj/z32kh+UIW3ZFFNGoK1PCmcbS/Fiipht27dxBR1/vz5uXEgEdJG1ZIGbIq9eaWWptS00UyqZ8+eIuFplZnyiyo6xZTObWmjAZtmUzS7GzZsmDiPpfYoXuapNJ1CPRg/EivZR7m5fv16MY2nwYPaNZ+Dk92UE1SpaaCgHHmYgCmH6FSLBhk6ZaNzd8oZKiTmFXHKzSeffFIUArLP2s2uCkzwzcCoYzKGNnOlI6GZVwXNBtP3NAoSdBqFHyZe2ofEuH//fjH1Jajbt2/HuXPnHipe8+hJ/ZPQ6fyV/j24UVKQHTSSmle3792HgJsvMZg/l5dIrQ2/e/enikRV0XyqY44j/Z9ERvlF01bz4k7OIlLOQEQ5QTlCMzj6/rfffrsvl0jAJ0+eRN++fUW1o/NN6ovapGNpqkwDvbmqPpgHNG2n/al/GjDuvdxDgqb8unf1m/KZTr1oX8pr84IX/W5ee3nYSjQNIFTkaCDKb5HsYdGyS8DuDT/3zgSYgGrEiBHOv5LNnJkAE3AKAVWzZs1YwE5By40yAecTUJUvX54F7HzOCu1BOgtjCgWcr1syEDAnSb5R5B08loAMBCy32PCAI7eIydleFrCco8e2ezwBFrDHpwADkDMBFrCco8e2ezwBFrDHpwADkDMBFrCco8e2ezwBFrDHpwADkDMBqwWsgh7tGgJGgx7r9vhAb5DvE/3kHDi2nQkQgXwFTPI036pF4u3QUIfhXVOgRjremxuBnUcDmSQTYAJuIpCvgM12qWBA6zrZeKN3CgqHJSIxsxC6vKnB1TssYDfFjrtlAvlXYFGmYUSDKpn4dHg6wvzjkJRVCIM/9sXhWHrCI0+hOY+YgLsI5FuBVSoTapRNx5x3suDvdRt3UiLw5vQA/H3Um56N4C67uV8mwAQsOQcO8AWWfpSGsoWvIEvvi/8tCcbi9YHQG70YIBNgAm4mkG8F1qhNaFj5Bt7olYpSRYzYelCDb1YWwMlLoTAYuQK7OX7cvYcTyFfAxMdbq0ejKncwvEsKypcwYetBNab8RCIO43NgD08gdt+9BCwSMJno66VDoypxGNqZRGzE30c0+GBBBC7eCnWvB9w7E/BgAhYL2CziBpXjMKZHCopHB+DZUSpcuhPlwfiU5vp/V/zzesZ/5yzFaFslYPN0+qlyCcjWGXD4bAHojbQazRsTYALuIGC1gMlItSrnlYgmt15G4orgjoThPqVFwCYBS8sFtoYJeC4BFrDnxp49VwABFrACgsgueC4BhQiYz4c9N4U923OFCNizg8jeey4BFrDNsc+v6uf3vc0dS+xAT/FTYtjvmsMClmZc2ComYBEBFrBFmHgn5xHgCm4PWxawPfT4WCbgZgKqcuXK8dsJ3RwE7p4J2EpAVbZsWRawrfT4OCbgZgJcgS0OwL3P57T4oEfsaH6OmKPGzvxsy+97e/2h463xydp9HcXJbKcj23MEO9vbUPQ5MD1JU4t06OELE7xAv6tVWTCZ1FBDLx7WR5sJKvG9+EmlA0y0pz9M0IjPNEiHCVrxDDC1KjNnPxNgVGlEm0Z4w2jyFT9rkAUjtOKzvP3roUEmDMIeLbQqejxvNrJNYaJtemwv2Wc0+YjvNcgAdUS/a5EmHu9rVFFfPncFkyNM8kWNjBw7QN8BGmRDjcy7vpMtZFWq8FWPgLv9ZUOLTJhUKphMXsIu2ug42t8AP2hVqTCa/ms3x0f63nA366i9HL45rDJFHzl2qO7arRbf0J7Gu30QU9qHPoPKAKPJ7x7e5LcBBlOgOJ5aI9bEOKcdsiHjnvipYYTX3ZgaxD5ku3v/2MZ2UVpzpKIFTGKbMuI2th4thJ82eaNCSR26NInHnzsy0bquAdGROSNxtt4LB84UgCE7Hg2qZosU1plCMHWpEVfjIzFxsB4HTqpx43Y2ujS9I8RByZphLI6EFAOys7Lw2aJA1KmiRqfGGfhhrQZHYr2pFXw1KgkHzxTAwjUqNK2RivpVTVi8zg+Na3njqVLnoVbpcfF2QUxdAlR+IhgdG+ux+E8Njp5V452+BgT4mjBvZQLe6J0sbCWRHjwThhWbApCcRo80MiKm4B3xuN9NB4Pw05YwIf7RPfUoW/gypv/ki8txhdC5SQpql48TSf3XvkD8uTcMMQVvYXjX9Jx2Tb7YdTwAq7b4oHsrb5QqAnw0X4OPh8Rjz4lALP0r589Go8KS8WKreMRE5wg4W6fCrF+DcPJSpBBvlyZ3UL1iML5eFoQbcSp8OSoTpy6Y8M+xW6gYY8CKLRHQ6+nxxMlY8CvQ7dkoRIXews/bI7HruD8CvRPQr20iypYMwBszIvHpq/HwUiUIUSZlFMBPW0Jw5048BrRPQkRozgAcl6TG1sPBaFDFhIKhSWIAyTRGY/ysTKRkKvuBEzIUsDWXHYz4/Ssd4hOy8NLEYHRtno2hXQ2YOCsVI7sl4rdtRuw5FQqjiaqfBt2axSMz24A/dnrj7QEF4OejQq/xwfhrhgZrdwKxl9PR59l0zFlpwL8XqUJQwiVh4iAdhn+hRcPqRlQoacJXywviWpy/EPmITleFaMd87YNXu2QjLlGNI2d98VrvLHz+XTJSssIxeYQf/tptwqnLQRjbS4X3Zxmx5QCw6gstwoJMGDX5IiYOSsPMlRoUKeSHjo11eGNaEE5eLiDmDlVKXMOyyWlYt9sLHy+KRFyCEcs+SkbFkhkY+LEXUtNUeP1FHRav80ZYqC/aN8zA+7N8ER6UgSmvZWPAJKD6E0Ho2T4Cny/yQYvaKlQrp0bHsXpsm52IX7cG4YNvaTYClImKw6SBcVj2lwmx10JgNGpw8VYAUjP9RbV8+8Vb6N7SiDe/0eLP/cWw+ztg9xED1m05hwbVgI9/iEB2doaw97UvgXGvxqBG6Sv4dWdhvDvbH+0b6DCm+w1EhPmi3sAIbJ2ViO0HTVixPhmdm2Th8Flv/HPKiC9G6fHBHCApIxQ6nQYR4QF4+2UjtuxPw4a/UzFpmDf2ngrHB/P8rClosttXhgK2jnGDCqfx+ktAz3EavNBKheKFTZi5ygez3szA/JVGbPoH4rle/kGRGNY5DhdvaPHd2kKYNESFVnV0aDwk6D4Bv9AiCx/M0ePwaRJwAHz9fLFoohF+3kZk64DlG0z4cZ137rPCwoMz8cvnGThxXo3C4Sp8tcQXLev5omFV4NmRemRkmtC5wTk0qanCxoORGNEr7KECfvvlNIybXQDeWhMmvpKADxcE4ciFaDGNJAF/PToNZ6+r8fueskhJTsLol/xQOvJSzsBSIwARoTqM+KogtOpMTBl1G/+c8sK/F3X4fEQ2nhkE1K/hg1F9ovDZIl+0rpu/gL9eaMKJi4ABKqQZy4mgmAXcvGY2vHyC8OyYEGyY5ZevgJ8srcf+wzcwZoovhnX3QYUid1A2JhitxxYWAl6zDZi3Kh7Duupx8pI/9p8w4n8jMzFgPBCfBhhM3ihfrgQ+HJSFpevVYgazbHIy0rJD8PKEnIFHqZviBRwckInVn8bjl20+KF88C38f88HydSYs/ygBRQp7Qa/3RexlI96Ymo3BnXRo1zgEBlUQ/DV3MGaKFn8fj7pPwG/1ugVddgYMRhM+/zEQy7dEoUrJK1gyKQtrdwCTf4hEfNp/0zatxogejS/hnX4G/LDWD5/9GIbPRmvxRAktur2tQnqGAXXKxOLlDsCmf0IxtGfUQwX84yQd0vSR8NGk49g5P7wxPRDXbqtyBTz2hTQcPwPEZwaIqfih43cwvJsOb07zQZdWkcjMzMKIr6hiGzFt9DVcua3BniMZmP6mDolpIdBq9Ni6Pxuf/hiON/uF5VuBSxfzFU9jSUgPxLOjct7OYRZwSmo2GtUOwYXrAWhY0x+7jxj/q8CLIpCddW8FLo3SxbQ4dUGPwyeTULJwFgID/FGhFNB2TAh2zEmASZ+GDJ0WCYlpmLoiDFdvZuPLkckIDgqAweQlZi7fLPfDR4MTUTBMBbWa1ip0aDMsHdeTiilVu8IvxQvY19uEz4ZnoEE1Na7cVON/izXYdTAZKybfwcyfjFh/sKQAER6cheGdb4oET9eHoH0jLbqP80diqv8DFTgbH8wx4vC/RuhVvmLxJSbahDnvZOOv3UZ8tijvlK1CiUzMfjMZ01aGYvlGb7z9MtCuoR7PjdEhJU2FV9rdRMUYFdbtC8XI3v74aJ4em/er8OtXWmg13njry4uYPCQNqzYDjZ/yxqb9WizdVBiZOlqYy6nAb7yUhl3HQ1C+aApiipjw7gwfzBuXiTdn+KBqOV9UiNFj7NRweGmy8fmweGzc54UrN3X4YmQ2Gg4MRNUKBfDhECO+X+ON6k/4oGp5NTqO0WPHrET8ut0PE+eJdEHpqCR8ODABH3/vhaMXCov1AlrAonNrs4CTUvXYuM8H894zIcDfG1sOR+LPrZfQso4On/wQDqM+AwveS8ewz4AJw0ojyC8NS/9IxNg+wdh+WIssnRrNahjQcmQQts1MEv1/siAd/Z69hYLhWmzer8a7/bLR630f3EnNeSZbtfIafDgoE3uOpCEyTCWe2db7fS1SMmgxzZrTLnnpXaYCtjwgKpURdcpdxrfvG/DzZlXOOViWXgh49yEjjpwHDEYtUrMC0bJWCi7c8MLiP33w7ftGxF5W4X9LC2L9DO/cc+AeLQx4f7Yf/jmdcymE/lsiGpj5lhGb9hrw+aK8D7x/ooQeM99IxjcrgrFqixbli6ZiwoBkbN2bgttJGrzaqygWrwV2HNZgbM9UxJ6Px4lzeowbGInv1/pj18E7eKtPOt6dHYqG1X3RrYUJY77S4NTlgJxz4JJX8XafDExb4YvuLYwICgrEhFkmrPg4HmOneONmnI9I+ENn1PD306JscQMmzAlAdIFkfPN6FibMBMqU9EWTOuH4eokX2jTw+0/AcxLwz4k0rNyQBr3RH1k6DQY/n4qt+0y4dJvYqfBPbEHcTAq9R8AGzF9bHMO6G/Bii6vYcKgMfvw9ESO6p2LfcRX8vPWoUd6EgZ8EY8obQfDzzsSUZV74fHgS5q4yIDAwBL1aGdBiRJA4B6f+125PQ8Pqavx7JRD7j+swaXAGvl0FpGQBGVkaaLwjMLKnD5asV2PfsUxMHZ2MaSu0+H23lB+6aHkeP2pYkamArRslC4Xp8XK7dBw4qcWG/X7iEkTfdjRS56xC6w1a/Hs5CLrsJMQnq7H3ZDDaNdKgQrFUfLPCB4O6+OLkeRPuJOhE4v2xS4urt/57J1SBYKDrMyacuWTEpv15z7kKhhnQrXkWth3yxZFYWjk2oclTRtQpHw+NJkusEi9emw2DyRf1q6lQt1ISvNXpSNVHYdrSdBQO06N5rWys2RUAb60areukYZMQUISoLUUKJKF5LR3W/u2N6uVNSErJFu+terVLFn7dqsWVuBDUrZSKepWzRKXcuE+Df84EoWhEMnq01AsGJnjjcKy3qG6t6vmhSEEV5v1ixKju6dCoUsU+2YYAHDqtRtGI1NwVfL0e+HmrH2KvBYlLYs/UTEFmlgl7TobAYEjH2F4GnL4ajvW7stGoajqql8sQVXvnUT/sOBKIHi0N0GoMWLfbGy2fNuLYOTX8fU2o+US2WKsY2S3jbv9qJKUHYON+XyQnp6Jj4wyEBuXkQXKaCv+c9kOlMj44eEqFg6fU6NM2Gz6+Ppi9Utnv7vIIAVsnd9ftTdczc66N5ly7NW85n+dcX3bkJq65CrHSNW3HbNbeIqKCTsxbHGmDYzyRZyssYHnGja1mAoIAC5gTgQnImAALWMbBY9OZAAuYc4AJyJgAC1jGwWPTmQALmHOACciYgBUCtv+is4w5selMQJIErBCwJO1no5iARxOQvIC1Wi2aNm0qgpSamop///0X8fHxVgctJCQEDRs2xNWrV/HPP/888vigoCA89dRTOHToEBITE+/bz2xHREQEtm3bhps3b4rvNRoNypQpAzp2//79Vtk2cuRIzJkzB61bt0aTJk3w008/Yfv27fm28corr+CHH35AZiY9YMD2zdfXF6+++iq+++47m7g+qmd6e6VK5bq7oIKDg9G4cWNcv35dxCAwMBDt2rUT/9+3bx8OHz5sOyQJHyl5AVMA5s+fj1mzZgkBnzlzBgkJCSI5KEmmTZuGTz75BFeuXHkoZhoA2rRpg2LFisHLy0scv3btWnEsbfSXK0Zjzh+GlyhRAr179xb7/P7770hPz/ljd/PWp08fcdzRo0cRGxuLlJQU8RXZQgNE2bJlUblyZezYsQOnT5/OYw/1RZu5P7Ln6aefFkk3bNgw4eOtW7eEfzQoGAw5fzRP7dPver0e/fv3x7Fjx8Tve/fuFZ/d6wP9LF79ete/B4148PvQ0FDMmDEDr732mrCDtkcdaxbkvd/Tz6VKlUKPHj3w8ccfi+PffvttLF26FOfPn7/PNmt1QP3RPzMvM797GZpjWKBAARG7c+fOidjRcTSoDh06FKtXr8bGjRsf6hvlBzE0c36c/9ba74r9JS9gqmoUkG+//RanTp0SVbR69eooWrQonnvuOfz555/iX0ZGBlq0aIE1a9bgySefRKVKlcTvFPyZM2cK8VNFrVq1qviMkuybb74RAb9w4QImTZqEXr16Yfjw4SKBSaxmEZIwv/76a9EGtU9tLF++XAwcNCOgikwJ2717d5E4X375Jf7++2/89ttvor0PP/wQixcvxoABA0RMN2zYgFatWsHb21tU7S+++EIk2smTJ4U4K1SoIL6jmUDLli2xcuVKUUEKFiyIgIAArF+/XgxKJHqq2CdOnBC+0b8aNWqIgYoq+9mzZzFixAjBgcR05MgRUaWonTFjxgg7ycfSpUtj3rx56NKlC6iSff7559i6davw84MPPsC1a9dw48YNPPHEE7nfDxw4UAyaderUERxpYCEBE0v6P/VNtly8eBFhYWGCJ23UL9lBrHfu3CmqZHJysvjZz89PzHzouHLlyokYfvrpp8Lfl156CR06dBCxoYEmJiZGfLZixYpc/yk+ZDNtZBPNLGjGRUyfeeYZMegRryVLlqB27drCTxqsaWCgdigGZMuUKVOwZ88eV+jP7j5kIWBK4HfffVdMWSnwBJdGWxIVJQtVYRIgVUwKbnR0tEgoEjwlMx1TvHhxJCUlic/at28v9qMBIC0tTVQ9Eh8lhLlCUWXq2rUrdDodxo4di5dffhkHDhwQCUTBp7Zu376NBQsWCPEuXLhQJDMl+h9//CEEV79+ffTs2ROFChUSgwglI1XVH3/8USQnJfPmzZtFvyRG+rlw4cKiKpNfJBAabGiqTAlLgwZtNCWk/WmqeOfOHTGdJ6GRCMg/EgUxoZ93796NRo0aCb9eeOEF0R5VHBoIKMFpQJw9e7YYBEn0WVlZYrCkJKfZD31O7W/atAnjx4/P/b5bt25C8FTZyH4aqEgAtFHf06dPF0xowCB+NCsh/958801Uq1YNv/76K15//XU0aNBACJYGw7/++gsHDx5EzZo1xWBB03rqn+yg+JDtxIdmHuQ/xcPsP9lGvtLMiE5HKAZkEw1QJFLKB4o19UunLBUrVgSdhtAAt27dOjFIEk+KGeUXDWDmymy3ypzYgOQFbJ5Ck1ipypL4KBE6d+4sAkFJR8lFgqCE3bJlC0aNGoW5c+eKwNEUqWPHjmJkvnTpkggwVTVKSqoKb731lhA8VUyqajTtot8pSaiCUhCpQg0ePFi0R1WOZgAkIkqqzz77TAweZEuVKlVEglMiUnLRRrZS9aVpN4mFEopETKKaMGECVq1aJRKtX79+IsmpOlLFp6pDfvTt21dUk19++UXYRRWeqj4NDNTnoEGDxIBAFYY+N/tHpx1kL1UZ6pOqIPVL034aDEgYJDgaVEjINM0kRpTEVAWp6pJ/Pj45f2hB39GgZf7+o48+EnZTRaN2hgwZgsmTJ4vz6IkTJwoG1O7//vc/IR76jAZNEjSJmAYvGlhpwKMY+/v7i8GSBmGaBZBQly1bJvjRYGOuvsSH1jCIFw00Zv+bNWsm4kv8KV7kH80SaIZFHOjUhmyimQExokGCigAVBmrn559/FqdZVKWpTxrAKa/IJilvkhcwVVCaAtJGUyTaKFFLliwp/k8CJTGQAKkC0nSSpqUUNJoO0RYeHo66deuKRKYEJiHQ95TIJDqqbBR42mjaGhkZKcRk7o+mdiRaSh5KbmqPkoAqCAWcko+mozTtpe8oUWnqSBvZTqM5VW5qg/YlO8gGaosSjyoHiZZmArSoRJWXBhPaj3wkcZL46HPyl/qhc24ahKha0/kfCZ5mGff6R/4TP0p+SmSaFdDsgQSxa9cuYTtVURKEmSkNYPQdVTbaaPCjgZOqFE3tzd9ThaRKRQt7tOhWq1Yt0Te1RQIiwdAxNIuhwez48eOiPWqDPqMBhvzp1KmTED0xolMfYk99k4007SeBk8/kGzGkWMTFxQle1P+9/kdFRYk2iBvFgHiTTTQYEQcSLQ1Aly9fFqc9ZCdVfGqD8obyh+JGtpI/5IvUq7DkBSzV0Y+mpFQhSQRUvUgAvOVPgAYjmsXQ4CV1ceTvjfv3YAG7PwZsAROwmQAL2GZ0fCATcD8BFrD7Y8AWMAGbCbCAbUbHBzIB9xNgAbs/BmyBogi49o9+WMCKSh52xtMIsIA9LeLsr6IIsIAVFU57nXHt9M9ea/l4fiol5wATkDUBrsCSCB9XPkmEQYZGsIBlGDQ2mQmYCbCAOReYgIwJsIBlHDw2na187SAAACAASURBVAmwgDkHmICMCbCAZRw8Np0JKEDAvILLaey5BBQgYM8NHnvOBFjAnANMQMYEWMAyDh6bzgRYwA7JAT4PdwhGbsRqAixgq5HRASxYm7DxQQ4nwAJ2OFJukAm4jgAL2HWsuScm4HACLGCHI+UGmYDrCLCAXceae5IFAXmtb7CAZZFUbCQTeDgBFjBnBhOQMQEWsIyDx6YzARYw5wATkDEBFrCMg8em30tAXotPjoodC9hRJLkdJuAGAixgN0DnLpmAowiwgB1FktthAm4gwAJ2A3Tukgk4igAL2FEkuR0m4AYCkhSwBpnwU12EWuV4ItmmQGSZCsEEbW7jKujhp7oKrSrT8R0CSDaWz9OuN+Lgq77jlP4yTIWhM4Xc17YGafBTX4HaCT3qTAHIMBXN07K/6jy0qmyH92g0AemmkjDC5762vVV34KuKc3h/tL6daSoEnSnU4W3b26AkBeyjuoHp46IQU8zXXv/yHD9vxXUs3+AFAwJyvysQrMKQblo0q/WfqB3VcWo68NzojDzNtW+kwZBu3vDxclRP/7Xz/sxs7DxkuK/hOlVDMH5IMCjJHbqZ1Dh2OQojP4p9oFkVln5ZAZEB5x3aHTWWZSqMYZOu49yV+wfczs21eLWbA4HevTKVkGTC9BU6bN53P1OHO2ZDgy4QsGden7MhFnyIxAioTIDJCbNAR7rpAgE70lxuiwkwgXsJsIA5H5iAjAmwgGUcPDadCbCAOQeYgE0EpLG2wwK2KXh8EBOQBgEWsDTiwFYwAZsIsIBtwsYHMQFpEGABSyMObAUTsIkAC9gmbA87SBqLGg5zhxuSBQEWsCzCxEYygYcTYAFzZjABGRNgATskeDx9dghGmxpRMvv8fWMB25Q0fBATkAYBpwhYpVLBZKLRgzf7CeQ/CtvfB7fgbALO0oRdAlar1fDx8UFMTAwaNGiAwMBAZ3Pg9pmA7AmkpqZix44dOH/+PLKysmA0Gm32yWYBh4aGolSpUmjSpInNnfOBTMDTCWzZsgXnzp1DYmKiTSisFjBV3UKFCqFFixaIiIiwqVM+iAkwgf8IxMXFYf369bhx44bVp55WCZjm8SVKlBBVt0CBAhwDJsAEHESARLx161ZcvHjRKhFbJeBixYoJ8UZGRjrIbG7GOgK8oGUdL3ntffv2bdCU+vLlyxYbbrGAqeKSeEuWLGlx47wjE2AC1hG4cOGCEHF8fLxFB1okYJo6lylTBs8++yw0Go1FDfNOTIAJWE/AYDBgzZo1OHv2rEVTaYsETCvOHTp04EUr6+PBRzABqwnQVPq3336zaGXaIgEXLFgQvXv3ttoQPoAJMAHbCCxatAi3bt3K9+B8BUyXjSpUqIBWrVrl2xjv4BwCer0+dzT28vJCQECAuPifkpKSO82iG2p8fX1BNwnQNCwkJAS07507/z3I3c/PTxhId8n5+/uDYkurnzTDSkpKEp9TO+bvnOMNt2oJgXXr1uHkyZP53uSRr4ApCdq3b8+LV5ZQd9I+JMJffvlFrP6T6MqVKyfWIjZs2IAiRYqIz+jaPAn7zJkzyM7ORunSpVG1alXMnDkT0dHR0Gq14sYbWhyh9p555hkEBQVhzpw56Nq1K1avXi0GgPDwcHFnHV0upGN4cw8BWsyiabROp3usAfkK2NvbG/369ROjMm/uIUDnRJs3bxY3zxw9ehT0Oy0qbtu2DQMHDhRGZWRkYO/evaLyklBjY2NRq1YtzJo1Cz169BBiJdHTLXzHjh1D7dq18dRTT4nvX3jhBaxduxaVKlUSVfvUqVNo1qwZwsLC3OMw94r09HTMnz9fDMaP2/IVME2phgwZIkZ53txDgARLFZgqI1XQokWLihtp/vrrL1SuXFlU3ipVqoibAOj+WqqcTzzxhKi8U6dOFadANBDTcVeuXBFJcf36dXTq1AkLFy7MFXD16tVRvnx5MfLXr1+fr/e7J9yiVzpFotkT3Sttl4Ap8H379hVJwtuDBFxzYwUJ+M8//xTTYpoik7iomv7+++9o06aNOG+lqS+dz9KUKy0tTVTgtm3bigrbtGlT0PkvnetS9TVXVroH99q1a/cJmKbOf/zxB9+w4+ZkpxguWLDA/gpMozklAiVP/ptrEjp/O5S1BwmYbrNr2bKlmCYHBwchNDQMtNBRr1494ax5wYpmShSzI0eOoH///kLANWvWFOe3dDWBri+SgKlCU/WlakxTaDoHpnvbacGMpuF16tQRoufNPQQoTnQ9mOJhVwWmmzjKli2Ldu3auccT7lVUVJoa0/SW/mqFbrUjMV66dAkUH9qoAtMUmSpvQkKCmFKTUOmcl0RN+0VFRYmpGQmTFr2oWh88eFAsdlFlplVoWhSj72hA4M19BGh2RbOt/P6uPt9zYHKBVj/pOrA5WdznFvfMBO4loMwZH4mWrgPTzCu/zSIBBwcHo3Xr1mKE540JMAHnEqCFRlrzSE5OzrcjiwRMlZdWQOleaFrU4o0JMAHnEKA1CVpEpFOm/KbPZIFFAqYdqQo3atRI3ETAGxNgAs4hcPr0aXF935Lqa5WAaWda3KA/KaSFDt4cQUCZ53COIOOJbVy9elX8KeHNmzctdt/iCizUrlIJETdv3lz8nzcmwAQcQ4BEu3HjRiFeS6bO5l6tErBZxDSdpstK7hcxVzDHpA+34k4CJFq6bETTZmvEa/UU+l4n6Toh3dxBC1u8MQEmYBsBWrCimzby+6OFR7VudQV+sCGaVtPN8/xcaNsCyEd5HgHzc6HpVlZrK24e/ZUvX55foeB5OcQeK4SA3RVYIRzYDSYgSwIsYFmGjY2WFwHnLbaygOWVCWwtE7iPAAuYE4IJyJgAC1jGwWPTmQAL2CU54LxzIJeYz51IlgALWLKhYcOYQP4EWMD5M+I9ZE9AuTMgFrDsk5Md8GQCLGBPjj77LnsCMhKwcqdBss8idsBtBGQkYLcx4o6ZgGQJsIAlGxo2jAnkT8DJAuZpb/4h4D2YgO0EnCxg2w3jI5kAE8ifAAs4f0a8BxOQLAEWsENDw6cMDsXJjeVLgAWcLyLegQlIlwALWLqxYcuYQL4EWMD5IuIdmIB0CbCApRsbBVrGawSODioL2NFEuT0m4EICLGAXwuaumICjCbCAHU2U22MCLiTAAnYhbO6KCPB5sCPzgAXsSJpub0sq4pCKHW4PiNMNYAE7HTF3wAScR4AF7Dy23LLHEXD9zIMF7PYkc33Q3e4yG+AwAixgh6HkhpiA6wmwgF3PnHtkAg4jwAJ2GEpuiAm4ngAL2PXMuUcm4DACLGCHoeSGmIDrCbCAXc+ce2QCDiPAAnYYSm6ICbiegJMEzNc2XR9K7tETCThJwJ6Ikn1mAq4nwAJ2PXPukQk4jAAL2GEouSEm4HoCLGDXM7/bo7PWCZzVrttAccePIcAC5vRgAjImwAKWcfDYdCbAAuYcYAIyJsAClnHw2HQmwALmHGACMibAApZx8Nh0JsAC5hxgAjImwAKWcfDYdCbAAuYcYAIyJuBBAuY7lGScp2z6Iwh4kIA5B5iA8giwgJUXU/bIgwiwgD0o2Oyq8giwgJUXU/bIgwiwgD0o2Oyq8giwgJUXU/bIYQSkf+WCBeywYHNDTMD1BFjArmfOPeYSkH6Fk3qwWMBSjxDbxwQeQ4AFzOnBBGRMgAUs4+Cx6UyABcw5wARkTEDmAuZFEBnnHpvuAAIyF7ADCHATTEDGBFjAMg4em84EWMCcA0xAxgRYwDIOHpvOBFjAnANMQMYEWMAyDh6bzgRYwJwDTEDGBFjAMg6ea0zna+2u4WxbLwoQMCeYbaHno5RAQAECVkIY2AfXEFDeYM8Cdk3mcC9MwCkEWMBOwcqNMgHXEFCAgJU3LXJN6LkXJRBQgICVEAb2gQnYRoAFbBs3PooJSIIAC1gSYWAjmIBtBFjAtnHjo5iAJAiwgCURBjaCCdhGgAVsGzc+iglIggALWBJhYCOYgG0EWMC2ceOjmIAkCLCAJREGW43gm1hsJaeU41jASokk++GRBFjAHhl2dlopBFjASokk++GRBFjAHhl2dlopBFjASokk++GRBFjAHhl2dlopBFjASokk+wHA8y6rsYA58ZmAjAmwgGUcPDadCbCAOQeYgIwJsIBlHDw2nQkoXMCesKjhCT6yUB9FQOEC5sAzAWUTYAErO74y8o5nErYEiwVsCzU+hglIhAALWCKBYDOYgC0EWMC2UONjmIBECLCAJRIINoMJ2EKABWwLNT6GCUiEAAtYIoGw3wxexbWfofxaYAHLL2ZsMRPIJcAC5mRgAjImwAKWcfDYdCbAAuYcYAIyJsAClnHw2HSpE3D+wiILWOo5wPYxgccQYAFzejABGRNgAcs4eGw6E2ABcw4wARkTYAHLOHhsOhNgAXMOMAEZE2AByzh4bDoTYAFzDjABGRNgAcs4eGw6E2ABcw4wARkTYAHLOHhsOhPwIAE7/75UTicm4GoCHiRgV6Pl/piA8wmwgJ3PmHtgAk4jwAJ2GlpumAk4nwAL2PmMuQcm4DQCLGCnofWUhnlx0J2RZgG7k77H983itzcFWMD2EuTjFU5A2oMMC1jh6cfuKZsAC1jZ8WXvFE6ABazwALN7yibAAlZ2fNk7hRNgASs8wOyesgkoTMDSXjFUdiqxd+4goDABuwMh98kE3EeABew+9twzE7CbAAvYboTcABNwHwEWsPvYc89MwG4CMhKw0haolOaP3bnIDdhAQEYCtsE7PoQJKJwAC1jhAWb3lE2ABazs+LJ3CifAAlZ4gNk9ZRNgASs7vuzdQwkoZwGRBey2FFdOErkNIXcMFjAnAROQMQEWsIyDx6YzARYw5wATkDEBFnCe4PG5qYzz2eNMZwF7XMjZYSURYAErKZrsi8cRYAF7XMjZYecQcM+pFwvYOdHkVpmASwiwgF2CmTthAs4hwAJ2DldulQm4hAAL2CWYuRMm4BwCLGDncOVWmYBLCLCAXYKZO2ECziHAAnYOV26VCbiEAAvYJZi5EybgHAIsYOdwlXGr7rkhQcbA3Go6C9it+LlzJmAfARawffz4aCbgVgIsYLfi586ZgH0EWMD28eOjmYBbCbCA3YpfyZ3zYpgrossCdgVl7uMxBFjolqdHXlYsYMvp8Z5MQHIEWMCSCwkbxAQsJ8ACtpwV78kEJEeABSy5kLBBTMByAixgy1nxnkxAcgRYwJILCRvEBCwnwAK2nBXvyQQkR4AFLLmQsEFMwHICLGDLWfGeTEByBFjAkgsJG8QELCfAAracFe/JBCRHgAVsUUj4fl2LMPFOLifAAnY5cu6QCTiOAAvYcSy5JSbgcgIsYJcj5w6ZwOMIWHe6xgLmbGICMibAApZx8Nh0JsAC5hxgAjImwAKWcfDYdCbAAuYcYAIyJsAClnHw2HQmwALmHGACMibAApZx8Nh0JsAC5hxgAm4lYN2NGw+aygJ2a/C4cyZgHwEWsH38+Ggm4FYCLGC34ufOmYB9BFjA9vHjo5mAWwmwgN2KnztnAvYRYAHbx4+PZgJuJcACdit+7pwJ2EeABWwfPz6aCbiVAAvYrfi5cyZgHwEWsH38+Ggm4FYCMhewfbehuZU8d84EHEBA5gJ2AAFuQoEEPGdgV5UrV4685Y0JMAEZElA1ad6SBSzDwLHJTIAIqGrXb8wC5lxgAjIlwAKWaeDYbCbAFZhzgAnInABXYJkHkM13BAH5rlqzgB0Rf4e1Id9EchgCbsgqAixgq3DxzkxAWgRYwNKKB1vDBKwiwAK2ChfvzASkRYAFLK14sDVMwCoCLGCrcPHOTEBaBFjA0ooHW8MErCLAArYKF+/MBKRFgAUsrXiwNUzAKgJuE3BggD/GjB6FiZMmW2WwnHZWAXjrjddQscIToFs0jp84hcVLl+Ly5StycsMiW7VaLZo1aYwunZ+Hn68/4hPi8dHkT3Hrzm2LjuedbCPgQgFTOgP16tbG4Ff6o0iRIvDz9UX9Rs1hyvlKUZtGrcKq5UsRHl4AV65dR1ZWJsqUKoW4hERMnPQx9h84oBh//fz80LXz8xjQtw/uxMWLf2VLl4LJZMLIsa/j6LHjivFVao64UMBAt07PY8jgV5CWkQmTQY/IyEjUbdBUkQKeM3M6qjxZEc+0bovUtHQR93Zt22D0iGH4ZvpMrFm7DjqdTmr5YJM95cqWxfffzsWSZcsxdfoM0QaNyev/+A0qtQrPtG5nU7t8UP4EXCrgkiVKCIsuXLyIjydNRJNGDVCvYTNFCviLTyajUOFCePHl/rlRCAsLFQLOzMzCjNlzkZiYmH+EZLBH8eLFMWbEUCxdsRK79+zNtXjJooWIjCiAZ1q3v/sZ/+m5o8PpUgHfa7zSBRwdHSWq0NVr13PdLl2qlBDw/oMHsWzFSmRkZDg6npJpz8vLC6uWLxEM2j3fRTJ22WeI+VxPOgMRC9i+iFp8tLe3tzhP7NLpeXz0yeeKOgc2Q4iKikLlyk8iJDgIQf7+6NatKxYuWozFS5dZzEnaO+YIuFSpGBSMjIRKlXfxhmaX16//N2g72x8WsLMJ0/mgSoXKlSpi7OiROH78JOYu+A4JCQku6PlhXTjvTxbr16uHoUMGoUTxYtBq1EhLS0fLZztAb9C7yVfndDvolQHi9E+r0ebp4LsfFmHN2j+d0/FDWmUBuwB1dHQ0Jk8cjzt34vDV1Gm4eu2aC3p1fRfh4eEoFRMDPz9feGm0eG/cm9ixcxfenTDR9cY4sUdatCtUqCDUD6nAsefO4+rVq07s/f6mWcCCh/Oqkr+/P76bOwtx8fGY8OFk3Lx1y2XBdWdHNOt4583XxLXhNu07IVuX7U5zFNs3C9jJoV37+69ISkzEq8NGISExQQwVSto0Gg3qPF0LNH2mc93LV66KhSvaOnd8DsNeHYTeL/e/bzFPSf7n9cW1C11uE/DkSRPRVMGXkXx9fbFwwVyEBgejT/+BuBNH57z/yVev14sbHZSwPVGuHKZ/8xUWLVmGRT8ugV5vgI+PN76fPw9hocHiPJg35xBwi4BNUOHjSR8oWsAfTZyAZk0aYcuWrTh/6XKe6K1a9SvuxMc5J6oubrVo0aKY/OEEBAcFYc3atTh27Di6de2CShUq4O/dezDhw49cbJHndOcWARPe3r1eQOWKFfHWO+8p8kaOUSOGIjoqKk8m0QSL6u6UqdNx1YWXG5yd0sWKFUWXTh0RVbiwmEKTj0eOHseixUuc3bVHt+82AZupm4Pt0VFQmPMcU9cF1O0Cdp2r3BMTUB4BFrDyYsoeeRABFrAHBZtdVR4BFrDyYsoeeRABFrAHBZtdVR4BFrDyYsoeeRABFrAHBVs6rjrv3nPp+OgaS1jAruHMvTABpxBgATsFKzfKBFxDgAXsGs7cCxNwCgEWsFOwcqNMwDUEWMCu4cy9MAGnEGABOwUrNyofAvJeEWcByyfT2FImkIcAC5iTggnImAALWMbBY9OZAAuYc4AJyJgAC1jGwWPTmQALmHOACciYgFsFHF4gHDOnT0Vs7Dm88957Msb4cNNr1XwKr48dk+fLhER6R/Bklz7B31Vw6XlYTRo1wvPPP4cCBcLRu08/AEZXde9x/bhNwPSyr7WrVyEwIBDHT/6LfgMHKQa++aFufV7sjSED+yM1Le0+3+Li4vH62+Nw6SGPm5UrBLVajfr16mLYkMEoVDACeoMB6emZ6NBJKW8mlGZk3CJglUotXrPZvGljRESE4/gJZQnYHOopX36OShUreMQLrsuXL483x46Gj68PPv70Cxw7flyaGW+zVa5944KlZrpFwFWrVMEH74/DwkU/4s3XxihWwL+sXIHAAH8807qtpfGQ5X40m+rQvi26Pt8RX02djt17/3vJtywdkpHRLhdwVFRhvPfO2+Lt9B9MmoxtG9cpVsAb/lwDjVqDb2bOgreXVkwrDx0+irNnzyrmtSqU6+Ltix9+gHNnY7Fl2w7Qy81pu3HzFrZs3SYjOTzaVFqviYkpiXPnzyM+Pv6xPqmgQo3q1XDi5ClkZDr3Je4uFTA51qN7V7Rt00qI98zZc9izfbOCBfw7/Hz9kJGVBb1Oh8DAABw+chRTvpmO02fO3veuJDlnedkyZbBw/lxcu35dnO9nZmSAXrei0+uwevUazP9+oZzdE7ZXqlgR7Z9tg9Vr/sCJkycf649apcaYUcPx3feLnP76HJcKuF7dOuLcd/Xva7Bi5c/IzMzEnh1bFCLgvDfFt2rRXLxqhAaq7GwdYkqWwHPt2yIhMQkfTv4EN2/elH1ikwPlypbBDwvmYf+Bg/hp1S+4fOUKQkJDxelRSFAQuvTohZTUVFn7SgLu0bUrzl24gLh832mlQs0a1cTrc+ISHl+t7YXiMgHTy58HDegHtVqFWXPn486dO8J25Qg4byjo1Zt0fpiRkTON8vHxwegRQ9GhXTvxxsIzsbH2xk8Sx5sFvPynn/HV1G9gNOZcNiodUxLfzZ+LmbPniVePynkrXqwYWrVsAa1WC6MFb5X00mqx4PuFSHvgCoSjGbhMwA3q18OnH30oplnXr9+ESbz+yoQ6tWuJ0Xn/gX+wfuMmbNq02dE+Sqq9IYMHoneP7uj7yiCcPqMsAS9dvlII2LzRKdPf2zZi87YdeOfd9yUVB2uNUanVIFFas2XrdIAFYremzQf3dZ2A69bBhPHvAvTuOpN5SR4ICvKHwWDEnbh4/LhkGZatWGGPP5I5tnWrlujYoT2GjxoDHQXy7jZqxHD06NYZL/YdgDMKEXCZMqXx/dw5WPXrr/hy6jSY7lZgX28vbFy/FkuX/4RvZsy+S0AZ70SWSqK5TMCPclipU+iiRYuIhZ2lS1dg2cpVYipVICwMw4YMQuXKlTFy7Ou4dOmSVPLALjtCQkIwqH8/xMSUwJxvF4jVV39/fwwdMghNGzVErz59xYo0b44nwAJ2PNPcFse/Pw4N69bFho2bxcpls6aNUaJECXw1ZSp27toDg8HgxN5d2zTdsPL2G6/BoDdg/YYNoKrctHFjbNq8FRMnf+xaYzyoN7cLePSI4bhx8yaWLFuuSOx9+7yE0JDg/156few4du3eg/T0dMX5W61KFTRu1AB0WyWdJKVlZmL2nHmK81NKDrldwFKCwbYwAbkRYAHLLWKKsVfeD5OTShhYwCISnExSSUi2wzoCLGDrePHeTEBSBFjAkgoHG8MErCPAAraOF+/NBCRFgAUsqXCwMUzAOgISFDAvKFkXQt7bkwlIUMCeHA72nQlYR4AFbB0v3psJSIoAC1hS4WBjmIB1BFjA1vHivZmApAiwgCUVDjaGCVhHgAVsHS8J7s2r9hIMistMYgG7DDV3xAQcT4AF7Him3CITcBkBFrDLUHNHTMDxBFjAjmfKLTIBlxFgAbsMNXfEBBxPgAXseKbc4j0E6AnCKn6SrNNywmUCrlvnabw/7p1HOrJrz27x0mvx3GiFbAEBAXh18EB07thBPPv6wD+HMHPOXJw+HQuDQa8QL8kNFXx9fdC543Po93If+Pv74tz5Cxj12uu4fTtOQX4CarUGPj7e8PH2hkr16Fw16PVIz8yEXu/cOLtMwDWqV8fI4UPzBJOeYFi2dAw2b92Ot2X+9P57nSPx/rJiKfQGvXiRWUJCPKpXqwpfXz+MnzgJu/fsU8zLzegZ0D27d0XXzs/j5KnTyMzOQvHoaMSUikG3Xn1w+fJlZYhYpULlSpXQtHFD8Zoc8ytkHuYcMTl67Dh+Wf2bU313mYAf5UXp0qUwe9pUfPvdQgk9Wtb+myOe79gBY0YMwyeff4U1a9cK9xvUr48xI4eK9wSt/n0tsrOzHxNc+21waubc0zi9G+nb2TOwaMkyzJ47XwxMkZERWPz9AtyOi0PPF192lSlO7SciIgId2j2L8xcuYOffux8bv+pVq6J7t254a9w4p9rkdgF/8tGHKFokGv0HDkFWnoSWTxI/GCV6yHn7tm1Qv3Fz8cg82gpGRoq3M968fQvfLliIlJQUpwbXFY3TNLJalcp4b9xbmDp9FrZs3X63WxO+/vwzVK5cEc+0bgd63ZmcT458fX3RrElj8S5kervmrVu3QMXn2rVryMjIhJeXF8JCw5CekYHU1BSUK1sO/fq8hLfepdcJOW9zq4Cjo6KwfPFCzP32O3y/6EfneWlzy7YPIE/XqonPPp6EmXPmiXcD0Va/Xl3Qg+ypAv+25o/73plks4luPlCl0uDpWjUwfOgQfP7lFBw6fCRXwF07dcLgQf3xfJfuSEpJlbWAY0qWRMtnmmHH37tx/MQJ4WPLFs+I16du2LQFJYoXQ/HixbBn337x2liPEPCXn3+CqlUqo2OXHoqoRvdqiV4t2velF9G9a2f8c/iwqD9FoqNw9uw5zJg9V7yNQhmbChWfKI9vpvwPC75fhEWLl+S6NeG9cWjUoD5eeLEPbt66LVt3Q0NDRRwTEpLw25o1ua+LpVfmtnu2NQIDApGty8bBfw6J8146NVK8gEOCg7FqxRL8/MtqTJtpfnOdbGP8UMPHjB6F7p07ihVomloFBQbgtzVrMWvut7nvR1aCxzExJTFr2lScO3ceX02dhtNnzqBnzx7o/9KL4ny4TfuOyNY5dzXWmRyjogpj6KCB2L5zF9b99dd9XdWuVRM9unbB2XPnsXjpciQkJojvFS/gKV9+gadrPYWGzVpBp3vcYo4zQ+O8tun1om+MHSVebr123XqYTCY0bdwIA/v3xdz5C7B23V9Ov8Rgm3fWnzbQlYTmzZpi/Ltvi9MCemkbXWZZ8dMqdOjQDs+0bivrM2Dyr0b1aqhS+Un8uvp3xMXH54i0TFn07tUD6//agFKlYsS58O9/rBUVWtECDgzwx9yZ03H+4iW889542/JM4kct/G4eypcpg6cbNLnPUlqZbtWqJQYPG4Hz5y9I3AvrzPPz88MT5cqCXmx9JvYsvvt2DiLCC6Dlsx2sa0iCexcqVFC875n82rptuxik+vfri507nWrYJQAACodJREFU/sap0/8iIiIctWvWROzZc2IGomgB0wptq5bPoF3HLkhNTZVguOw36YcF80CXV+4VML3lnQRMidD3lcGIPXvW/o4k2kLRokXxw/w52Lp9JyZ8+JFErbTOLLqXoUXzZuI8+OSpf8Ws6lFb+XLl0PclWoV+HxBr8M7ZXL4KHVW4sJhqpaal4d3xE5GZmekcz9zc6ttvvo72z7bGG++Mw9GjJ3IWNsqVxYC+fZCWnoEvvpqiqPNgWrQLDQlF4cKFEBoagmGvDkJWZhYGDBoqbmZRwual9RKFh27iOHvuHPT6R7/fuXixoqhWtSomf/qZU113uYBf6t0TfV7shZGjX8Oxk6cAk9yvED48PuEFCmDwK/3RunVL/PLLaqSlpaNu3aeRmZWFL7/+Bv+eOQM8ZgR3atSd0HhwUDDatmmFdu2eRYGwMOzduxdLV6wUlUpJW7GiRUHvQQ4ODnrsrZR6gwFnzp7FgQMHneq+ywVMtxPSyf+6DRuQmJjoVOfc3XhISDDatGp51wwTTCYVDh89in9Pn4HJ6LxplTv8pvPfyk9WQkxMDNLS0rB9xw4kJSW7wxSn9+nt5S1u3HjsvdAGPTKyspw+SLtcwE6nyx0wAbcSsH4V3x5zWcD20ONjmYCbCbCA3RwA27t37Uhvu518pDMJsICdSZfbZgJOJsACdjJgbp4JOJMAC9iZdLltJuBkAixgJwPm5pmAMwmwgJ1J16K2eTHKIky800MJsIA5MZiAjAmwgF0WPK60LkPtQR2xgD0o2Oyq8giwgJUXU/bIgwiwgD0o2Oyq8giwgJUXU/bIgwiwgD0o2Oxq/gRMKm8EFioP35DiMKm88j/Aij1UMECXegOpt07BmE1PorH/pVEsYCsCwLsqm4DKKwhBJRoh8onW8BEC9naowyTg7JTrSL++H7eOroA+I+fhePZsLGB76PGxiiFgggaBJRoj6qm+8PKPcK5fxiwknPoFNw//CJNBZ1dfLGC78PHByiCggndQNArW6I+gYnVd4pJJl4JTP78CZCfZ1R8L2C58fLBSCIREV0Gxhq/B4BXpMpcOrxgI7yz73tzIAnZyuOgJhvT8JNroWcJZWVmPfS2lk83h5h9BILRoDZRo/BayVUEOYGTZXXcHVwyDX5Z9jxZmATsgXHmaoBc/m0woFVMSL/buhZbNm0Kn0+Pkv6fx/Q+LcPjI0dz36zije27TegKOEbAJ4QEG+PmocSNJjcc8dVYYyAK2Pk4uO4JeiLX0hwVISU3FP4ePITkpCbVrPYWwsFBM/OgT7Nt/wGW2cEf5E7BfwCYUCjaiU91AmDTAkm06JKU+/nnYLOD84+K2PV7s1QuDBryMt98dj+07/xZ20Lt1Ro8chq1bt2PZT6u4CrstOnk7tk/AOeJ97ulAeHsBK3dl4XpC/o8NZgFLKAEeNGXerBl4slJF1GnUNPfZwPT2gtEjhqJSxUoYN/4DXL92zQGX8iUMQUamWSpgL40JRhNgMP73uvLwAD26NQiCWg38sicLV+PpjQ35v86cBSzhBHnYu5HIXHo3Utu2z+KVIUPF6zh5kwYBSwSsVZvQpKIWOr0eu88CWToV/L2yMLBlKEjPK3Zm3q28+YuXz4GlEfdHWvEoAY8eMQydn38eL78yELGx9q1AShyBrMyzRMC0NlmmoAHP1fTFoQt67DiZjtc7FUCWAfj2rwzEpVq2+mwGwxVYwinyOAF36fQ8+gxgAUspfJYImOxVq4CyBfXo0yQQfn4qJGcDn6xIQYZOa7U7LGCrkbnugMcJuONzHdBv4BCcVfDrRV1H2jE9WSpgc29lCxrQtVEgPvkpGUbY9kcPB396FX6Z9p1GKew6sHVTGMeE/uGtLJw/F+XLlX3oC74bN26EEaNfw8VLl5xpArdtBQEScPHGb0KnCrbwKPNfEll2vvuwRg+uGAq/rHMW9vfw3SQmYOkI0C6qACZNnIDmTRqhTYdOuW9hpGvAdA5sNJowddoMxCck2NsNH+8gAkGFKqJo/dGAf1EHtZhfMyYcWTEAXlnX8tvxsd+7TcD0omR6YfLvf6y1ywGpHvzkk5Uw7asvsPr3P7Bi5c/iheYd2rdF187PY/qM2Vi/YaO4tVJpW+XKT6JC+XJYv2GTLF4fS/WTyobGLxyRVV9CWJkWFl0CsjduhtSrOLNmFEw6+rtg2ze3CJig0Tmir78/unTvabv1Ej+ya+dOGDHsVezbt18IuFKlijhx8hRmzZ6Lq9fsG3ml6vqwV4egZ4+ueLn/QJw+EytVM/PYZYIafoWqIarmAPiGxTjVbpUhFTcOLEBC7DqYjPYN4m4RsEatwffz5+D4yVP4+NPPnQrLnY2r1GrUr18PmrtGGIxGnD17Dtdv3HCnWU7tu3SpUihaJBoHDh5Capp91cWphj6scY0PvAtUQFTljggoXBkmtb9DTVBDh/Tb/yIh9i8kX9oJoy7N7vbdIuDePXvg5Zd6o++Awbh85YrdTnADTMBRBEwqDbz9wqDxCQRVZUvuqLKsbxNUMMGoS4cuPQEmY7Zlh+Wzl1sEXL1aVXF74ZFjxxV5HuiQyHAjTMACAm4RsAV28S5MgAlYQIAFbAEk3oUJ5CUgjUueLGDOTSYgYwIsYBkHj01nAixgzgEmIGMCLGAZB49NZwIsYM4BJiBjAixgGQePTWcCLGDOASYgYwIsYBkHj01nAixgzgEmIGMCLGAZB49NZwIsYM4BJiBjAixgGQePTWcCLGBZ54A0bqiXNUKZG88ClnkA2XzPJuCRAvbz84NWm/dB3PTIm6zMLBgMj3+rnJRTRq1WIzoqGqEhIVDRqwTEQ9uMSExMxrUb12FUxIP0VFBr1AgOCkJ0VBQyM7Nw/sL5nPdMmcyPe5VylMy22T+D8kgBPwqb/U/6dX/SFC5UCGlp6UhKSb77eq2c5y4GBQUhMCAQN27K+XlcKnh5aaHVeqFwoYK4fes2UtPTEF4gHHEJ8TITr2NyxYUCtn+0cYzL1Mp/D+M2P1b0v7blNILnJRIdHY201DQkJSfd92VIcAgCAgNwTaZPw6SZhY+PD4ICg8QMKT4hESaTEfTgwPDQMNxhATtOHlJvydvbG/RkTLOUzZI1mozQ6XQwGvN/t6tUfcwRcCqSkpMfEHAwAgIDZStgEm9YaBhSUlJE1TUPwSzg+o3lXXJsUJK3l7c4h3pwozcm6PUsYBuQOv0QjUYLP18f+Pn6ITMrUzxn22QycQWu7YECdnq2ubGDwoUKIy09TVSqe7fgoGAEBPjL+pnUtCjn6+MLmkEFBQbixu1b4qmmPIV2Y8K5o+vIiAj4+eV9aDdNnxMSE5CZmekOsxzSJy3wFIyMRGBg4H+r0CYTUlNTcev2bTHDkPtG58N0FSEsJBR+/n4w6A24fNUzny/uwkUs6aQNnTep7lnIuncBy0iXIWR1KSIvV6pU5ktIuRcsTCYx5VTSRnG8e+1Icb5ZGiePFLClcHg/JiB1Aqra9RuZHPf6CKm7y/YxAWUR4AqsrHiyNx5GgAXsYQFnd5VFQOECduTdX45sy5VJJFe7XclIvn0pXMDyDQxbzgQsIcACtoQS78MEJEqABSzRwLBZTMASAv8H27IO9ipxOCQAAAAASUVORK5CYII=;" vertex="1" parent="WIyWlLk6GJQsqaUBKTNV-1">
          <mxGeometry x="122.91999999999999" y="2560" width="240" height="520" as="geometry" />
        </mxCell>
        <mxCell id="ZbRekK_5Z5T81OuFVQke-92" value="User input OTP" style="text;html=1;strokeColor=none;fillColor=none;align=center;verticalAlign=middle;whiteSpace=wrap;rounded=0;labelBackgroundColor=none;fontSize=15;" vertex="1" parent="WIyWlLk6GJQsqaUBKTNV-1">
          <mxGeometry x="127.91999999999996" y="3100" width="230" height="20" as="geometry" />
        </mxCell>
        <mxCell id="ZbRekK_5Z5T81OuFVQke-93" value="&lt;h1&gt;Scenario&lt;/h1&gt;" style="text;html=1;strokeColor=none;fillColor=none;spacing=5;spacingTop=-20;whiteSpace=wrap;overflow=hidden;rounded=0;" vertex="1" parent="WIyWlLk6GJQsqaUBKTNV-1">
          <mxGeometry x="122.92" y="1710" width="720" height="50" as="geometry" />
        </mxCell>
      </root>
    </mxGraphModel>
  </diagram>
  <diagram id="DZFdv0zocWNsuYq-qK2W" name="Sync">
    <mxGraphModel dx="1306" dy="627" grid="1" gridSize="10" guides="1" tooltips="1" connect="1" arrows="1" fold="1" page="1" pageScale="1" pageWidth="1169" pageHeight="1654" math="0" shadow="0">
      <root>
        <mxCell id="FLNBigEcMMhS88A7F76m-0" />
        <mxCell id="FLNBigEcMMhS88A7F76m-1" parent="FLNBigEcMMhS88A7F76m-0" />
        <mxCell id="gajqV-t3FhNTXmc8T6ei-0" value="Google Auth Sign In" style="swimlane;html=1;childLayout=stackLayout;resizeParent=1;resizeParentMax=0;startSize=20;" vertex="1" parent="FLNBigEcMMhS88A7F76m-1">
          <mxGeometry x="110" y="80" width="970" height="790" as="geometry" />
        </mxCell>
        <mxCell id="gajqV-t3FhNTXmc8T6ei-1" value="User" style="swimlane;html=1;startSize=20;" vertex="1" parent="gajqV-t3FhNTXmc8T6ei-0">
          <mxGeometry y="20" width="240" height="770" as="geometry" />
        </mxCell>
        <mxCell id="gajqV-t3FhNTXmc8T6ei-2" value="Click Sync Google Account" style="rounded=0;whiteSpace=wrap;html=1;" vertex="1" parent="gajqV-t3FhNTXmc8T6ei-1">
          <mxGeometry x="50" y="120" width="120" height="60" as="geometry" />
        </mxCell>
        <mxCell id="gajqV-t3FhNTXmc8T6ei-3" value="User Choose Account" style="rounded=0;whiteSpace=wrap;html=1;" vertex="1" parent="gajqV-t3FhNTXmc8T6ei-1">
          <mxGeometry x="50" y="240" width="120" height="60" as="geometry" />
        </mxCell>
        <mxCell id="gajqV-t3FhNTXmc8T6ei-4" value="Return Message" style="rounded=0;whiteSpace=wrap;html=1;" vertex="1" parent="gajqV-t3FhNTXmc8T6ei-1">
          <mxGeometry x="50" y="474" width="120" height="60" as="geometry" />
        </mxCell>
        <mxCell id="gajqV-t3FhNTXmc8T6ei-7" value="Google API" style="swimlane;html=1;startSize=20;" vertex="1" parent="gajqV-t3FhNTXmc8T6ei-0">
          <mxGeometry x="240" y="20" width="240" height="770" as="geometry" />
        </mxCell>
        <mxCell id="gajqV-t3FhNTXmc8T6ei-8" value="Show Screen Google Auth Account" style="rounded=0;whiteSpace=wrap;html=1;" vertex="1" parent="gajqV-t3FhNTXmc8T6ei-7">
          <mxGeometry x="60" y="240" width="120" height="60" as="geometry" />
        </mxCell>
        <mxCell id="gajqV-t3FhNTXmc8T6ei-9" value="System Binding With Google Auth" style="rounded=0;whiteSpace=wrap;html=1;fillColor=#dae8fc;strokeColor=#6c8ebf;" vertex="1" parent="gajqV-t3FhNTXmc8T6ei-7">
          <mxGeometry x="60" y="370" width="120" height="60" as="geometry" />
        </mxCell>
        <mxCell id="gajqV-t3FhNTXmc8T6ei-10" value="Success" style="rhombus;whiteSpace=wrap;html=1;fillColor=#f5f5f5;strokeColor=#666666;fontColor=#333333;" vertex="1" parent="gajqV-t3FhNTXmc8T6ei-7">
          <mxGeometry x="80" y="464" width="80" height="80" as="geometry" />
        </mxCell>
        <mxCell id="gajqV-t3FhNTXmc8T6ei-11" value="" style="edgeStyle=orthogonalEdgeStyle;rounded=0;orthogonalLoop=1;jettySize=auto;html=1;" edge="1" parent="gajqV-t3FhNTXmc8T6ei-7" source="gajqV-t3FhNTXmc8T6ei-9" target="gajqV-t3FhNTXmc8T6ei-10">
          <mxGeometry relative="1" as="geometry">
            <mxPoint x="120" y="460" as="targetPoint" />
          </mxGeometry>
        </mxCell>
        <mxCell id="gajqV-t3FhNTXmc8T6ei-12" value="No" style="edgeStyle=orthogonalEdgeStyle;rounded=0;orthogonalLoop=1;jettySize=auto;html=1;" edge="1" parent="gajqV-t3FhNTXmc8T6ei-0" source="gajqV-t3FhNTXmc8T6ei-10" target="gajqV-t3FhNTXmc8T6ei-4">
          <mxGeometry relative="1" as="geometry" />
        </mxCell>
        <mxCell id="gajqV-t3FhNTXmc8T6ei-18" value="Mobile" style="swimlane;html=1;startSize=20;" vertex="1" parent="gajqV-t3FhNTXmc8T6ei-0">
          <mxGeometry x="480" y="20" width="260" height="770" as="geometry" />
        </mxCell>
        <mxCell id="gajqV-t3FhNTXmc8T6ei-19" value="Show Screen Profil / Account" style="rounded=0;whiteSpace=wrap;html=1;" vertex="1" parent="gajqV-t3FhNTXmc8T6ei-18">
          <mxGeometry x="50" y="120" width="120" height="60" as="geometry" />
        </mxCell>
        <mxCell id="gajqV-t3FhNTXmc8T6ei-21" value="Get User parameter from Result Google&lt;br&gt;&lt;br&gt;&lt;pre style=&quot;font-size: 10px ; text-align: left ; box-sizing: border-box ; margin-top: 0px ; margin-bottom: 16px ; overflow-wrap: normal ; padding: 16px ; overflow: auto ; line-height: 1.45 ; border-radius: 6px ; color: rgb(36 , 41 , 46)&quot;&gt;&lt;code style=&quot;box-sizing: border-box ; padding: 0px ; margin: 0px ; border-radius: 6px ; word-break: normal ; border: 0px ; display: inline ; overflow: visible ; line-height: inherit ; overflow-wrap: normal&quot;&gt;{&lt;br&gt;  idToken: string,&lt;br&gt;  serverAuthCode: string,&lt;br&gt;  scopes: Array&amp;lt;string&amp;gt;,&lt;br&gt;  user: {&lt;br&gt;    email: string,&lt;br&gt;    id: string,&lt;br&gt;    givenName: string,&lt;br&gt;    familyName: string,&lt;br&gt;    photo: string, // url&lt;br&gt;    name: string // full name&lt;br&gt;  }&lt;br&gt;}&lt;/code&gt;&lt;/pre&gt;" style="rounded=0;whiteSpace=wrap;html=1;" vertex="1" parent="gajqV-t3FhNTXmc8T6ei-18">
          <mxGeometry x="20" y="320" width="230" height="284" as="geometry" />
        </mxCell>
        <mxCell id="gajqV-t3FhNTXmc8T6ei-23" value="&lt;b&gt;START&lt;/b&gt;" style="rounded=1;whiteSpace=wrap;html=1;fontSize=12;glass=0;strokeWidth=1;shadow=0;fillColor=#0050ef;strokeColor=#001DBC;fontColor=#ffffff;" vertex="1" parent="gajqV-t3FhNTXmc8T6ei-18">
          <mxGeometry x="50" y="56" width="120" height="40" as="geometry" />
        </mxCell>
        <mxCell id="gajqV-t3FhNTXmc8T6ei-24" value="" style="edgeStyle=orthogonalEdgeStyle;rounded=0;orthogonalLoop=1;jettySize=auto;html=1;" edge="1" parent="gajqV-t3FhNTXmc8T6ei-18" source="gajqV-t3FhNTXmc8T6ei-23" target="gajqV-t3FhNTXmc8T6ei-19">
          <mxGeometry relative="1" as="geometry" />
        </mxCell>
        <mxCell id="gajqV-t3FhNTXmc8T6ei-25" value="&lt;pre style=&quot;box-sizing: border-box ; font-size: 10px ; margin-top: 0px ; margin-bottom: 16px ; overflow-wrap: normal ; padding: 16px ; overflow: auto ; line-height: 1.45 ; border-radius: 6px ; color: rgb(36 , 41 , 46)&quot;&gt;&lt;br&gt;&lt;/pre&gt;" style="text;html=1;strokeColor=none;fillColor=none;align=left;verticalAlign=middle;whiteSpace=wrap;rounded=0;fontSize=10;" vertex="1" parent="gajqV-t3FhNTXmc8T6ei-18">
          <mxGeometry x="20" y="367" width="180" height="156" as="geometry" />
        </mxCell>
        <mxCell id="gajqV-t3FhNTXmc8T6ei-32" value="" style="edgeStyle=orthogonalEdgeStyle;rounded=0;orthogonalLoop=1;jettySize=auto;html=1;" edge="1" parent="gajqV-t3FhNTXmc8T6ei-0" source="gajqV-t3FhNTXmc8T6ei-19" target="gajqV-t3FhNTXmc8T6ei-2">
          <mxGeometry relative="1" as="geometry" />
        </mxCell>
        <mxCell id="gajqV-t3FhNTXmc8T6ei-33" value="" style="edgeStyle=orthogonalEdgeStyle;rounded=0;orthogonalLoop=1;jettySize=auto;html=1;exitX=0.5;exitY=1;exitDx=0;exitDy=0;entryX=0.5;entryY=0;entryDx=0;entryDy=0;" edge="1" parent="gajqV-t3FhNTXmc8T6ei-0" source="gajqV-t3FhNTXmc8T6ei-2" target="gajqV-t3FhNTXmc8T6ei-8">
          <mxGeometry relative="1" as="geometry">
            <Array as="points">
              <mxPoint x="110" y="230" />
              <mxPoint x="360" y="230" />
            </Array>
          </mxGeometry>
        </mxCell>
        <mxCell id="gajqV-t3FhNTXmc8T6ei-34" style="edgeStyle=orthogonalEdgeStyle;rounded=0;orthogonalLoop=1;jettySize=auto;html=1;exitX=0;exitY=0.5;exitDx=0;exitDy=0;" edge="1" parent="gajqV-t3FhNTXmc8T6ei-0" source="gajqV-t3FhNTXmc8T6ei-8" target="gajqV-t3FhNTXmc8T6ei-3">
          <mxGeometry relative="1" as="geometry" />
        </mxCell>
        <mxCell id="gajqV-t3FhNTXmc8T6ei-35" style="edgeStyle=orthogonalEdgeStyle;rounded=0;orthogonalLoop=1;jettySize=auto;html=1;exitX=0.5;exitY=1;exitDx=0;exitDy=0;entryX=0.5;entryY=0;entryDx=0;entryDy=0;" edge="1" parent="gajqV-t3FhNTXmc8T6ei-0" source="gajqV-t3FhNTXmc8T6ei-3" target="gajqV-t3FhNTXmc8T6ei-9">
          <mxGeometry relative="1" as="geometry" />
        </mxCell>
        <mxCell id="gajqV-t3FhNTXmc8T6ei-36" style="edgeStyle=orthogonalEdgeStyle;rounded=0;orthogonalLoop=1;jettySize=auto;html=1;exitX=0;exitY=0.5;exitDx=0;exitDy=0;entryX=1;entryY=0.5;entryDx=0;entryDy=0;" edge="1" parent="gajqV-t3FhNTXmc8T6ei-0" source="gajqV-t3FhNTXmc8T6ei-4" target="gajqV-t3FhNTXmc8T6ei-19">
          <mxGeometry relative="1" as="geometry">
            <Array as="points">
              <mxPoint x="20" y="524" />
              <mxPoint x="20" y="60" />
              <mxPoint x="690" y="60" />
              <mxPoint x="690" y="170" />
            </Array>
          </mxGeometry>
        </mxCell>
        <mxCell id="gajqV-t3FhNTXmc8T6ei-20" style="edgeStyle=orthogonalEdgeStyle;rounded=0;orthogonalLoop=1;jettySize=auto;html=1;entryX=0.5;entryY=0;entryDx=0;entryDy=0;fontSize=10;" edge="1" parent="gajqV-t3FhNTXmc8T6ei-0" source="gajqV-t3FhNTXmc8T6ei-21" target="gajqV-t3FhNTXmc8T6ei-38">
          <mxGeometry relative="1" as="geometry">
            <mxPoint x="555" y="650" as="targetPoint" />
          </mxGeometry>
        </mxCell>
        <mxCell id="gajqV-t3FhNTXmc8T6ei-39" value="API Update Users" style="edgeLabel;html=1;align=center;verticalAlign=middle;resizable=0;points=[];fontSize=12;" vertex="1" connectable="0" parent="gajqV-t3FhNTXmc8T6ei-20">
          <mxGeometry x="0.017" y="-1" relative="1" as="geometry">
            <mxPoint x="1" y="25" as="offset" />
          </mxGeometry>
        </mxCell>
        <mxCell id="gajqV-t3FhNTXmc8T6ei-40" style="edgeStyle=orthogonalEdgeStyle;rounded=0;orthogonalLoop=1;jettySize=auto;html=1;entryX=0;entryY=0.5;entryDx=0;entryDy=0;fontSize=15;" edge="1" parent="gajqV-t3FhNTXmc8T6ei-0" source="gajqV-t3FhNTXmc8T6ei-10" target="gajqV-t3FhNTXmc8T6ei-25">
          <mxGeometry relative="1" as="geometry" />
        </mxCell>
        <mxCell id="gajqV-t3FhNTXmc8T6ei-27" value="Back End API" style="swimlane;html=1;startSize=20;" vertex="1" parent="gajqV-t3FhNTXmc8T6ei-0">
          <mxGeometry x="740" y="20" width="230" height="770" as="geometry" />
        </mxCell>
        <mxCell id="gajqV-t3FhNTXmc8T6ei-28" style="edgeStyle=orthogonalEdgeStyle;rounded=0;orthogonalLoop=1;jettySize=auto;html=1;entryX=0.5;entryY=0;entryDx=0;entryDy=0;exitX=0.5;exitY=1;exitDx=0;exitDy=0;" edge="1" parent="gajqV-t3FhNTXmc8T6ei-27" source="gajqV-t3FhNTXmc8T6ei-38" target="gajqV-t3FhNTXmc8T6ei-31">
          <mxGeometry relative="1" as="geometry">
            <mxPoint x="120" y="664" as="sourcePoint" />
          </mxGeometry>
        </mxCell>
        <mxCell id="gajqV-t3FhNTXmc8T6ei-31" value="&lt;b&gt;STOP&lt;/b&gt;" style="rounded=1;whiteSpace=wrap;html=1;fontSize=12;glass=0;strokeWidth=1;shadow=0;fillColor=#0050ef;strokeColor=#001DBC;fontColor=#ffffff;" vertex="1" parent="gajqV-t3FhNTXmc8T6ei-27">
          <mxGeometry x="60" y="704" width="120" height="40" as="geometry" />
        </mxCell>
        <mxCell id="gajqV-t3FhNTXmc8T6ei-38" value="&lt;font style=&quot;font-size: 12px&quot;&gt;Update Users&lt;br&gt;(google_token)&lt;/font&gt;" style="rounded=0;whiteSpace=wrap;html=1;labelBackgroundColor=none;fontSize=15;align=center;" vertex="1" parent="gajqV-t3FhNTXmc8T6ei-27">
          <mxGeometry x="60" y="604" width="120" height="60" as="geometry" />
        </mxCell>
      </root>
    </mxGraphModel>
  </diagram>
  <diagram id="-3MFW9QDhZ6RyU4U_XjY" name="Alternative 2">
    <mxGraphModel dx="1306" dy="627" grid="1" gridSize="10" guides="1" tooltips="1" connect="1" arrows="1" fold="1" page="1" pageScale="1" pageWidth="1169" pageHeight="1654" math="0" shadow="0">
      <root>
        <mxCell id="uTUqdVimMX7XYQt4XhcA-0" />
        <mxCell id="uTUqdVimMX7XYQt4XhcA-1" parent="uTUqdVimMX7XYQt4XhcA-0" />
        <mxCell id="SFzNXDwdgCxv9M9e8hpP-0" value="Google Auth Sign In" style="swimlane;html=1;childLayout=stackLayout;resizeParent=1;resizeParentMax=0;startSize=20;" vertex="1" parent="uTUqdVimMX7XYQt4XhcA-1">
          <mxGeometry x="90" y="100" width="950" height="1240" as="geometry" />
        </mxCell>
        <mxCell id="SFzNXDwdgCxv9M9e8hpP-1" value="User" style="swimlane;html=1;startSize=20;" vertex="1" parent="SFzNXDwdgCxv9M9e8hpP-0">
          <mxGeometry y="20" width="220" height="1220" as="geometry" />
        </mxCell>
        <mxCell id="SFzNXDwdgCxv9M9e8hpP-2" value="Click Google Sign Button" style="rounded=0;whiteSpace=wrap;html=1;" vertex="1" parent="SFzNXDwdgCxv9M9e8hpP-1">
          <mxGeometry x="50" y="120" width="120" height="60" as="geometry" />
        </mxCell>
        <mxCell id="SFzNXDwdgCxv9M9e8hpP-3" value="User Choose Account" style="rounded=0;whiteSpace=wrap;html=1;" vertex="1" parent="SFzNXDwdgCxv9M9e8hpP-1">
          <mxGeometry x="50" y="280" width="120" height="60" as="geometry" />
        </mxCell>
        <mxCell id="SFzNXDwdgCxv9M9e8hpP-4" value="Return Message" style="rounded=0;whiteSpace=wrap;html=1;" vertex="1" parent="SFzNXDwdgCxv9M9e8hpP-1">
          <mxGeometry x="50" y="474" width="120" height="60" as="geometry" />
        </mxCell>
        <mxCell id="SFzNXDwdgCxv9M9e8hpP-6" value="Input Phone Number" style="rounded=0;whiteSpace=wrap;html=1;" vertex="1" parent="SFzNXDwdgCxv9M9e8hpP-1">
          <mxGeometry x="50" y="850" width="120" height="60" as="geometry" />
        </mxCell>
        <mxCell id="SFzNXDwdgCxv9M9e8hpP-5" value="Input OTP" style="rounded=0;whiteSpace=wrap;html=1;" vertex="1" parent="SFzNXDwdgCxv9M9e8hpP-1">
          <mxGeometry x="50" y="1016" width="120" height="60" as="geometry" />
        </mxCell>
        <mxCell id="SFzNXDwdgCxv9M9e8hpP-7" value="Google API" style="swimlane;html=1;startSize=20;" vertex="1" parent="SFzNXDwdgCxv9M9e8hpP-0">
          <mxGeometry x="220" y="20" width="200" height="1220" as="geometry" />
        </mxCell>
        <mxCell id="SFzNXDwdgCxv9M9e8hpP-9" value="System Binding With Google Auth" style="rounded=0;whiteSpace=wrap;html=1;fillColor=#dae8fc;strokeColor=#6c8ebf;" vertex="1" parent="SFzNXDwdgCxv9M9e8hpP-7">
          <mxGeometry x="40" y="413" width="120" height="60" as="geometry" />
        </mxCell>
        <mxCell id="SFzNXDwdgCxv9M9e8hpP-10" value="Success" style="rhombus;whiteSpace=wrap;html=1;fillColor=#f5f5f5;strokeColor=#666666;fontColor=#333333;" vertex="1" parent="SFzNXDwdgCxv9M9e8hpP-7">
          <mxGeometry x="60" y="507" width="80" height="80" as="geometry" />
        </mxCell>
        <mxCell id="SFzNXDwdgCxv9M9e8hpP-11" value="" style="edgeStyle=orthogonalEdgeStyle;rounded=0;orthogonalLoop=1;jettySize=auto;html=1;" edge="1" parent="SFzNXDwdgCxv9M9e8hpP-7" source="SFzNXDwdgCxv9M9e8hpP-9" target="SFzNXDwdgCxv9M9e8hpP-10">
          <mxGeometry relative="1" as="geometry">
            <mxPoint x="100" y="503" as="targetPoint" />
          </mxGeometry>
        </mxCell>
        <mxCell id="SFzNXDwdgCxv9M9e8hpP-12" value="No" style="edgeStyle=orthogonalEdgeStyle;rounded=0;orthogonalLoop=1;jettySize=auto;html=1;" edge="1" parent="SFzNXDwdgCxv9M9e8hpP-0" source="SFzNXDwdgCxv9M9e8hpP-10" target="SFzNXDwdgCxv9M9e8hpP-4">
          <mxGeometry relative="1" as="geometry">
            <Array as="points">
              <mxPoint x="240" y="567" />
              <mxPoint x="240" y="524" />
            </Array>
          </mxGeometry>
        </mxCell>
        <mxCell id="SFzNXDwdgCxv9M9e8hpP-18" value="Mobile" style="swimlane;html=1;startSize=20;" vertex="1" parent="SFzNXDwdgCxv9M9e8hpP-0">
          <mxGeometry x="420" y="20" width="250" height="1220" as="geometry" />
        </mxCell>
        <mxCell id="SFzNXDwdgCxv9M9e8hpP-19" value="Show Screen Login" style="rounded=0;whiteSpace=wrap;html=1;" vertex="1" parent="SFzNXDwdgCxv9M9e8hpP-18">
          <mxGeometry x="50" y="120" width="120" height="60" as="geometry" />
        </mxCell>
        <mxCell id="SFzNXDwdgCxv9M9e8hpP-23" value="&lt;b&gt;START&lt;/b&gt;" style="rounded=1;whiteSpace=wrap;html=1;fontSize=12;glass=0;strokeWidth=1;shadow=0;fillColor=#0050ef;strokeColor=#001DBC;fontColor=#ffffff;" vertex="1" parent="SFzNXDwdgCxv9M9e8hpP-18">
          <mxGeometry x="50" y="56" width="120" height="40" as="geometry" />
        </mxCell>
        <mxCell id="SFzNXDwdgCxv9M9e8hpP-24" value="" style="edgeStyle=orthogonalEdgeStyle;rounded=0;orthogonalLoop=1;jettySize=auto;html=1;" edge="1" parent="SFzNXDwdgCxv9M9e8hpP-18" source="SFzNXDwdgCxv9M9e8hpP-23" target="SFzNXDwdgCxv9M9e8hpP-19">
          <mxGeometry relative="1" as="geometry" />
        </mxCell>
        <mxCell id="SFzNXDwdgCxv9M9e8hpP-8" value="Web View From Front End Page (address google account provide by backend)" style="rounded=0;whiteSpace=wrap;html=1;" vertex="1" parent="SFzNXDwdgCxv9M9e8hpP-18">
          <mxGeometry x="50" y="230" width="120" height="60" as="geometry" />
        </mxCell>
        <mxCell id="SFzNXDwdgCxv9M9e8hpP-26" value="&lt;font style=&quot;font-size: 11px&quot;&gt;Show Screen Phone Number&lt;/font&gt;" style="rounded=0;whiteSpace=wrap;html=1;fontSize=10;align=center;" vertex="1" parent="SFzNXDwdgCxv9M9e8hpP-18">
          <mxGeometry x="92" y="850" width="120" height="60" as="geometry" />
        </mxCell>
        <mxCell id="SFzNXDwdgCxv9M9e8hpP-22" value="Show Screen OTP" style="rounded=0;whiteSpace=wrap;html=1;" vertex="1" parent="SFzNXDwdgCxv9M9e8hpP-18">
          <mxGeometry x="92" y="1016" width="120" height="60" as="geometry" />
        </mxCell>
        <mxCell id="SFzNXDwdgCxv9M9e8hpP-32" value="" style="edgeStyle=orthogonalEdgeStyle;rounded=0;orthogonalLoop=1;jettySize=auto;html=1;" edge="1" parent="SFzNXDwdgCxv9M9e8hpP-0" source="SFzNXDwdgCxv9M9e8hpP-19" target="SFzNXDwdgCxv9M9e8hpP-2">
          <mxGeometry relative="1" as="geometry" />
        </mxCell>
        <mxCell id="SFzNXDwdgCxv9M9e8hpP-33" value="" style="edgeStyle=orthogonalEdgeStyle;rounded=0;orthogonalLoop=1;jettySize=auto;html=1;exitX=0.5;exitY=1;exitDx=0;exitDy=0;" edge="1" parent="SFzNXDwdgCxv9M9e8hpP-0" source="SFzNXDwdgCxv9M9e8hpP-2" target="SFzNXDwdgCxv9M9e8hpP-8">
          <mxGeometry relative="1" as="geometry">
            <Array as="points">
              <mxPoint x="95" y="200" />
              <mxPoint x="95" y="230" />
              <mxPoint x="530" y="230" />
            </Array>
          </mxGeometry>
        </mxCell>
        <mxCell id="SFzNXDwdgCxv9M9e8hpP-34" style="edgeStyle=orthogonalEdgeStyle;rounded=0;orthogonalLoop=1;jettySize=auto;html=1;exitX=0.5;exitY=1;exitDx=0;exitDy=0;" edge="1" parent="SFzNXDwdgCxv9M9e8hpP-0" source="SFzNXDwdgCxv9M9e8hpP-8" target="SFzNXDwdgCxv9M9e8hpP-3">
          <mxGeometry relative="1" as="geometry" />
        </mxCell>
        <mxCell id="SFzNXDwdgCxv9M9e8hpP-35" style="edgeStyle=orthogonalEdgeStyle;rounded=0;orthogonalLoop=1;jettySize=auto;html=1;exitX=0.5;exitY=1;exitDx=0;exitDy=0;entryX=0.5;entryY=0;entryDx=0;entryDy=0;" edge="1" parent="SFzNXDwdgCxv9M9e8hpP-0" source="SFzNXDwdgCxv9M9e8hpP-3" target="SFzNXDwdgCxv9M9e8hpP-9">
          <mxGeometry relative="1" as="geometry" />
        </mxCell>
        <mxCell id="SFzNXDwdgCxv9M9e8hpP-36" style="edgeStyle=orthogonalEdgeStyle;rounded=0;orthogonalLoop=1;jettySize=auto;html=1;exitX=0;exitY=0.5;exitDx=0;exitDy=0;entryX=1;entryY=0.5;entryDx=0;entryDy=0;" edge="1" parent="SFzNXDwdgCxv9M9e8hpP-0" source="SFzNXDwdgCxv9M9e8hpP-4" target="SFzNXDwdgCxv9M9e8hpP-19">
          <mxGeometry relative="1" as="geometry">
            <Array as="points">
              <mxPoint x="20" y="524" />
              <mxPoint x="20" y="60" />
              <mxPoint x="610" y="60" />
              <mxPoint x="610" y="170" />
            </Array>
          </mxGeometry>
        </mxCell>
        <mxCell id="8EtbwmIW9DKfZ4be0Trl-1" value="Yes" style="edgeStyle=orthogonalEdgeStyle;rounded=0;orthogonalLoop=1;jettySize=auto;html=1;fontSize=12;" edge="1" parent="SFzNXDwdgCxv9M9e8hpP-0" source="SFzNXDwdgCxv9M9e8hpP-10" target="SFzNXDwdgCxv9M9e8hpP-21">
          <mxGeometry relative="1" as="geometry" />
        </mxCell>
        <mxCell id="SFzNXDwdgCxv9M9e8hpP-27" value="Back End API" style="swimlane;html=1;startSize=20;" vertex="1" parent="SFzNXDwdgCxv9M9e8hpP-0">
          <mxGeometry x="670" y="20" width="280" height="1220" as="geometry" />
        </mxCell>
        <mxCell id="qRJrNaQw70OcugBtVIrZ-1" style="edgeStyle=orthogonalEdgeStyle;rounded=0;orthogonalLoop=1;jettySize=auto;html=1;entryX=0.5;entryY=0;entryDx=0;entryDy=0;fontSize=12;" edge="1" parent="SFzNXDwdgCxv9M9e8hpP-27" source="SFzNXDwdgCxv9M9e8hpP-21" target="qRJrNaQw70OcugBtVIrZ-0">
          <mxGeometry relative="1" as="geometry" />
        </mxCell>
        <mxCell id="SFzNXDwdgCxv9M9e8hpP-21" value="Get User parameter from Result Google&lt;br&gt;&lt;br&gt;&lt;pre style=&quot;font-size: 10px ; text-align: left ; box-sizing: border-box ; margin-top: 0px ; margin-bottom: 16px ; overflow-wrap: normal ; padding: 16px ; overflow: auto ; line-height: 1.45 ; border-radius: 6px ; color: rgb(36 , 41 , 46)&quot;&gt;&lt;code style=&quot;box-sizing: border-box ; padding: 0px ; margin: 0px ; border-radius: 6px ; word-break: normal ; border: 0px ; display: inline ; overflow: visible ; line-height: inherit ; overflow-wrap: normal&quot;&gt;{&lt;br&gt;  idToken: string,&lt;br&gt;  serverAuthCode: string,&lt;br&gt;  scopes: Array&amp;lt;string&amp;gt;,&lt;br&gt;  user: {&lt;br&gt;    email: string,&lt;br&gt;    id: string,&lt;br&gt;    givenName: string,&lt;br&gt;    familyName: string,&lt;br&gt;    photo: string, // url&lt;br&gt;    name: string // full name&lt;br&gt;  }&lt;br&gt;}&lt;/code&gt;&lt;/pre&gt;" style="rounded=0;whiteSpace=wrap;html=1;" vertex="1" parent="SFzNXDwdgCxv9M9e8hpP-27">
          <mxGeometry x="27" y="474" width="230" height="276" as="geometry" />
        </mxCell>
        <mxCell id="qRJrNaQw70OcugBtVIrZ-0" value="Save Parameter to table or redis" style="rounded=0;whiteSpace=wrap;html=1;labelBackgroundColor=none;fontSize=12;align=center;" vertex="1" parent="SFzNXDwdgCxv9M9e8hpP-27">
          <mxGeometry x="82" y="790" width="120" height="60" as="geometry" />
        </mxCell>
        <mxCell id="SFzNXDwdgCxv9M9e8hpP-29" value="&lt;b&gt;Do Registration&lt;br&gt;with call parameter from google account in table or redis&lt;br&gt;&lt;/b&gt;" style="rounded=0;whiteSpace=wrap;html=1;fillColor=#dae8fc;strokeColor=#6c8ebf;" vertex="1" parent="SFzNXDwdgCxv9M9e8hpP-27">
          <mxGeometry x="82" y="1060" width="120" height="79" as="geometry" />
        </mxCell>
        <mxCell id="SFzNXDwdgCxv9M9e8hpP-30" value="&lt;b&gt;Send OTP&lt;/b&gt;" style="rounded=0;whiteSpace=wrap;html=1;fillColor=#dae8fc;strokeColor=#6c8ebf;" vertex="1" parent="SFzNXDwdgCxv9M9e8hpP-27">
          <mxGeometry x="82" y="956" width="120" height="60" as="geometry" />
        </mxCell>
        <mxCell id="SFzNXDwdgCxv9M9e8hpP-31" value="&lt;b&gt;STOP&lt;/b&gt;" style="rounded=1;whiteSpace=wrap;html=1;fontSize=12;glass=0;strokeWidth=1;shadow=0;fillColor=#0050ef;strokeColor=#001DBC;fontColor=#ffffff;" vertex="1" parent="SFzNXDwdgCxv9M9e8hpP-27">
          <mxGeometry x="82" y="1160" width="120" height="40" as="geometry" />
        </mxCell>
        <mxCell id="SFzNXDwdgCxv9M9e8hpP-28" style="edgeStyle=orthogonalEdgeStyle;rounded=0;orthogonalLoop=1;jettySize=auto;html=1;entryX=0.5;entryY=0;entryDx=0;entryDy=0;" edge="1" parent="SFzNXDwdgCxv9M9e8hpP-27" source="SFzNXDwdgCxv9M9e8hpP-29" target="SFzNXDwdgCxv9M9e8hpP-31">
          <mxGeometry relative="1" as="geometry" />
        </mxCell>
        <mxCell id="qRJrNaQw70OcugBtVIrZ-3" style="edgeStyle=orthogonalEdgeStyle;rounded=0;orthogonalLoop=1;jettySize=auto;html=1;entryX=0.5;entryY=0;entryDx=0;entryDy=0;fontSize=12;" edge="1" parent="SFzNXDwdgCxv9M9e8hpP-0" source="qRJrNaQw70OcugBtVIrZ-0" target="SFzNXDwdgCxv9M9e8hpP-26">
          <mxGeometry relative="1" as="geometry" />
        </mxCell>
        <mxCell id="SFzNXDwdgCxv9M9e8hpP-37" style="edgeStyle=orthogonalEdgeStyle;rounded=0;orthogonalLoop=1;jettySize=auto;html=1;entryX=1;entryY=0.5;entryDx=0;entryDy=0;fontSize=10;" edge="1" parent="SFzNXDwdgCxv9M9e8hpP-0" source="SFzNXDwdgCxv9M9e8hpP-26" target="SFzNXDwdgCxv9M9e8hpP-6">
          <mxGeometry relative="1" as="geometry" />
        </mxCell>
        <mxCell id="SFzNXDwdgCxv9M9e8hpP-14" value="&lt;span style=&quot;font-size: 12px ; text-align: left ; background-color: rgb(248 , 249 , 250)&quot;&gt;API OTP&lt;br&gt;ENDPOINT :&amp;nbsp; /verification&lt;/span&gt;&lt;br style=&quot;font-size: 12px ; text-align: left ; background-color: rgb(248 , 249 , 250)&quot;&gt;&lt;div style=&quot;font-size: 12px ; text-align: left ; background-color: rgb(248 , 249 , 250)&quot;&gt;PARAMS : deviceId,mobile&lt;/div&gt;" style="edgeStyle=orthogonalEdgeStyle;rounded=0;orthogonalLoop=1;jettySize=auto;html=1;exitX=0.5;exitY=1;exitDx=0;exitDy=0;" edge="1" parent="SFzNXDwdgCxv9M9e8hpP-0" source="SFzNXDwdgCxv9M9e8hpP-6" target="SFzNXDwdgCxv9M9e8hpP-30">
          <mxGeometry relative="1" as="geometry">
            <mxPoint x="547" y="985" as="sourcePoint" />
          </mxGeometry>
        </mxCell>
        <mxCell id="SFzNXDwdgCxv9M9e8hpP-16" style="edgeStyle=orthogonalEdgeStyle;rounded=0;orthogonalLoop=1;jettySize=auto;html=1;entryX=1;entryY=0.5;entryDx=0;entryDy=0;" edge="1" parent="SFzNXDwdgCxv9M9e8hpP-0" source="SFzNXDwdgCxv9M9e8hpP-22" target="SFzNXDwdgCxv9M9e8hpP-5">
          <mxGeometry relative="1" as="geometry" />
        </mxCell>
        <mxCell id="SFzNXDwdgCxv9M9e8hpP-15" style="edgeStyle=orthogonalEdgeStyle;rounded=0;orthogonalLoop=1;jettySize=auto;html=1;entryX=1;entryY=0.5;entryDx=0;entryDy=0;exitX=0.5;exitY=1;exitDx=0;exitDy=0;" edge="1" parent="SFzNXDwdgCxv9M9e8hpP-0" source="SFzNXDwdgCxv9M9e8hpP-30" target="SFzNXDwdgCxv9M9e8hpP-22">
          <mxGeometry relative="1" as="geometry" />
        </mxCell>
        <mxCell id="SFzNXDwdgCxv9M9e8hpP-17" value="API REGISTRATION&lt;br&gt;ENDPOINT : /register&lt;br&gt;PARAMS : +google_token" style="edgeStyle=orthogonalEdgeStyle;rounded=0;orthogonalLoop=1;jettySize=auto;html=1;entryX=0.003;entryY=0.626;entryDx=0;entryDy=0;entryPerimeter=0;exitX=0.5;exitY=1;exitDx=0;exitDy=0;" edge="1" parent="SFzNXDwdgCxv9M9e8hpP-0" source="SFzNXDwdgCxv9M9e8hpP-5" target="SFzNXDwdgCxv9M9e8hpP-29">
          <mxGeometry x="-0.1676" relative="1" as="geometry">
            <mxPoint as="offset" />
          </mxGeometry>
        </mxCell>
        <mxCell id="8EtbwmIW9DKfZ4be0Trl-0" value="&lt;h1&gt;Alternative 2 (via Front End Web + Socialite)&lt;/h1&gt;" style="text;html=1;strokeColor=none;fillColor=none;spacing=5;spacingTop=-20;whiteSpace=wrap;overflow=hidden;rounded=0;" vertex="1" parent="uTUqdVimMX7XYQt4XhcA-1">
          <mxGeometry x="90" y="30" width="720" height="50" as="geometry" />
        </mxCell>
        <mxCell id="X9jpQUmjdtUfBuVu-VC2-4" value="&lt;h1 style=&quot;font-size: 13px&quot;&gt;&lt;ul style=&quot;font-size: 13px&quot;&gt;&lt;li style=&quot;font-size: 13px&quot;&gt;&lt;span style=&quot;font-weight: normal&quot;&gt;More simple way, because mobile app not need to develop screen an logic&lt;/span&gt;&lt;/li&gt;&lt;/ul&gt;&lt;/h1&gt;" style="text;html=1;strokeColor=none;fillColor=none;spacing=5;spacingTop=-20;whiteSpace=wrap;overflow=hidden;rounded=0;fontSize=13;align=left;" vertex="1" parent="uTUqdVimMX7XYQt4XhcA-1">
          <mxGeometry x="100" y="1390" width="890" height="51" as="geometry" />
        </mxCell>
        <mxCell id="X9jpQUmjdtUfBuVu-VC2-5" value="&lt;h1 style=&quot;font-size: 13px&quot;&gt;&lt;ul style=&quot;font-size: 13px&quot;&gt;&lt;li style=&quot;font-size: 13px&quot;&gt;&lt;span style=&quot;font-weight: normal ; font-size: 13px&quot;&gt;User that register with google account can only login with google account not by email because, we not save password from registration process&lt;/span&gt;&lt;/li&gt;&lt;li style=&quot;font-size: 13px&quot;&gt;&lt;span style=&quot;font-weight: normal ; font-size: 13px&quot;&gt;Need to change field password in table must be nullable&lt;/span&gt;&lt;/li&gt;&lt;li style=&quot;font-size: 13px&quot;&gt;&lt;span style=&quot;font-weight: normal ; font-size: 13px&quot;&gt;Need add field google_token in table users&lt;/span&gt;&lt;/li&gt;&lt;li style=&quot;font-size: 13px&quot;&gt;&lt;span style=&quot;font-weight: normal ; font-size: 13px&quot;&gt;Need add condition in API register for call params from google auth or make a new endpoint&lt;/span&gt;&lt;/li&gt;&lt;li style=&quot;font-size: 13px&quot;&gt;&lt;span style=&quot;font-weight: normal ; font-size: 13px&quot;&gt;Need add condition in API login to check google token&lt;/span&gt;&lt;/li&gt;&lt;li style=&quot;font-size: 13px&quot;&gt;&lt;span style=&quot;font-weight: 400&quot;&gt;Maybe have a problem with IOS because, if we provide google auth we must provide apple login too.&lt;/span&gt;&lt;/li&gt;&lt;li style=&quot;font-size: 13px&quot;&gt;&lt;span style=&quot;font-weight: 400&quot;&gt;not best effort because performance will slower than alternative 1&lt;/span&gt;&lt;/li&gt;&lt;/ul&gt;&lt;/h1&gt;" style="text;html=1;strokeColor=none;fillColor=none;spacing=5;spacingTop=-20;whiteSpace=wrap;overflow=hidden;rounded=0;fontSize=13;align=left;fontStyle=0" vertex="1" parent="uTUqdVimMX7XYQt4XhcA-1">
          <mxGeometry x="100" y="1471" width="890" height="110" as="geometry" />
        </mxCell>
        <mxCell id="X9jpQUmjdtUfBuVu-VC2-6" value="&lt;b&gt;&lt;font style=&quot;font-size: 18px&quot;&gt;Pros&lt;/font&gt;&lt;/b&gt;" style="text;html=1;strokeColor=none;fillColor=none;align=center;verticalAlign=middle;whiteSpace=wrap;rounded=0;fontSize=13;" vertex="1" parent="uTUqdVimMX7XYQt4XhcA-1">
          <mxGeometry x="100" y="1360" width="60" height="20" as="geometry" />
        </mxCell>
        <mxCell id="X9jpQUmjdtUfBuVu-VC2-7" value="&lt;b&gt;&lt;font style=&quot;font-size: 18px&quot;&gt;Cons&lt;/font&gt;&lt;/b&gt;" style="text;html=1;strokeColor=none;fillColor=none;align=center;verticalAlign=middle;whiteSpace=wrap;rounded=0;fontSize=13;" vertex="1" parent="uTUqdVimMX7XYQt4XhcA-1">
          <mxGeometry x="110" y="1441" width="60" height="20" as="geometry" />
        </mxCell>
      </root>
    </mxGraphModel>
  </diagram>
</mxfile>
